<svg width="177" height="20" viewBox="0 0 177 20" fill="none" xmlns="http://www.w3.org/2000/svg">
<path d="M128.933 5.54545H131.028L133.835 12.3963H133.946L136.753 5.54545H138.849V15H137.205V8.50462H137.118L134.505 14.9723H133.277L130.664 8.49077H130.576V15H128.933V5.54545ZM149.162 10.2727C149.162 11.2914 148.971 12.1639 148.589 12.8903C148.211 13.6135 147.694 14.1675 147.038 14.5522C146.386 14.9369 145.646 15.1293 144.818 15.1293C143.99 15.1293 143.248 14.9369 142.593 14.5522C141.94 14.1644 141.423 13.6089 141.042 12.8857C140.663 12.1593 140.474 11.2884 140.474 10.2727C140.474 9.25402 140.663 8.38305 141.042 7.6598C141.423 6.93348 141.94 6.37796 142.593 5.99325C143.248 5.60855 143.99 5.41619 144.818 5.41619C145.646 5.41619 146.386 5.60855 147.038 5.99325C147.694 6.37796 148.211 6.93348 148.589 7.6598C148.971 8.38305 149.162 9.25402 149.162 10.2727ZM147.44 10.2727C147.44 9.55563 147.328 8.95088 147.103 8.45845C146.881 7.96295 146.574 7.58902 146.18 7.33665C145.786 7.0812 145.332 6.95348 144.818 6.95348C144.304 6.95348 143.85 7.0812 143.456 7.33665C143.062 7.58902 142.753 7.96295 142.528 8.45845C142.306 8.95088 142.196 9.55563 142.196 10.2727C142.196 10.9898 142.306 11.5961 142.528 12.0916C142.753 12.584 143.062 12.958 143.456 13.2134C143.85 13.4658 144.304 13.592 144.818 13.592C145.332 13.592 145.786 13.4658 146.18 13.2134C146.574 12.958 146.881 12.584 147.103 12.0916C147.328 11.5961 147.44 10.9898 147.44 10.2727ZM149.602 5.54545H151.536L153.849 9.72798H153.941L156.254 5.54545H158.188L154.749 11.473V15H153.041V11.473L149.602 5.54545ZM159.401 15V5.54545H165.55V6.98118H161.114V9.54794H165.232V10.9837H161.114V13.5643H165.587V15H159.401ZM175.067 5.54545V15H173.544L169.089 8.56001H169.01V15H167.298V5.54545H168.83L173.281 11.9901H173.364V5.54545H175.067Z" fill="#FCD700"/>
<path d="M118 13C119.657 13 121 11.6569 121 10C121 8.34315 119.657 7 118 7C116.343 7 115 8.34315 115 10C115 11.6569 116.343 13 118 13Z" fill="#FCD700" stroke="#B09600" stroke-width="0.000213333"/>
<rect width="20" height="20" rx="5" fill="#FFF8BF"/>
<path fill-rule="evenodd" clip-rule="evenodd" d="M9.39912 4.3985C9.61982 3.86717 10.3701 3.86717 10.5908 4.3985L11.7532 7.19742C11.847 7.42328 12.067 7.57041 12.3109 7.57041H15.3678C15.9299 7.57041 16.2114 8.25219 15.8139 8.65092L13.3415 11.1313C13.1864 11.287 13.1276 11.5148 13.1878 11.7264L14.1683 15.1692C14.3339 15.7506 13.6878 16.2238 13.1863 15.8884L10.3301 13.978C10.1271 13.8423 9.86275 13.8423 9.65982 13.9781L6.80832 15.8852C6.30529 16.2216 5.65705 15.7469 5.82314 15.1638L6.80207 11.7264C6.86234 11.5148 6.8035 11.287 6.64836 11.1313L4.18816 8.66318C3.78621 8.25992 4.07089 7.57041 4.63934 7.57041H7.679C7.9229 7.57041 8.14288 7.42328 8.23668 7.19742L9.39912 4.3985Z" fill="#FCD700"/>
<rect x="22" width="20" height="20" rx="5" fill="#FFF8BF"/>
<path fill-rule="evenodd" clip-rule="evenodd" d="M31.3991 4.3985C31.6198 3.86717 32.3701 3.86717 32.5908 4.3985L33.7532 7.19742C33.847 7.42328 34.067 7.57041 34.3109 7.57041H37.3678C37.9299 7.57041 38.2114 8.25219 37.8139 8.65092L35.3415 11.1313C35.1864 11.287 35.1276 11.5148 35.1878 11.7264L36.1683 15.1692C36.3339 15.7506 35.6878 16.2238 35.1863 15.8884L32.3301 13.978C32.1271 13.8423 31.8628 13.8423 31.6598 13.9781L28.8083 15.8852C28.3053 16.2216 27.6571 15.7469 27.8231 15.1638L28.8021 11.7264C28.8623 11.5148 28.8035 11.287 28.6484 11.1313L26.1882 8.66318C25.7862 8.25992 26.0709 7.57041 26.6393 7.57041H29.679C29.9229 7.57041 30.1429 7.42328 30.2367 7.19742L31.3991 4.3985Z" fill="#FCD700"/>
<rect x="44" width="20" height="20" rx="5" fill="#FFF8BF"/>
<path fill-rule="evenodd" clip-rule="evenodd" d="M53.3991 4.3985C53.6198 3.86717 54.3701 3.86717 54.5908 4.3985L55.7532 7.19742C55.847 7.42328 56.067 7.57041 56.3109 7.57041H59.3678C59.9299 7.57041 60.2114 8.25219 59.8139 8.65092L57.3415 11.1313C57.1864 11.287 57.1276 11.5148 57.1878 11.7264L58.1683 15.1692C58.3339 15.7506 57.6878 16.2238 57.1863 15.8884L54.3301 13.978C54.1271 13.8423 53.8628 13.8423 53.6598 13.9781L50.8083 15.8852C50.3053 16.2216 49.6571 15.7469 49.8231 15.1638L50.8021 11.7264C50.8623 11.5148 50.8035 11.287 50.6484 11.1313L48.1882 8.66318C47.7862 8.25992 48.0709 7.57041 48.6393 7.57041H51.679C51.9229 7.57041 52.1429 7.42328 52.2367 7.19742L53.3991 4.3985Z" fill="#FCD700"/>
<rect x="66" width="20" height="20" rx="5" fill="#F2F2F2"/>
<path fill-rule="evenodd" clip-rule="evenodd" d="M75.3991 4.3985C75.6198 3.86717 76.3701 3.86717 76.5908 4.3985L77.7532 7.19742C77.847 7.42328 78.067 7.57041 78.3109 7.57041H81.3678C81.9299 7.57041 82.2114 8.25219 81.8139 8.65092L79.3415 11.1313C79.1864 11.287 79.1276 11.5148 79.1878 11.7264L80.1683 15.1692C80.3339 15.7506 79.6878 16.2238 79.1863 15.8884L76.3301 13.978C76.1271 13.8423 75.8628 13.8423 75.6598 13.9781L72.8083 15.8852C72.3053 16.2216 71.6571 15.7469 71.8231 15.1638L72.8021 11.7264C72.8623 11.5148 72.8035 11.287 72.6484 11.1313L70.1882 8.66318C69.7862 8.25992 70.0709 7.57041 70.6393 7.57041H73.679C73.9229 7.57041 74.1429 7.42328 74.2367 7.19742L75.3991 4.3985Z" fill="#DCDCDC"/>
<rect x="88" width="20" height="20" rx="5" fill="#F2F2F2"/>
<path fill-rule="evenodd" clip-rule="evenodd" d="M97.3991 4.3985C97.6198 3.86717 98.3701 3.86717 98.5908 4.3985L99.7532 7.19742C99.847 7.42328 100.067 7.57041 100.311 7.57041H103.368C103.93 7.57041 104.211 8.25219 103.814 8.65092L101.342 11.1313C101.186 11.287 101.128 11.5148 101.188 11.7264L102.168 15.1692C102.334 15.7506 101.688 16.2238 101.186 15.8884L98.3301 13.978C98.1271 13.8423 97.8628 13.8423 97.6598 13.9781L94.8083 15.8852C94.3053 16.2216 93.6571 15.7469 93.8231 15.1638L94.8021 11.7264C94.8623 11.5148 94.8035 11.287 94.6484 11.1313L92.1882 8.66318C91.7862 8.25992 92.0709 7.57041 92.6393 7.57041H95.679C95.9229 7.57041 96.1429 7.42328 96.2367 7.19742L97.3991 4.3985Z" fill="#DCDCDC"/>
<g clip-path="url(#clip0_0_526)">
<rect x="44" width="20" height="20" rx="5" fill="#F2F2F2"/>
<path fill-rule="evenodd" clip-rule="evenodd" d="M53.3991 4.3985C53.6198 3.86717 54.3701 3.86717 54.5908 4.3985L55.7532 7.19742C55.847 7.42328 56.067 7.57041 56.3109 7.57041H59.3678C59.9299 7.57041 60.2114 8.25219 59.8139 8.65092L57.3415 11.1313C57.1864 11.287 57.1276 11.5148 57.1878 11.7264L58.1683 15.1692C58.3339 15.7506 57.6878 16.2238 57.1863 15.8884L54.3301 13.978C54.1271 13.8423 53.8628 13.8423 53.6598 13.9781L50.8083 15.8852C50.3053 16.2216 49.6571 15.7469 49.8231 15.1638L50.8021 11.7264C50.8623 11.5148 50.8035 11.287 50.6484 11.1313L48.1882 8.66318C47.7862 8.25992 48.0709 7.57041 48.6393 7.57041H51.679C51.9229 7.57041 52.1429 7.42328 52.2367 7.19742L53.3991 4.3985Z" fill="#DCDCDC"/>
</g>
<defs>
<clipPath id="clip0_0_526">
<rect width="10" height="20" fill="white" transform="translate(54)"/>
</clipPath>
</defs>
</svg>
 