<svg width="199" height="20" viewBox="0 0 199 20" fill="none" xmlns="http://www.w3.org/2000/svg">
<path d="M132.136 15H128.933V5.54545H132.201C133.14 5.54545 133.946 5.73473 134.62 6.11328C135.297 6.48875 135.817 7.02888 136.18 7.73366C136.544 8.43845 136.725 9.28172 136.725 10.2635C136.725 11.2483 136.542 12.0947 136.176 12.8026C135.813 13.5104 135.288 14.0536 134.602 14.4322C133.918 14.8107 133.097 15 132.136 15ZM130.645 13.5181H132.053C132.712 13.5181 133.261 13.3981 133.701 13.158C134.141 12.9149 134.472 12.5533 134.694 12.0732C134.915 11.59 135.026 10.9867 135.026 10.2635C135.026 9.54025 134.915 8.9401 134.694 8.46307C134.472 7.98295 134.145 7.62441 133.711 7.38743C133.28 7.14737 132.744 7.02734 132.104 7.02734H130.645V13.5181ZM138.352 15V5.54545H144.502V6.98118H140.065V9.54794H144.183V10.9837H140.065V13.5643H144.539V15H138.352ZM140.79 4.61293L141.824 2.5032H143.458L142.041 4.61293H140.79ZM154.342 8.73544H152.615C152.566 8.4523 152.475 8.20147 152.343 7.98295C152.21 7.76136 152.046 7.57363 151.849 7.41974C151.652 7.26586 151.427 7.15045 151.175 7.07351C150.925 6.99349 150.656 6.95348 150.367 6.95348C149.853 6.95348 149.397 7.08274 149 7.34126C148.603 7.59671 148.292 7.97218 148.068 8.46768C147.843 8.96011 147.731 9.56179 147.731 10.2727C147.731 10.996 147.843 11.6054 148.068 12.1009C148.296 12.5933 148.606 12.9657 149 13.218C149.397 13.4673 149.851 13.592 150.362 13.592C150.645 13.592 150.91 13.555 151.156 13.4812C151.406 13.4042 151.629 13.2919 151.826 13.1442C152.026 12.9964 152.193 12.8149 152.329 12.5994C152.467 12.384 152.563 12.1378 152.615 11.8608L154.342 11.87C154.277 12.3194 154.137 12.741 153.922 13.1349C153.709 13.5289 153.431 13.8767 153.086 14.1783C152.741 14.4768 152.338 14.7107 151.876 14.88C151.415 15.0462 150.902 15.1293 150.339 15.1293C149.508 15.1293 148.766 14.9369 148.114 14.5522C147.462 14.1675 146.948 13.612 146.572 12.8857C146.197 12.1593 146.009 11.2884 146.009 10.2727C146.009 9.25402 146.198 8.38305 146.577 7.6598C146.955 6.93348 147.471 6.37796 148.123 5.99325C148.776 5.60855 149.514 5.41619 150.339 5.41619C150.865 5.41619 151.355 5.49006 151.807 5.63778C152.26 5.78551 152.663 6.00249 153.017 6.28871C153.371 6.57185 153.661 6.91963 153.889 7.33203C154.12 7.74136 154.271 8.20916 154.342 8.73544ZM155.91 15V5.54545H162.059V6.98118H157.623V9.54794H161.741V10.9837H157.623V13.5643H162.096V15H155.91ZM165.071 5.54545L167.532 12.9872H167.629L170.085 5.54545H171.968L168.635 15H166.521L163.193 5.54545H165.071ZM173.323 15H171.495L174.824 5.54545H176.938L180.271 15H178.443L175.918 7.48438H175.844L173.323 15ZM173.383 11.293H178.369V12.6687H173.383V11.293ZM189.286 5.54545V15H187.763L183.308 8.56001H183.229V15H181.517V5.54545H183.049L187.499 11.9901H187.583V5.54545H189.286ZM190.737 6.98118V5.54545H198.28V6.98118H195.358V15H193.659V6.98118H190.737Z" fill="#FF7A00"/>
<path d="M118 13C119.657 13 121 11.6569 121 10C121 8.34315 119.657 7 118 7C116.343 7 115 8.34315 115 10C115 11.6569 116.343 13 118 13Z" fill="#FF7A00" stroke="#FF7A00" stroke-width="0.000213333"/>
<rect width="20" height="20" rx="5" fill="#FEF4E1"/>
<path fill-rule="evenodd" clip-rule="evenodd" d="M9.39912 4.3985C9.61982 3.86717 10.3701 3.86717 10.5908 4.3985L11.7532 7.19742C11.847 7.42328 12.067 7.57041 12.3109 7.57041H15.3678C15.9299 7.57041 16.2114 8.25219 15.8139 8.65092L13.3415 11.1313C13.1864 11.287 13.1276 11.5148 13.1878 11.7264L14.1683 15.1692C14.3339 15.7506 13.6878 16.2238 13.1863 15.8884L10.3301 13.978C10.1271 13.8423 9.86275 13.8423 9.65982 13.9781L6.80832 15.8852C6.30529 16.2216 5.65705 15.7469 5.82314 15.1638L6.80207 11.7264C6.86234 11.5148 6.8035 11.287 6.64836 11.1313L4.18816 8.66318C3.78621 8.25992 4.07089 7.57041 4.63934 7.57041H7.679C7.9229 7.57041 8.14288 7.42328 8.23668 7.19742L9.39912 4.3985Z" fill="#FF7A00"/>
<rect x="22" width="20" height="20" rx="5" fill="#FEF4E1"/>
<path fill-rule="evenodd" clip-rule="evenodd" d="M31.3991 4.3985C31.6198 3.86717 32.3701 3.86717 32.5908 4.3985L33.7532 7.19742C33.847 7.42328 34.067 7.57041 34.3109 7.57041H37.3678C37.9299 7.57041 38.2114 8.25219 37.8139 8.65092L35.3415 11.1313C35.1864 11.287 35.1276 11.5148 35.1878 11.7264L36.1683 15.1692C36.3339 15.7506 35.6878 16.2238 35.1863 15.8884L32.3301 13.978C32.1271 13.8423 31.8628 13.8423 31.6598 13.9781L28.8083 15.8852C28.3053 16.2216 27.6571 15.7469 27.8231 15.1638L28.8021 11.7264C28.8623 11.5148 28.8035 11.287 28.6484 11.1313L26.1882 8.66318C25.7862 8.25992 26.0709 7.57041 26.6393 7.57041H29.679C29.9229 7.57041 30.1429 7.42328 30.2367 7.19742L31.3991 4.3985Z" fill="#FF7A00"/>
<rect x="44" width="20" height="20" rx="5" fill="#F2F2F2"/>
<path fill-rule="evenodd" clip-rule="evenodd" d="M53.3991 4.3985C53.6198 3.86717 54.3701 3.86717 54.5908 4.3985L55.7532 7.19742C55.847 7.42328 56.067 7.57041 56.3109 7.57041H59.3678C59.9299 7.57041 60.2114 8.25219 59.8139 8.65092L57.3415 11.1313C57.1864 11.287 57.1276 11.5148 57.1878 11.7264L58.1683 15.1692C58.3339 15.7506 57.6878 16.2238 57.1863 15.8884L54.3301 13.978C54.1271 13.8423 53.8628 13.8423 53.6598 13.9781L50.8083 15.8852C50.3053 16.2216 49.6571 15.7469 49.8231 15.1638L50.8021 11.7264C50.8623 11.5148 50.8035 11.287 50.6484 11.1313L48.1882 8.66318C47.7862 8.25992 48.0709 7.57041 48.6393 7.57041H51.679C51.9229 7.57041 52.1429 7.42328 52.2367 7.19742L53.3991 4.3985Z" fill="#DCDCDC"/>
<g clip-path="url(#clip0_0_654)">
<rect x="22" width="20" height="20" rx="5" fill="#F2F2F2"/>
<path fill-rule="evenodd" clip-rule="evenodd" d="M31.3991 4.3985C31.6198 3.86717 32.3701 3.86717 32.5908 4.3985L33.7532 7.19742C33.847 7.42328 34.067 7.57041 34.3109 7.57041H37.3678C37.9299 7.57041 38.2114 8.25219 37.8139 8.65092L35.3415 11.1313C35.1864 11.287 35.1276 11.5148 35.1878 11.7264L36.1683 15.1692C36.3339 15.7506 35.6878 16.2238 35.1863 15.8884L32.3301 13.978C32.1271 13.8423 31.8628 13.8423 31.6598 13.9781L28.8083 15.8852C28.3053 16.2216 27.6571 15.7469 27.8231 15.1638L28.8021 11.7264C28.8623 11.5148 28.8035 11.287 28.6484 11.1313L26.1882 8.66318C25.7862 8.25992 26.0709 7.57041 26.6393 7.57041H29.679C29.9229 7.57041 30.1429 7.42328 30.2367 7.19742L31.3991 4.3985Z" fill="#DCDCDC"/>
</g>
<rect x="66" width="20" height="20" rx="5" fill="#F2F2F2"/>
<path fill-rule="evenodd" clip-rule="evenodd" d="M75.3991 4.3985C75.6198 3.86717 76.3701 3.86717 76.5908 4.3985L77.7532 7.19742C77.847 7.42328 78.067 7.57041 78.3109 7.57041H81.3678C81.9299 7.57041 82.2114 8.25219 81.8139 8.65092L79.3415 11.1313C79.1864 11.287 79.1276 11.5148 79.1878 11.7264L80.1683 15.1692C80.3339 15.7506 79.6878 16.2238 79.1863 15.8884L76.3301 13.978C76.1271 13.8423 75.8628 13.8423 75.6598 13.9781L72.8083 15.8852C72.3053 16.2216 71.6571 15.7469 71.8231 15.1638L72.8021 11.7264C72.8623 11.5148 72.8035 11.287 72.6484 11.1313L70.1882 8.66318C69.7862 8.25992 70.0709 7.57041 70.6393 7.57041H73.679C73.9229 7.57041 74.1429 7.42328 74.2367 7.19742L75.3991 4.3985Z" fill="#DCDCDC"/>
<rect x="88" width="20" height="20" rx="5" fill="#F2F2F2"/>
<path fill-rule="evenodd" clip-rule="evenodd" d="M97.3991 4.3985C97.6198 3.86717 98.3701 3.86717 98.5908 4.3985L99.7532 7.19742C99.847 7.42328 100.067 7.57041 100.311 7.57041H103.368C103.93 7.57041 104.211 8.25219 103.814 8.65092L101.342 11.1313C101.186 11.287 101.128 11.5148 101.188 11.7264L102.168 15.1692C102.334 15.7506 101.688 16.2238 101.186 15.8884L98.3301 13.978C98.1271 13.8423 97.8628 13.8423 97.6598 13.9781L94.8083 15.8852C94.3053 16.2216 93.6571 15.7469 93.8231 15.1638L94.8021 11.7264C94.8623 11.5148 94.8035 11.287 94.6484 11.1313L92.1882 8.66318C91.7862 8.25992 92.0709 7.57041 92.6393 7.57041H95.679C95.9229 7.57041 96.1429 7.42328 96.2367 7.19742L97.3991 4.3985Z" fill="#DCDCDC"/>
<defs>
<clipPath id="clip0_0_654">
<rect width="5" height="20" fill="white" transform="translate(37)"/>
</clipPath>
</defs>
</svg>
