<svg width="197" height="20" viewBox="0 0 197 20" fill="none" xmlns="http://www.w3.org/2000/svg">
<path d="M128.933 5.54545H131.028L133.835 12.3963H133.946L136.753 5.54545H138.849V15H137.205V8.50462H137.118L134.505 14.9723H133.277L130.664 8.49077H130.576V15H128.933V5.54545ZM140.714 15V5.54545H146.863V6.98118H142.426V9.54794H146.544V10.9837H142.426V13.5643H146.9V15H140.714ZM143.151 4.61293L144.185 2.5032H145.82L144.402 4.61293H143.151ZM151.814 15H148.61V5.54545H151.879C152.817 5.54545 153.624 5.73473 154.298 6.11328C154.975 6.48875 155.495 7.02888 155.858 7.73366C156.221 8.43845 156.403 9.28172 156.403 10.2635C156.403 11.2483 156.22 12.0947 155.854 12.8026C155.49 13.5104 154.966 14.0536 154.279 14.4322C153.596 14.8107 152.774 15 151.814 15ZM150.323 13.5181H151.731C152.39 13.5181 152.939 13.3981 153.379 13.158C153.819 12.9149 154.15 12.5533 154.372 12.0732C154.593 11.59 154.704 10.9867 154.704 10.2635C154.704 9.54025 154.593 8.9401 154.372 8.46307C154.15 7.98295 153.822 7.62441 153.388 7.38743C152.957 7.14737 152.422 7.02734 151.782 7.02734H150.323V13.5181ZM159.743 5.54545V15H158.03V5.54545H159.743ZM170.046 10.2727C170.046 11.2914 169.855 12.1639 169.473 12.8903C169.095 13.6135 168.578 14.1675 167.922 14.5522C167.27 14.9369 166.53 15.1293 165.702 15.1293C164.874 15.1293 164.132 14.9369 163.476 14.5522C162.824 14.1644 162.307 13.6089 161.925 12.8857C161.547 12.1593 161.358 11.2884 161.358 10.2727C161.358 9.25402 161.547 8.38305 161.925 7.6598C162.307 6.93348 162.824 6.37796 163.476 5.99325C164.132 5.60855 164.874 5.41619 165.702 5.41619C166.53 5.41619 167.27 5.60855 167.922 5.99325C168.578 6.37796 169.095 6.93348 169.473 7.6598C169.855 8.38305 170.046 9.25402 170.046 10.2727ZM168.324 10.2727C168.324 9.55563 168.211 8.95088 167.987 8.45845C167.765 7.96295 167.457 7.58902 167.063 7.33665C166.67 7.0812 166.216 6.95348 165.702 6.95348C165.188 6.95348 164.734 7.0812 164.34 7.33665C163.946 7.58902 163.637 7.96295 163.412 8.45845C163.19 8.95088 163.079 9.55563 163.079 10.2727C163.079 10.9898 163.19 11.5961 163.412 12.0916C163.637 12.584 163.946 12.958 164.34 13.2134C164.734 13.4658 165.188 13.592 165.702 13.592C166.216 13.592 166.67 13.4658 167.063 13.2134C167.457 12.958 167.765 12.584 167.987 12.0916C168.211 11.5961 168.324 10.9898 168.324 10.2727ZM179.758 8.73544H178.031C177.982 8.4523 177.891 8.20147 177.759 7.98295C177.626 7.76136 177.462 7.57363 177.265 7.41974C177.068 7.26586 176.843 7.15045 176.591 7.07351C176.341 6.99349 176.072 6.95348 175.783 6.95348C175.269 6.95348 174.813 7.08274 174.416 7.34126C174.019 7.59671 173.709 7.97218 173.484 8.46768C173.259 8.96011 173.147 9.56179 173.147 10.2727C173.147 10.996 173.259 11.6054 173.484 12.1009C173.712 12.5933 174.022 12.9657 174.416 13.218C174.813 13.4673 175.267 13.592 175.778 13.592C176.061 13.592 176.326 13.555 176.572 13.4812C176.822 13.4042 177.045 13.2919 177.242 13.1442C177.442 12.9964 177.609 12.8149 177.745 12.5994C177.883 12.384 177.979 12.1378 178.031 11.8608L179.758 11.87C179.693 12.3194 179.553 12.741 179.338 13.1349C179.125 13.5289 178.847 13.8767 178.502 14.1783C178.157 14.4768 177.754 14.7107 177.292 14.88C176.831 15.0462 176.318 15.1293 175.755 15.1293C174.924 15.1293 174.182 14.9369 173.53 14.5522C172.878 14.1675 172.364 13.612 171.988 12.8857C171.613 12.1593 171.425 11.2884 171.425 10.2727C171.425 9.25402 171.614 8.38305 171.993 7.6598C172.371 6.93348 172.887 6.37796 173.539 5.99325C174.192 5.60855 174.93 5.41619 175.755 5.41619C176.281 5.41619 176.771 5.49006 177.223 5.63778C177.676 5.78551 178.079 6.00249 178.433 6.28871C178.787 6.57185 179.077 6.91963 179.305 7.33203C179.536 7.74136 179.687 8.20916 179.758 8.73544ZM181.326 15V5.54545H184.872C185.598 5.54545 186.207 5.67164 186.7 5.92401C187.195 6.17637 187.569 6.5303 187.821 6.98579C188.077 7.43821 188.205 7.96603 188.205 8.56925C188.205 9.17554 188.075 9.70182 187.817 10.1481C187.561 10.5913 187.184 10.9344 186.686 11.1776C186.187 11.4176 185.575 11.5376 184.848 11.5376H182.323V10.1158H184.618C185.042 10.1158 185.39 10.0573 185.661 9.94034C185.932 9.82031 186.132 9.64642 186.261 9.41868C186.393 9.18785 186.46 8.90471 186.46 8.56925C186.46 8.23378 186.393 7.94756 186.261 7.71058C186.129 7.47053 185.927 7.28894 185.656 7.16584C185.386 7.03965 185.036 6.97656 184.608 6.97656H183.039V15H181.326ZM186.21 10.7159L188.551 15H186.64L184.341 10.7159H186.21ZM189.781 15V5.54545H195.93V6.98118H191.494V9.54794H195.612V10.9837H191.494V13.5643H195.967V15H189.781Z" fill="#EA0000"/>
<path d="M118 13C119.657 13 121 11.6569 121 10C121 8.34315 119.657 7 118 7C116.343 7 115 8.34315 115 10C115 11.6569 116.343 13 118 13Z" fill="#EA0000" stroke="#EA0000" stroke-width="0.000213333"/>
<rect width="20" height="20" rx="5" fill="#FEE1E1"/>
<path fill-rule="evenodd" clip-rule="evenodd" d="M9.39912 4.3985C9.61982 3.86717 10.3701 3.86717 10.5908 4.3985L11.7532 7.19742C11.847 7.42328 12.067 7.57041 12.3109 7.57041H15.3678C15.9299 7.57041 16.2114 8.25219 15.8139 8.65092L13.3415 11.1313C13.1864 11.287 13.1276 11.5148 13.1878 11.7264L14.1683 15.1692C14.3339 15.7506 13.6878 16.2238 13.1863 15.8884L10.3301 13.978C10.1271 13.8423 9.86275 13.8423 9.65982 13.9781L6.80832 15.8852C6.30529 16.2216 5.65705 15.7469 5.82314 15.1638L6.80207 11.7264C6.86234 11.5148 6.8035 11.287 6.64836 11.1313L4.18816 8.66318C3.78621 8.25992 4.07089 7.57041 4.63934 7.57041H7.679C7.9229 7.57041 8.14288 7.42328 8.23668 7.19742L9.39912 4.3985Z" fill="#EA0000"/>
<rect x="22" width="20" height="20" rx="5" fill="#F2F2F2"/>
<path fill-rule="evenodd" clip-rule="evenodd" d="M31.3991 4.3985C31.6198 3.86717 32.3701 3.86717 32.5908 4.3985L33.7532 7.19742C33.847 7.42328 34.067 7.57041 34.3109 7.57041H37.3678C37.9299 7.57041 38.2114 8.25219 37.8139 8.65092L35.3415 11.1313C35.1864 11.287 35.1276 11.5148 35.1878 11.7264L36.1683 15.1692C36.3339 15.7506 35.6878 16.2238 35.1863 15.8884L32.3301 13.978C32.1271 13.8423 31.8628 13.8423 31.6598 13.9781L28.8083 15.8852C28.3053 16.2216 27.6571 15.7469 27.8231 15.1638L28.8021 11.7264C28.8623 11.5148 28.8035 11.287 28.6484 11.1313L26.1882 8.66318C25.7862 8.25992 26.0709 7.57041 26.6393 7.57041H29.679C29.9229 7.57041 30.1429 7.42328 30.2367 7.19742L31.3991 4.3985Z" fill="#DCDCDC"/>
<rect x="44" width="20" height="20" rx="5" fill="#F2F2F2"/>
<path fill-rule="evenodd" clip-rule="evenodd" d="M53.3991 4.3985C53.6198 3.86717 54.3701 3.86717 54.5908 4.3985L55.7532 7.19742C55.847 7.42328 56.067 7.57041 56.3109 7.57041H59.3678C59.9299 7.57041 60.2114 8.25219 59.8139 8.65092L57.3415 11.1313C57.1864 11.287 57.1276 11.5148 57.1878 11.7264L58.1683 15.1692C58.3339 15.7506 57.6878 16.2238 57.1863 15.8884L54.3301 13.978C54.1271 13.8423 53.8628 13.8423 53.6598 13.9781L50.8083 15.8852C50.3053 16.2216 49.6571 15.7469 49.8231 15.1638L50.8021 11.7264C50.8623 11.5148 50.8035 11.287 50.6484 11.1313L48.1882 8.66318C47.7862 8.25992 48.0709 7.57041 48.6393 7.57041H51.679C51.9229 7.57041 52.1429 7.42328 52.2367 7.19742L53.3991 4.3985Z" fill="#DCDCDC"/>
<rect x="66" width="20" height="20" rx="5" fill="#F2F2F2"/>
<path fill-rule="evenodd" clip-rule="evenodd" d="M75.3991 4.3985C75.6198 3.86717 76.3701 3.86717 76.5908 4.3985L77.7532 7.19742C77.847 7.42328 78.067 7.57041 78.3109 7.57041H81.3678C81.9299 7.57041 82.2114 8.25219 81.8139 8.65092L79.3415 11.1313C79.1864 11.287 79.1276 11.5148 79.1878 11.7264L80.1683 15.1692C80.3339 15.7506 79.6878 16.2238 79.1863 15.8884L76.3301 13.978C76.1271 13.8423 75.8628 13.8423 75.6598 13.9781L72.8083 15.8852C72.3053 16.2216 71.6571 15.7469 71.8231 15.1638L72.8021 11.7264C72.8623 11.5148 72.8035 11.287 72.6484 11.1313L70.1882 8.66318C69.7862 8.25992 70.0709 7.57041 70.6393 7.57041H73.679C73.9229 7.57041 74.1429 7.42328 74.2367 7.19742L75.3991 4.3985Z" fill="#DCDCDC"/>
<rect x="88" width="20" height="20" rx="5" fill="#F2F2F2"/>
<path fill-rule="evenodd" clip-rule="evenodd" d="M97.3991 4.3985C97.6198 3.86717 98.3701 3.86717 98.5908 4.3985L99.7532 7.19742C99.847 7.42328 100.067 7.57041 100.311 7.57041H103.368C103.93 7.57041 104.211 8.25219 103.814 8.65092L101.342 11.1313C101.186 11.287 101.128 11.5148 101.188 11.7264L102.168 15.1692C102.334 15.7506 101.688 16.2238 101.186 15.8884L98.3301 13.978C98.1271 13.8423 97.8628 13.8423 97.6598 13.9781L94.8083 15.8852C94.3053 16.2216 93.6571 15.7469 93.8231 15.1638L94.8021 11.7264C94.8623 11.5148 94.8035 11.287 94.6484 11.1313L92.1882 8.66318C91.7862 8.25992 92.0709 7.57041 92.6393 7.57041H95.679C95.9229 7.57041 96.1429 7.42328 96.2367 7.19742L97.3991 4.3985Z" fill="#DCDCDC"/>
</svg>
