<svg width="16" height="16" viewBox="0 0 16 16" fill="none" xmlns="http://www.w3.org/2000/svg">
<path d="M15.9428 4.69995C15.9044 3.84832 15.7668 3.26563 15.5716 2.75658C15.3668 2.23152 15.0947 1.78329 14.6499 1.34147C14.2051 0.89965 13.7603 0.62111 13.2355 0.41941C12.7267 0.22091 12.1443 0.0864432 11.2931 0.048024C10.4386 0.0096048 10.1666 0 7.99698 0C5.82413 0 5.55213 0.0096048 4.70091 0.048024C3.84969 0.0864432 3.26727 0.224112 2.75846 0.41941C2.23045 0.624312 1.78244 0.896448 1.34083 1.34147C0.899221 1.78649 0.620814 2.23152 0.41921 2.75658C0.224005 3.26563 0.086402 3.84832 0.0480011 4.69995C0.00960022 5.55478 0 5.82691 0 7.9976C0 10.1715 0.00960022 10.4436 0.0480011 11.2952C0.086402 12.1469 0.224005 12.7296 0.41921 13.2386C0.624014 13.7637 0.896021 14.2119 1.34083 14.6537C1.78244 15.0987 2.23045 15.3741 2.75526 15.5758C3.26407 15.7743 3.84649 15.9088 4.69771 15.9472C5.55213 15.9856 5.82413 15.9952 7.99378 15.9952C10.1666 15.9952 10.4386 15.9856 11.2899 15.9472C12.1411 15.9088 12.7235 15.7711 13.2323 15.5758C13.7571 15.3709 14.2051 15.0987 14.6467 14.6537C15.0883 14.2087 15.3668 13.7637 15.5684 13.2386C15.7668 12.7296 15.9012 12.1469 15.9396 11.2952C15.978 10.4404 15.9876 10.1683 15.9876 7.9976C15.9876 5.82691 15.9812 5.55158 15.9428 4.69995ZM14.5059 11.2312C14.4707 12.0124 14.3395 12.4382 14.2307 12.7168C14.0867 13.0881 13.9107 13.3571 13.6291 13.6388C13.3475 13.9206 13.0819 14.0902 12.7075 14.2407C12.4259 14.3496 12.0003 14.4808 11.2227 14.5161C10.381 14.5545 10.1282 14.5641 7.99058 14.5641C5.85293 14.5641 5.60013 14.5545 4.75851 14.5161C3.97769 14.4808 3.55208 14.3496 3.27367 14.2407C2.90247 14.0966 2.63366 13.9206 2.35205 13.6388C2.07045 13.3571 1.90084 13.0913 1.75044 12.7168C1.64164 12.435 1.51043 12.0092 1.47523 11.2312C1.43683 10.3892 1.42723 10.1363 1.42723 7.9976C1.42723 5.85893 1.43683 5.606 1.47523 4.76398C1.51043 3.98279 1.64164 3.55698 1.75044 3.27844C1.89444 2.90705 2.07045 2.63812 2.35205 2.35638C2.63366 2.07464 2.89927 1.90495 3.27367 1.75448C3.55528 1.64562 3.98089 1.51436 4.75851 1.47914C5.60013 1.44072 5.85293 1.43112 7.99058 1.43112C10.1282 1.43112 10.381 1.44072 11.2227 1.47914C12.0035 1.51436 12.4291 1.64562 12.7075 1.75448C13.0787 1.89855 13.3475 2.07464 13.6291 2.35638C13.9107 2.63812 14.0803 2.90385 14.2307 3.27844C14.3395 3.56018 14.4707 3.98599 14.5059 4.76398C14.5443 5.606 14.5539 5.85893 14.5539 7.9976C14.5539 10.1363 14.5411 10.3892 14.5059 11.2312Z" fill="white"/>
<path d="M7.99171 3.88672C5.71965 3.88672 3.88281 5.72764 3.88281 7.99757C3.88281 10.2707 5.72285 12.1084 7.99171 12.1084C10.2606 12.1084 12.1006 10.2643 12.1006 7.99757C12.1006 5.72444 10.2638 3.88672 7.99171 3.88672ZM7.99171 10.6645C6.51967 10.6645 5.32605 9.47031 5.32605 7.99757C5.32605 6.52484 6.51967 5.33064 7.99171 5.33064C9.46374 5.33064 10.6574 6.52484 10.6574 7.99757C10.6574 9.47031 9.46374 10.6645 7.99171 10.6645Z" fill="white"/>
<path d="M12.2568 4.68659C12.7869 4.68659 13.2167 4.25656 13.2167 3.72611C13.2167 3.19565 12.7869 2.76562 12.2568 2.76562C11.7266 2.76562 11.2969 3.19565 11.2969 3.72611C11.2969 4.25656 11.7266 4.68659 12.2568 4.68659Z" fill="white"/>
</svg>
