<svg width="17" height="16" viewBox="0 0 17 16" fill="none" xmlns="http://www.w3.org/2000/svg">
<g clip-path="url(#clip0_0_432)">
<path d="M15.0303 4.78678C15.0365 4.92758 15.0365 5.06198 15.0365 5.20278C15.0427 9.4716 11.906 14.3996 6.16977 14.3996C4.47793 14.3996 2.81696 13.894 1.39062 12.9468C1.63761 12.9788 1.88459 12.9916 2.13158 12.9916C3.53321 12.9916 4.8978 12.5052 6.00305 11.6028C4.66934 11.5772 3.49616 10.6748 3.08864 9.35639C3.55791 9.45239 4.03953 9.4332 4.49645 9.29879C3.04542 9.00439 2.00191 7.67959 1.99574 6.13718C1.99574 6.12438 1.99574 6.11158 1.99574 6.09878C2.42796 6.34838 2.91575 6.48918 3.40972 6.50199C2.04513 5.55478 1.61909 3.66678 2.44648 2.18837C4.03335 4.21078 6.36735 5.43318 8.87424 5.56758C8.62108 4.44758 8.96686 3.26997 9.77573 2.47637C11.0292 1.25397 13.0051 1.31797 14.1906 2.61717C14.8883 2.47637 15.5613 2.20757 16.1726 1.82997C15.938 2.57877 15.4502 3.21237 14.8019 3.61558C15.4193 3.53877 16.0244 3.36597 16.5925 3.10997C16.1726 3.76278 15.6416 4.32598 15.0303 4.78678Z" fill="white"/>
</g>
<defs>
<clipPath id="clip0_0_432">
<rect x="0.992188" width="16.002" height="16" rx="6" fill="white"/>
</clipPath>
</defs>
</svg>
