<svg width="203" height="20" viewBox="0 0 203 20" fill="none" xmlns="http://www.w3.org/2000/svg">
<path d="M128.933 15V5.54545H135.082V6.98118H130.645V9.54794H134.763V10.9837H130.645V13.5643H135.119V15H128.933ZM138.26 5.54545L140.342 9.00781H140.416L142.507 5.54545H144.46L141.547 10.2727L144.506 15H142.521L140.416 11.5607H140.342L138.237 15H136.261L139.248 10.2727L136.298 5.54545H138.26ZM153.555 8.73544H151.828C151.779 8.4523 151.688 8.20147 151.556 7.98295C151.423 7.76136 151.259 7.57363 151.062 7.41974C150.865 7.26586 150.64 7.15045 150.388 7.07351C150.138 6.99349 149.869 6.95348 149.58 6.95348C149.066 6.95348 148.61 7.08274 148.213 7.34126C147.816 7.59671 147.505 7.97218 147.281 8.46768C147.056 8.96011 146.944 9.56179 146.944 10.2727C146.944 10.996 147.056 11.6054 147.281 12.1009C147.508 12.5933 147.819 12.9657 148.213 13.218C148.61 13.4673 149.064 13.592 149.575 13.592C149.858 13.592 150.123 13.555 150.369 13.4812C150.618 13.4042 150.842 13.2919 151.039 13.1442C151.239 12.9964 151.406 12.8149 151.542 12.5994C151.68 12.384 151.776 12.1378 151.828 11.8608L153.555 11.87C153.49 12.3194 153.35 12.741 153.134 13.1349C152.922 13.5289 152.644 13.8767 152.299 14.1783C151.954 14.4768 151.551 14.7107 151.089 14.88C150.628 15.0462 150.115 15.1293 149.552 15.1293C148.721 15.1293 147.979 14.9369 147.327 14.5522C146.674 14.1675 146.16 13.612 145.785 12.8857C145.41 12.1593 145.222 11.2884 145.222 10.2727C145.222 9.25402 145.411 8.38305 145.79 7.6598C146.168 6.93348 146.684 6.37796 147.336 5.99325C147.989 5.60855 148.727 5.41619 149.552 5.41619C150.078 5.41619 150.568 5.49006 151.02 5.63778C151.472 5.78551 151.876 6.00249 152.23 6.28871C152.584 6.57185 152.874 6.91963 153.102 7.33203C153.333 7.74136 153.484 8.20916 153.555 8.73544ZM155.123 15V5.54545H161.272V6.98118H156.836V9.54794H160.954V10.9837H156.836V13.5643H161.309V15H155.123ZM163.019 15V5.54545H164.732V13.5643H168.896V15H163.019ZM170.383 15V5.54545H172.095V13.5643H176.259V15H170.383ZM177.746 15V5.54545H183.895V6.98118H179.459V9.54794H183.577V10.9837H179.459V13.5643H183.932V15H177.746ZM193.412 5.54545V15H191.889L187.434 8.56001H187.355V15H185.642V5.54545H187.175L191.625 11.9901H191.709V5.54545H193.412ZM194.863 6.98118V5.54545H202.406V6.98118H199.484V15H197.785V6.98118H194.863Z" fill="#43A047"/>
<path d="M118 13C119.657 13 121 11.6569 121 10C121 8.34315 119.657 7 118 7C116.343 7 115 8.34315 115 10C115 11.6569 116.343 13 118 13Z" fill="#43A047" stroke="#43A047" stroke-width="0.000213333"/>
<rect width="20" height="20" rx="5" fill="#D0F3CB"/>
<path fill-rule="evenodd" clip-rule="evenodd" d="M9.39912 4.3985C9.61982 3.86717 10.3701 3.86717 10.5908 4.3985L11.7532 7.19742C11.847 7.42328 12.067 7.57041 12.3109 7.57041H15.3678C15.9299 7.57041 16.2114 8.25219 15.8139 8.65092L13.3415 11.1313C13.1864 11.287 13.1276 11.5148 13.1878 11.7264L14.1683 15.1692C14.3339 15.7506 13.6878 16.2238 13.1863 15.8884L10.3301 13.978C10.1271 13.8423 9.86275 13.8423 9.65982 13.9781L6.80832 15.8852C6.30529 16.2216 5.65705 15.7469 5.82314 15.1638L6.80207 11.7264C6.86234 11.5148 6.8035 11.287 6.64836 11.1313L4.18816 8.66318C3.78621 8.25992 4.07089 7.57041 4.63934 7.57041H7.679C7.9229 7.57041 8.14288 7.42328 8.23668 7.19742L9.39912 4.3985Z" fill="#43A047"/>
<rect x="22" width="20" height="20" rx="5" fill="#FEF4E1"/>
<path fill-rule="evenodd" clip-rule="evenodd" d="M31.3991 4.3985C31.6198 3.86717 32.3701 3.86717 32.5908 4.3985L33.7532 7.19742C33.847 7.42328 34.067 7.57041 34.3109 7.57041H37.3678C37.9299 7.57041 38.2114 8.25219 37.8139 8.65092L35.3415 11.1313C35.1864 11.287 35.1276 11.5148 35.1878 11.7264L36.1683 15.1692C36.3339 15.7506 35.6878 16.2238 35.1863 15.8884L32.3301 13.978C32.1271 13.8423 31.8628 13.8423 31.6598 13.9781L28.8083 15.8852C28.3053 16.2216 27.6571 15.7469 27.8231 15.1638L28.8021 11.7264C28.8623 11.5148 28.8035 11.287 28.6484 11.1313L26.1882 8.66318C25.7862 8.25992 26.0709 7.57041 26.6393 7.57041H29.679C29.9229 7.57041 30.1429 7.42328 30.2367 7.19742L31.3991 4.3985Z" fill="url(#paint0_linear_0_473)"/>
<rect x="22" width="20" height="20" rx="5" fill="#D0F3CB"/>
<path fill-rule="evenodd" clip-rule="evenodd" d="M31.3991 4.3985C31.6198 3.86717 32.3701 3.86717 32.5908 4.3985L33.7532 7.19742C33.847 7.42328 34.067 7.57041 34.3109 7.57041H37.3678C37.9299 7.57041 38.2114 8.25219 37.8139 8.65092L35.3415 11.1313C35.1864 11.287 35.1276 11.5148 35.1878 11.7264L36.1683 15.1692C36.3339 15.7506 35.6878 16.2238 35.1863 15.8884L32.3301 13.978C32.1271 13.8423 31.8628 13.8423 31.6598 13.9781L28.8083 15.8852C28.3053 16.2216 27.6571 15.7469 27.8231 15.1638L28.8021 11.7264C28.8623 11.5148 28.8035 11.287 28.6484 11.1313L26.1882 8.66318C25.7862 8.25992 26.0709 7.57041 26.6393 7.57041H29.679C29.9229 7.57041 30.1429 7.42328 30.2367 7.19742L31.3991 4.3985Z" fill="#43A047"/>
<rect x="44" width="20" height="20" rx="5" fill="#F2F2F2"/>
<path fill-rule="evenodd" clip-rule="evenodd" d="M53.3991 4.3985C53.6198 3.86717 54.3701 3.86717 54.5908 4.3985L55.7532 7.19742C55.847 7.42328 56.067 7.57041 56.3109 7.57041H59.3678C59.9299 7.57041 60.2114 8.25219 59.8139 8.65092L57.3415 11.1313C57.1864 11.287 57.1276 11.5148 57.1878 11.7264L58.1683 15.1692C58.3339 15.7506 57.6878 16.2238 57.1863 15.8884L54.3301 13.978C54.1271 13.8423 53.8628 13.8423 53.6598 13.9781L50.8083 15.8852C50.3053 16.2216 49.6571 15.7469 49.8231 15.1638L50.8021 11.7264C50.8623 11.5148 50.8035 11.287 50.6484 11.1313L48.1882 8.66318C47.7862 8.25992 48.0709 7.57041 48.6393 7.57041H51.679C51.9229 7.57041 52.1429 7.42328 52.2367 7.19742L53.3991 4.3985Z" fill="#DCDCDC"/>
<rect x="44" width="20" height="20" rx="5" fill="#D0F3CB"/>
<path fill-rule="evenodd" clip-rule="evenodd" d="M53.3991 4.3985C53.6198 3.86717 54.3701 3.86717 54.5908 4.3985L55.7532 7.19742C55.847 7.42328 56.067 7.57041 56.3109 7.57041H59.3678C59.9299 7.57041 60.2114 8.25219 59.8139 8.65092L57.3415 11.1313C57.1864 11.287 57.1276 11.5148 57.1878 11.7264L58.1683 15.1692C58.3339 15.7506 57.6878 16.2238 57.1863 15.8884L54.3301 13.978C54.1271 13.8423 53.8628 13.8423 53.6598 13.9781L50.8083 15.8852C50.3053 16.2216 49.6571 15.7469 49.8231 15.1638L50.8021 11.7264C50.8623 11.5148 50.8035 11.287 50.6484 11.1313L48.1882 8.66318C47.7862 8.25992 48.0709 7.57041 48.6393 7.57041H51.679C51.9229 7.57041 52.1429 7.42328 52.2367 7.19742L53.3991 4.3985Z" fill="#43A047"/>
<rect x="66" width="20" height="20" rx="5" fill="#F2F2F2"/>
<path fill-rule="evenodd" clip-rule="evenodd" d="M75.3991 4.3985C75.6198 3.86717 76.3701 3.86717 76.5908 4.3985L77.7532 7.19742C77.847 7.42328 78.067 7.57041 78.3109 7.57041H81.3678C81.9299 7.57041 82.2114 8.25219 81.8139 8.65092L79.3415 11.1313C79.1864 11.287 79.1276 11.5148 79.1878 11.7264L80.1683 15.1692C80.3339 15.7506 79.6878 16.2238 79.1863 15.8884L76.3301 13.978C76.1271 13.8423 75.8628 13.8423 75.6598 13.9781L72.8083 15.8852C72.3053 16.2216 71.6571 15.7469 71.8231 15.1638L72.8021 11.7264C72.8623 11.5148 72.8035 11.287 72.6484 11.1313L70.1882 8.66318C69.7862 8.25992 70.0709 7.57041 70.6393 7.57041H73.679C73.9229 7.57041 74.1429 7.42328 74.2367 7.19742L75.3991 4.3985Z" fill="#DCDCDC"/>
<rect x="66" width="20" height="20" rx="5" fill="#D0F3CB"/>
<path fill-rule="evenodd" clip-rule="evenodd" d="M75.3991 4.3985C75.6198 3.86717 76.3701 3.86717 76.5908 4.3985L77.7532 7.19742C77.847 7.42328 78.067 7.57041 78.3109 7.57041H81.3678C81.9299 7.57041 82.2114 8.25219 81.8139 8.65092L79.3415 11.1313C79.1864 11.287 79.1276 11.5148 79.1878 11.7264L80.1683 15.1692C80.3339 15.7506 79.6878 16.2238 79.1863 15.8884L76.3301 13.978C76.1271 13.8423 75.8628 13.8423 75.6598 13.9781L72.8083 15.8852C72.3053 16.2216 71.6571 15.7469 71.8231 15.1638L72.8021 11.7264C72.8623 11.5148 72.8035 11.287 72.6484 11.1313L70.1882 8.66318C69.7862 8.25992 70.0709 7.57041 70.6393 7.57041H73.679C73.9229 7.57041 74.1429 7.42328 74.2367 7.19742L75.3991 4.3985Z" fill="#43A047"/>
<rect x="88" width="20" height="20" rx="5" fill="#F2F2F2"/>
<path fill-rule="evenodd" clip-rule="evenodd" d="M97.3991 4.3985C97.6198 3.86717 98.3701 3.86717 98.5908 4.3985L99.7532 7.19742C99.847 7.42328 100.067 7.57041 100.311 7.57041H103.368C103.93 7.57041 104.211 8.25219 103.814 8.65092L101.342 11.1313C101.186 11.287 101.128 11.5148 101.188 11.7264L102.168 15.1692C102.334 15.7506 101.688 16.2238 101.186 15.8884L98.3301 13.978C98.1271 13.8423 97.8628 13.8423 97.6598 13.9781L94.8083 15.8852C94.3053 16.2216 93.6571 15.7469 93.8231 15.1638L94.8021 11.7264C94.8623 11.5148 94.8035 11.287 94.6484 11.1313L92.1882 8.66318C91.7862 8.25992 92.0709 7.57041 92.6393 7.57041H95.679C95.9229 7.57041 96.1429 7.42328 96.2367 7.19742L97.3991 4.3985Z" fill="#DCDCDC"/>
<g clip-path="url(#clip0_0_473)">
<rect x="88.0101" y="0.00012207" width="20" height="20" rx="5" fill="#F2F2F2"/>
<path fill-rule="evenodd" clip-rule="evenodd" d="M97.4093 4.39862C97.63 3.86729 98.3802 3.86729 98.6009 4.39862L99.7634 7.19754C99.8571 7.4234 100.077 7.57053 100.321 7.57053H103.378C103.94 7.57053 104.222 8.25231 103.824 8.65104L101.352 11.1315C101.197 11.2871 101.138 11.5149 101.198 11.7266L102.178 15.1694C102.344 15.7507 101.698 16.2239 101.196 15.8885L98.3402 13.9782C98.1373 13.8424 97.8729 13.8424 97.67 13.9782L94.8185 15.8854C94.3154 16.2218 93.6672 15.7471 93.8333 15.1639L94.8122 11.7266C94.8725 11.5149 94.8137 11.2871 94.6585 11.1315L92.1983 8.6633C91.7964 8.26004 92.081 7.57053 92.6495 7.57053H95.6891C95.933 7.57053 96.153 7.4234 96.2468 7.19754L97.4093 4.39862Z" fill="#DCDCDC"/>
<rect x="88.0101" y="0.00012207" width="20" height="20" rx="5" fill="#D0F3CB"/>
<path fill-rule="evenodd" clip-rule="evenodd" d="M97.4093 4.39862C97.63 3.86729 98.3802 3.86729 98.6009 4.39862L99.7634 7.19754C99.8571 7.4234 100.077 7.57053 100.321 7.57053H103.378C103.94 7.57053 104.222 8.25231 103.824 8.65104L101.352 11.1315C101.197 11.2871 101.138 11.5149 101.198 11.7266L102.178 15.1694C102.344 15.7507 101.698 16.2239 101.196 15.8885L98.3402 13.9782C98.1373 13.8424 97.8729 13.8424 97.67 13.9782L94.8185 15.8854C94.3154 16.2218 93.6672 15.7471 93.8333 15.1639L94.8122 11.7266C94.8725 11.5149 94.8137 11.2871 94.6585 11.1315L92.1983 8.6633C91.7964 8.26004 92.081 7.57053 92.6495 7.57053H95.6891C95.933 7.57053 96.153 7.4234 96.2468 7.19754L97.4093 4.39862Z" fill="#43A047"/>
</g>
<defs>
<linearGradient id="paint0_linear_0_473" x1="26" y1="4" x2="38" y2="16" gradientUnits="userSpaceOnUse">
<stop stop-color="#FF7A00"/>
<stop offset="0.505208" stop-color="#FF9900"/>
<stop offset="1" stop-color="#DB8300"/>
</linearGradient>
<clipPath id="clip0_0_473">
<rect width="7.57843" height="20" fill="white" transform="translate(88.0101 0.00012207)"/>
</clipPath>
</defs>
</svg>
