<svg xmlns="http://www.w3.org/2000/svg" width="42" height="42" viewBox="0 0 42 42" fill="none">
  <path d="M42 21C42 25.1534 40.7684 29.2135 38.4609 32.667C36.1533 36.1204 32.8736 38.812 29.0364 40.4015C25.1991 41.9909 20.9767 42.4068 16.9031 41.5965C12.8295 40.7862 9.08767 38.7861 6.15077 35.8492C3.21386 32.9123 1.21381 29.1705 0.403518 25.0969C-0.406771 21.0233 0.00909901 16.8009 1.59854 12.9636C3.18798 9.1264 5.8796 5.84665 9.33303 3.53914C12.7865 1.23163 16.8466 0 21 0C23.7578 0 26.4885 0.543181 29.0364 1.59853C31.5842 2.65388 33.8992 4.20073 35.8492 6.15076C37.7993 8.10079 39.3461 10.4158 40.4015 12.9636C41.4568 15.5115 42 18.2422 42 21ZM32.8011 9.34748C32.0663 8.61273 29.5889 9.8992 28.8541 10.6339L24.3263 15.1645L24.2865 15.1512L11.6287 11.7109C11.352 11.6521 11.0654 11.6594 10.792 11.7323C10.5187 11.8051 10.2665 11.9413 10.0557 12.13L8.92043 13.2652C8.83505 13.3387 8.76952 13.4324 8.72988 13.5379C8.69025 13.6433 8.67778 13.757 8.69364 13.8685C8.70949 13.98 8.75315 14.0857 8.8206 14.1759C8.88805 14.2661 8.97711 14.3379 9.07958 14.3846L17.4987 19.0398L18.9761 20.5172L15.0716 24.4164C14.6728 24.8636 14.3372 25.3634 14.0743 25.9019L11.2122 25.0345C10.9391 24.9682 10.6539 24.9694 10.3813 25.0377C10.1087 25.1061 9.85676 25.2397 9.64722 25.427L9.29709 25.7745C9.12053 25.9511 9.02135 26.1906 9.02135 26.4403C9.02135 26.69 9.12053 26.9295 9.29709 27.1061L11.3554 29.1644L11.3952 29.2016L12.9523 30.7613L12.992 30.8011L15.0477 32.8594C15.2247 33.0353 15.464 33.1341 15.7135 33.1341C15.963 33.1341 16.2024 33.0353 16.3793 32.8594L16.7294 32.5093C16.917 32.2999 17.0507 32.0479 17.1191 31.7753C17.1875 31.5026 17.1885 31.2174 17.122 30.9443L16.252 28.0796C16.7903 27.8154 17.2901 27.479 17.7374 27.0796L21.6366 23.1777L23.1141 24.6525L27.7639 33.0716C27.8107 33.1741 27.8824 33.2631 27.9726 33.3306C28.0628 33.398 28.1685 33.4417 28.28 33.4576C28.3916 33.4734 28.5053 33.4609 28.6107 33.4213C28.7161 33.3817 28.8098 33.3161 28.8833 33.2308L30.0186 32.0955C30.2076 31.8844 30.3441 31.6317 30.4169 31.3579C30.4898 31.0841 30.4969 30.797 30.4377 30.5199L27 17.8674L26.9867 17.8249L31.5146 13.2944C32.2493 12.5597 33.5358 10.0849 32.8011 9.34748Z" fill="#000066"/>
  <path d="M32.8011 9.34748C32.0663 8.61273 29.5889 9.8992 28.8541 10.6339L24.3263 15.1645L24.2865 15.1512L11.6287 11.7109C11.352 11.6521 11.0654 11.6594 10.792 11.7323C10.5187 11.8051 10.2665 11.9413 10.0557 12.13L8.92043 13.2652C8.83505 13.3387 8.76952 13.4324 8.72988 13.5379C8.69025 13.6433 8.67778 13.757 8.69364 13.8685C8.70949 13.98 8.75315 14.0857 8.8206 14.1759C8.88805 14.2661 8.97711 14.3379 9.07958 14.3846L17.4987 19.0398L18.9761 20.5172L15.0716 24.4164C14.6728 24.8636 14.3372 25.3634 14.0743 25.9019L11.2122 25.0345C10.9391 24.9682 10.6539 24.9694 10.3813 25.0377C10.1087 25.1061 9.85676 25.2397 9.64722 25.427L9.29709 25.7745C9.12053 25.9511 9.02135 26.1906 9.02135 26.4403C9.02135 26.69 9.12053 26.9295 9.29709 27.1061L11.3554 29.1644L11.3952 29.2016L12.9523 30.7613L12.992 30.8011L15.0477 32.8594C15.2247 33.0353 15.464 33.1341 15.7135 33.1341C15.963 33.1341 16.2024 33.0353 16.3793 32.8594L16.7294 32.5093C16.917 32.2999 17.0507 32.0479 17.1191 31.7753C17.1875 31.5026 17.1885 31.2174 17.122 30.9443L16.252 28.0796C16.7903 27.8154 17.2901 27.479 17.7374 27.0796L21.6366 23.1777L23.1141 24.6525L27.7639 33.0716C27.8107 33.1741 27.8824 33.2631 27.9726 33.3306C28.0628 33.398 28.1685 33.4417 28.28 33.4576C28.3916 33.4734 28.5053 33.4609 28.6107 33.4213C28.7161 33.3817 28.8098 33.3161 28.8833 33.2308L30.0186 32.0955C30.2076 31.8844 30.3441 31.6317 30.4169 31.3579C30.4898 31.0841 30.4969 30.797 30.4377 30.5199L27 17.8674L26.9867 17.8249L31.5146 13.2944C32.2493 12.5597 33.5358 10.0849 32.8011 9.34748Z" fill="#FF7F33"/>
  <path d="M42 21C42 25.1534 40.7684 29.2135 38.4609 32.667C36.1533 36.1204 32.8736 38.812 29.0364 40.4015C25.1991 41.9909 20.9767 42.4068 16.9031 41.5965C12.8295 40.7862 9.08767 38.7861 6.15077 35.8492C3.21386 32.9123 1.21381 29.1705 0.403518 25.0969C-0.406771 21.0233 0.00909901 16.8009 1.59854 12.9636C3.18798 9.1264 5.8796 5.84665 9.33303 3.53914C12.7865 1.23163 16.8466 0 21 0C23.7578 0 26.4885 0.543181 29.0364 1.59853C31.5842 2.65388 33.8992 4.20073 35.8492 6.15076C37.7993 8.10079 39.3461 10.4158 40.4015 12.9636C41.4568 15.5115 42 18.2422 42 21ZM32.8011 9.34748C32.0663 8.61273 29.5889 9.8992 28.8541 10.6339L24.3263 15.1645L24.2865 15.1512L11.6287 11.7109C11.352 11.6521 11.0654 11.6594 10.792 11.7323C10.5187 11.8051 10.2665 11.9413 10.0557 12.13L8.92043 13.2652C8.83505 13.3387 8.76952 13.4324 8.72988 13.5379C8.69025 13.6433 8.67778 13.757 8.69364 13.8685C8.70949 13.98 8.75315 14.0857 8.8206 14.1759C8.88805 14.2661 8.97711 14.3379 9.07958 14.3846L17.4987 19.0398L18.9761 20.5172L15.0716 24.4164C14.6728 24.8636 14.3372 25.3634 14.0743 25.9019L11.2122 25.0345C10.9391 24.9682 10.6539 24.9694 10.3813 25.0377C10.1087 25.1061 9.85676 25.2397 9.64722 25.427L9.29709 25.7745C9.12053 25.9511 9.02135 26.1906 9.02135 26.4403C9.02135 26.69 9.12053 26.9295 9.29709 27.1061L11.3554 29.1644L11.3952 29.2016L12.9523 30.7613L12.992 30.8011L15.0477 32.8594C15.2247 33.0353 15.464 33.1341 15.7135 33.1341C15.963 33.1341 16.2024 33.0353 16.3793 32.8594L16.7294 32.5093C16.917 32.2999 17.0507 32.0479 17.1191 31.7753C17.1875 31.5026 17.1885 31.2174 17.122 30.9443L16.252 28.0796C16.7903 27.8154 17.2901 27.479 17.7374 27.0796L21.6366 23.1777L23.1141 24.6525L27.7639 33.0716C27.8107 33.1741 27.8824 33.2631 27.9726 33.3306C28.0628 33.398 28.1685 33.4417 28.28 33.4576C28.3916 33.4734 28.5053 33.4609 28.6107 33.4213C28.7161 33.3817 28.8098 33.3161 28.8833 33.2308L30.0186 32.0955C30.2076 31.8844 30.3441 31.6317 30.4169 31.3579C30.4898 31.0841 30.4969 30.797 30.4377 30.5199L27 17.8674L26.9867 17.8249L31.5146 13.2944C32.2493 12.5597 33.5358 10.0849 32.8011 9.34748Z" stroke="#FF7F33" stroke-width="0.000213333"/>
  <path d="M32.8011 9.34748C32.0663 8.61273 29.5889 9.8992 28.8541 10.6339L24.3263 15.1645L24.2865 15.1512L11.6287 11.7109C11.352 11.6521 11.0654 11.6594 10.792 11.7323C10.5187 11.8051 10.2665 11.9413 10.0557 12.13L8.92043 13.2652C8.83505 13.3387 8.76952 13.4324 8.72988 13.5379C8.69025 13.6433 8.67778 13.757 8.69364 13.8685C8.70949 13.98 8.75315 14.0857 8.8206 14.1759C8.88805 14.2661 8.97711 14.3379 9.07958 14.3846L17.4987 19.0398L18.9761 20.5172L15.0716 24.4164C14.6728 24.8636 14.3372 25.3634 14.0743 25.9019L11.2122 25.0345C10.9391 24.9682 10.6539 24.9694 10.3813 25.0377C10.1087 25.1061 9.85676 25.2397 9.64722 25.427L9.29709 25.7745C9.12053 25.9511 9.02135 26.1906 9.02135 26.4403C9.02135 26.69 9.12053 26.9295 9.29709 27.1061L11.3554 29.1644L11.3952 29.2016L12.9523 30.7613L12.992 30.8011L15.0477 32.8594C15.2247 33.0353 15.464 33.1341 15.7135 33.1341C15.963 33.1341 16.2024 33.0353 16.3793 32.8594L16.7294 32.5093C16.917 32.2999 17.0507 32.0479 17.1191 31.7753C17.1875 31.5026 17.1885 31.2174 17.122 30.9443L16.252 28.0796C16.7903 27.8154 17.2901 27.479 17.7374 27.0796L21.6366 23.1777L23.1141 24.6525L27.7639 33.0716C27.8107 33.1741 27.8824 33.2631 27.9726 33.3306C28.0628 33.398 28.1685 33.4417 28.28 33.4576C28.3916 33.4734 28.5053 33.4609 28.6107 33.4213C28.7161 33.3817 28.8098 33.3161 28.8833 33.2308L30.0186 32.0955C30.2076 31.8844 30.3441 31.6317 30.4169 31.3579C30.4898 31.0841 30.4969 30.797 30.4377 30.5199L27 17.8674L26.9867 17.8249L31.5146 13.2944C32.2493 12.5597 33.5358 10.0849 32.8011 9.34748Z" stroke="#FF7F33" stroke-width="0.000213333"/>
</svg>