<svg xmlns="http://www.w3.org/2000/svg" width="49" height="44" viewBox="0 0 49 44" fill="none">
  <path d="M7.32829 34.5622V19.7958" stroke="#FF7F33" stroke-width="2" stroke-miterlimit="10" stroke-linecap="round" stroke-linejoin="round"/>
  <path d="M15.7664 34.5622V19.7958" stroke="#FF7F33" stroke-width="2" stroke-miterlimit="10" stroke-linecap="round" stroke-linejoin="round"/>
  <path d="M24.2041 34.5622V19.7958" stroke="#FF7F33" stroke-width="2" stroke-miterlimit="10" stroke-linecap="round" stroke-linejoin="round"/>
  <path d="M32.6423 34.5622V19.7958" stroke="#FF7F33" stroke-width="2" stroke-miterlimit="10" stroke-linecap="round" stroke-linejoin="round"/>
  <path d="M41.08 34.5622V19.7958" stroke="#FF7F33" stroke-width="2" stroke-miterlimit="10" stroke-linecap="round" stroke-linejoin="round"/>
  <path d="M45.2989 43H3.10938V36.6716C3.10938 35.5114 4.05864 34.5621 5.21885 34.5621H43.1894C44.3496 34.5621 45.2989 35.5114 45.2989 36.6716V43Z" stroke="#000066" stroke-width="2" stroke-miterlimit="10" stroke-linecap="round" stroke-linejoin="round"/>
  <path d="M1 42.9999H47.4085" stroke="#000066" stroke-width="1.869" stroke-miterlimit="10" stroke-linecap="round" stroke-linejoin="round"/>
  <path d="M24.9846 1.12657L43.9699 8.72064C44.7082 9.01597 45.2989 9.90192 45.2989 10.6824V17.6859C45.2989 18.8461 44.3496 19.7953 43.1894 19.7953H5.21885C4.05864 19.7953 3.10938 18.8461 3.10938 17.6859V10.6824C3.10938 9.90192 3.70003 9.01597 4.43834 8.72064L23.4236 1.12657C23.8455 0.95781 24.5627 0.95781 24.9846 1.12657Z" stroke="#000066" stroke-width="2" stroke-miterlimit="10" stroke-linecap="round" stroke-linejoin="round"/>
  <path d="M24.2044 14.5221C25.9519 14.5221 27.3686 13.1054 27.3686 11.3579C27.3686 9.61033 25.9519 8.19366 24.2044 8.19366C22.4569 8.19366 21.0402 9.61033 21.0402 11.3579C21.0402 13.1054 22.4569 14.5221 24.2044 14.5221Z" stroke="#FF7F33" stroke-width="2" stroke-miterlimit="10" stroke-linecap="round" stroke-linejoin="round"/>
</svg>