<svg xmlns="http://www.w3.org/2000/svg" width="42" height="42" viewBox="0 0 42 42" fill="none">
  <rect y="8.65002" width="42" height="1.2" fill="#FF7F33"/>
  <path d="M14 29V24.3C14.1778 24.3 14.3501 24.2826 14.5142 24.25C14.6965 24.2487 14.8671 24.223 15.0134 24.1792C15.1042 24.1927 15.2004 24.2 15.3 24.2C15.7905 24.2 16.1985 24.0234 16.2837 23.7905C17.1226 23.4341 17.798 22.7944 18.1739 22H24.3261C24.6692 22.725 25.2616 23.3211 26.0002 23.6906C26.0001 23.6937 26 23.6969 26 23.7C26 24.059 26.6716 24.35 27.5 24.35C27.6753 24.35 27.8436 24.337 28 24.313V29H14Z" fill="#FF7F33"/>
  <path d="M22.2117 29.8702C22.2117 29.2718 21.7267 28.7868 21.1283 28.7868C20.53 28.7868 20.045 29.2718 20.045 29.8702C20.045 30.4685 20.53 30.9535 21.1283 30.9535C21.7267 30.9535 22.2117 30.4685 22.2117 29.8702Z" fill="#FF7F33"/>
  <path fill-rule="evenodd" clip-rule="evenodd" d="M18.3972 21.0885C18.0433 22.3173 17.1843 23.2932 16.0865 23.824C16.4657 24.277 16.8817 24.7013 17.3305 25.0893C18.0122 25.6782 18.7852 26.1997 19.6277 26.639C19.9423 26.8032 20.2723 26.9567 20.6115 27.1007C20.7462 26.9723 21.1282 26.8923 21.1282 26.8923L21.6452 27.101L22.6297 26.639L24.9268 25.0893L26.1707 23.8243C26.1707 23.8243 24.2132 22.3177 23.8592 21.0885C23.5052 19.8593 23.5627 20.059 23.5627 20.059H21.1282H18.6937L18.3972 21.0885ZM21.1282 36.7702C27.9545 34.2422 29.0853 28.0685 29.2437 25.5067C29.2853 24.8333 28.753 24.264 28.0783 24.264C27.6638 24.264 27.2613 24.2027 26.877 24.0933C26.4323 24.6483 25.938 25.1665 25.3972 25.6337C24.6733 26.2588 23.8542 26.8117 22.9623 27.2768C22.6113 27.4598 22.2427 27.6307 21.8633 27.7897C21.7948 28.1333 21.4918 28.3923 21.1282 28.3923C20.7643 28.3923 20.4613 28.133 20.393 27.7892C20.0142 27.6303 19.6458 27.4597 19.2952 27.2768C18.4033 26.8118 17.5842 26.2588 16.8603 25.6337C16.3193 25.1665 15.825 24.6482 15.3802 24.0932C14.9955 24.2028 14.5927 24.2642 14.1778 24.2642C13.5035 24.2642 12.971 24.8335 13.0127 25.5067C13.171 28.0687 14.302 34.2422 21.1282 36.7702ZM21.1283 28.7868C21.7267 28.7868 22.2117 29.2718 22.2117 29.8702C22.2117 30.4685 21.7267 30.9535 21.1283 30.9535C20.53 30.9535 20.045 30.4685 20.045 29.8702C20.045 29.2718 20.53 28.7868 21.1283 28.7868ZM42 9.83333H0V11.1667C0 13.4463 1.60417 15.3837 3.66667 16.096V38.5H0V41.5H42V38.5H38.3333V16.0923C40.4817 15.4348 41.9498 13.5263 42 11.1667V9.83333ZM6.66667 38.5V16.099C8.90033 15.4943 10.5483 13.4825 10.5483 11.0577C10.5483 12.1373 11.6743 16.3027 15.8362 16.3027C19.451 16.3027 21.0365 13.0335 21.0365 11.0577C21.0365 12.8997 22.2717 16.2988 26.2805 16.2988C29.9027 16.2988 31.5077 12.799 31.5077 11.0577C31.5077 13.462 33.1287 15.4603 35.3333 16.0833V38.5H6.66667Z" fill="#000066"/>
  <path d="M36.8053 3.33333H36.8333V0H5.33333V3.33333L0 8.66667H42L36.8053 3.33333Z" fill="#000066"/>
  <path d="M22.2117 29.8702C22.2117 29.2718 21.7267 28.7868 21.1283 28.7868C20.53 28.7868 20.045 29.2718 20.045 29.8702C20.045 30.4685 20.53 30.9535 21.1283 30.9535C21.7267 30.9535 22.2117 30.4685 22.2117 29.8702Z" stroke="#000066" stroke-width="0.000213333"/>
  <path fill-rule="evenodd" clip-rule="evenodd" d="M18.3972 21.0885C18.0433 22.3173 17.1843 23.2932 16.0865 23.824C16.4657 24.277 16.8817 24.7013 17.3305 25.0893C18.0122 25.6782 18.7852 26.1997 19.6277 26.639C19.9423 26.8032 20.2723 26.9567 20.6115 27.1007C20.7462 26.9723 21.1282 26.8923 21.1282 26.8923L21.6452 27.101L22.6297 26.639L24.9268 25.0893L26.1707 23.8243C26.1707 23.8243 24.2132 22.3177 23.8592 21.0885C23.5052 19.8593 23.5627 20.059 23.5627 20.059H21.1282H18.6937L18.3972 21.0885ZM21.1282 36.7702C27.9545 34.2422 29.0853 28.0685 29.2437 25.5067C29.2853 24.8333 28.753 24.264 28.0783 24.264C27.6638 24.264 27.2613 24.2027 26.877 24.0933C26.4323 24.6483 25.938 25.1665 25.3972 25.6337C24.6733 26.2588 23.8542 26.8117 22.9623 27.2768C22.6113 27.4598 22.2427 27.6307 21.8633 27.7897C21.7948 28.1333 21.4918 28.3923 21.1282 28.3923C20.7643 28.3923 20.4613 28.133 20.393 27.7892C20.0142 27.6303 19.6458 27.4597 19.2952 27.2768C18.4033 26.8118 17.5842 26.2588 16.8603 25.6337C16.3193 25.1665 15.825 24.6482 15.3802 24.0932C14.9955 24.2028 14.5927 24.2642 14.1778 24.2642C13.5035 24.2642 12.971 24.8335 13.0127 25.5067C13.171 28.0687 14.302 34.2422 21.1282 36.7702ZM21.1283 28.7868C21.7267 28.7868 22.2117 29.2718 22.2117 29.8702C22.2117 30.4685 21.7267 30.9535 21.1283 30.9535C20.53 30.9535 20.045 30.4685 20.045 29.8702C20.045 29.2718 20.53 28.7868 21.1283 28.7868ZM42 9.83333H0V11.1667C0 13.4463 1.60417 15.3837 3.66667 16.096V38.5H0V41.5H42V38.5H38.3333V16.0923C40.4817 15.4348 41.9498 13.5263 42 11.1667V9.83333ZM6.66667 38.5V16.099C8.90033 15.4943 10.5483 13.4825 10.5483 11.0577C10.5483 12.1373 11.6743 16.3027 15.8362 16.3027C19.451 16.3027 21.0365 13.0335 21.0365 11.0577C21.0365 12.8997 22.2717 16.2988 26.2805 16.2988C29.9027 16.2988 31.5077 12.799 31.5077 11.0577C31.5077 13.462 33.1287 15.4603 35.3333 16.0833V38.5H6.66667Z" stroke="#000066" stroke-width="0.000213333"/>
  <path d="M36.8053 3.33333H36.8333V0H5.33333V3.33333L0 8.66667H42L36.8053 3.33333Z" stroke="#000066" stroke-width="0.000213333"/>
</svg>