
<svg xmlns="http://www.w3.org/2000/svg" width="42" height="42" viewBox="0 0 42 42" fill="none">
  <path d="M8.40001 22.4C8.40001 21.6268 9.02681 21 9.80001 21C10.5732 21 11.2 21.6268 11.2 22.4H30.8C30.8 21.6268 31.4268 21 32.2 21C32.9732 21 33.6 21.6268 33.6 22.4H36.4C36.4 21.6268 37.0268 21 37.8 21H39.1723L38.8923 19.6H3.10774L2.82774 21H4.20001C4.97321 21 5.60001 21.6268 5.60001 22.4H8.40001Z" fill="#FF7F33"/>
  <path d="M32.2 29.4H33.6V22.4H30.8V28H32.2V29.4Z" fill="#FF7F33"/>
  <path d="M33.6 22.4C33.6 21.6268 32.9732 21 32.2 21C31.4268 21 30.8 21.6268 30.8 22.4H33.6Z" fill="#FF7F33"/>
  <path d="M8.40001 29.4H9.80001V28H11.2V22.4H8.40001V29.4Z" fill="#FF7F33"/>
  <path d="M11.2 22.4C11.2 21.6268 10.5732 21 9.80001 21C9.02681 21 8.40001 21.6268 8.40001 22.4H11.2Z" fill="#FF7F33"/>
  <path d="M9.80001 29.4V30.8H32.2V29.4H30.8V28H11.2V29.4H9.80001Z" fill="#FF7F33"/>
  <path d="M2.80001 1.4C2.80001 2.1732 3.42681 2.8 4.20001 2.8H37.8C38.5732 2.8 39.2 2.1732 39.2 1.4C39.2 0.626801 38.5732 0 37.8 0H4.20001C3.42681 0 2.80001 0.626801 2.80001 1.4Z" fill="#FF7F33"/>
  <path d="M32.2 29.4V28H30.8V29.4H32.2Z" fill="#FF7F33"/>
  <path d="M32.2 29.4V30.8C32.9732 30.8 33.6 30.1732 33.6 29.4H32.2Z" fill="#FF7F33"/>
  <path d="M9.80001 29.4H11.2V28H9.80001V29.4Z" fill="#FF7F33"/>
  <path d="M9.80001 29.4H8.40001C8.40001 30.1732 9.02681 30.8 9.80001 30.8V29.4Z" fill="#FF7F33"/>
  <path d="M5.60001 22.4C5.60001 21.6268 4.97321 21 4.20001 21H2.82774L2.80001 21.1386V22.4H5.60001Z" fill="#FF7F33"/>
  <path fill-rule="evenodd" clip-rule="evenodd" d="M2.8272 6.72543C2.95807 6.07104 3.53266 5.6 4.20001 5.6H37.8C38.4673 5.6 39.0418 6.07104 39.1728 6.72543L41.9728 20.7254C42.0552 21.1367 41.9485 21.5632 41.6828 21.8876C41.4168 22.212 41.0194 22.4 40.6 22.4H39.2V21.1388L39.1723 21L38.8923 19.6L36.6523 8.4H5.34774L3.10774 19.6L2.82774 21L2.80001 21.1386V22.4H1.40001C0.98058 22.4 0.583246 22.212 0.317333 21.8876C0.051419 21.5632 -0.055058 21.1367 0.0271991 20.7254L2.8272 6.72543ZM36.4 22.4V39.2H5.60001V22.4H2.80001V39.2H1.40001C0.626814 39.2 1.2079e-05 39.8268 1.2079e-05 40.6C1.2079e-05 41.3732 0.626813 42 1.40001 42H40.6C41.3732 42 42 41.3732 42 40.6C42 39.8268 41.3732 39.2 40.6 39.2H39.2V22.4H36.4Z" fill="#000066"/>
  <path d="M37.8 21C37.0268 21 36.4 21.6268 36.4 22.4H39.2V21.1388L39.1723 21H37.8Z" fill="#FF7F33"/>
  <path d="M4.20001 5.6V5.6C4.20001 6.32427 3.5374 6.86748 2.8272 6.72543V6.72543M4.20001 5.6C3.53266 5.6 2.95807 6.07104 2.8272 6.72543M4.20001 5.6H37.8M4.20001 5.6V7.25227C4.20001 7.88615 4.71387 8.4 5.34774 8.4V8.4M2.8272 6.72543L4.44739 7.04948C5.06895 7.17379 5.47205 7.77844 5.34774 8.4V8.4M2.8272 6.72543L0.0271991 20.7254M39.1728 6.72543V6.72543C38.4626 6.86747 37.8 6.32427 37.8 5.6V5.6M39.1728 6.72543C39.0418 6.07104 38.4673 5.6 37.8 5.6M39.1728 6.72543L41.9728 20.7254M39.1728 6.72543L37.5526 7.04948C36.931 7.17379 36.5279 7.77844 36.6523 8.4V8.4M37.8 5.6V7.25224C37.8 7.88613 37.2861 8.4 36.6523 8.4V8.4M40.6 22.4V22.4C40.6 21.586 41.1746 20.8851 41.9728 20.7254V20.7254M40.6 22.4C41.0194 22.4 41.4168 22.212 41.6828 21.8876C41.9485 21.5632 42.0552 21.1367 41.9728 20.7254M40.6 22.4V21.3078C40.6 20.3646 39.8354 19.6 38.8923 19.6V19.6M40.6 22.4H39.2M41.9728 20.7254L39.363 21.2474C39.288 21.2624 39.215 21.2138 39.2 21.1388V21.1388M0.0271991 20.7254V20.7254C0.825431 20.8851 1.40001 21.586 1.40001 22.4V22.4M0.0271991 20.7254C-0.055058 21.1367 0.051419 21.5632 0.317333 21.8876C0.583246 22.212 0.98058 22.4 1.40001 22.4M0.0271991 20.7254L2.63688 21.2474C2.71196 21.2624 2.785 21.2137 2.80001 21.1386V21.1386M1.40001 22.4V21.3077C1.40001 20.3646 2.16459 19.6 3.10774 19.6V19.6M1.40001 22.4H2.80001M9.80001 29.4H8.40001M9.80001 29.4V30.8M9.80001 29.4V28M9.80001 29.4H11.2M8.40001 29.4V29.4C8.40001 30.1732 9.02681 30.8 9.80001 30.8V30.8M8.40001 29.4H11.2M8.40001 29.4V22.4M9.80001 30.8H32.2M9.80001 30.8V28M32.2 29.4V30.8M32.2 29.4H33.6M32.2 29.4V28M32.2 29.4H30.8M32.2 30.8V30.8C32.9732 30.8 33.6 30.1732 33.6 29.4V29.4M32.2 30.8V28M33.6 29.4H30.8M33.6 29.4V22.4M11.2 29.4V28M32.2 28H30.8M9.80001 28H11.2M30.8 29.4V28M39.2 22.4V39.2M39.2 22.4H36.4M39.2 22.4V21.1388M39.2 39.2H40.6C41.3732 39.2 42 39.8268 42 40.6V40.6C42 41.3732 41.3732 42 40.6 42H1.40001C0.626813 42 1.2079e-05 41.3732 1.2079e-05 40.6V40.6C1.2079e-05 39.8268 0.626814 39.2 1.40001 39.2H2.80001M39.2 39.2H36.4M39.2 39.2V39.2C39.2 39.9732 38.5732 40.6 37.8 40.6V40.6C37.0268 40.6 36.4 39.9732 36.4 39.2V39.2M2.80001 39.2V22.4M2.80001 39.2V39.2C2.80001 39.9732 3.42681 40.6 4.20001 40.6V40.6C4.97321 40.6 5.60001 39.9732 5.60001 39.2V39.2M2.80001 39.2H5.60001M2.80001 22.4H5.60001M2.80001 22.4V21.1386M5.60001 22.4V39.2M5.60001 22.4H8.40001M5.60001 22.4V22.4C5.60001 21.6268 4.97321 21 4.20001 21H2.82774M5.60001 39.2H36.4M36.4 39.2V22.4M36.4 22.4H33.6M36.4 22.4V22.4C36.4 21.6268 37.0268 21 37.8 21H39.1723M33.6 22.4V22.4C33.6 21.6268 32.9732 21 32.2 21V21C31.4268 21 30.8 21.6268 30.8 22.4V22.4M33.6 22.4H30.8M11.2 28H30.8M11.2 28V22.4M30.8 28V22.4M30.8 22.4H11.2M11.2 22.4H8.40001M11.2 22.4V22.4C11.2 21.6268 10.5732 21 9.80001 21V21C9.02681 21 8.40001 21.6268 8.40001 22.4V22.4M38.8923 19.6L36.6523 8.4M38.8923 19.6H3.10774M38.8923 19.6L39.1723 21M36.6523 8.4H5.34774M5.34774 8.4L3.10774 19.6M3.10774 19.6L2.82774 21M2.82774 21V21C2.81242 21 2.80001 21.0124 2.80001 21.0277V21.1386M2.82774 21L2.80001 21.1386M39.1723 21V21C39.1876 21 39.2 21.0124 39.2 21.0278V21.1388M39.1723 21L39.2 21.1388M4.20001 0H37.8C38.5732 0 39.2 0.626801 39.2 1.4V1.4C39.2 2.1732 38.5732 2.8 37.8 2.8H4.20001C3.42681 2.8 2.80001 2.1732 2.80001 1.4V1.4C2.80001 0.626801 3.42681 0 4.20001 0Z" stroke="#000066" stroke-width="0.00043"/>
</svg>