<svg xmlns="http://www.w3.org/2000/svg" width="40" height="40" viewBox="0 0 40 40" fill="none">
  <mask id="mask0_0_186" style="mask-type:luminance" maskUnits="userSpaceOnUse" x="2" y="2" width="35" height="35">
    <path d="M36.6126 17.0241C35.1477 7.75024 26.4422 1.41983 17.1684 2.88473C7.89453 4.34962 1.56412 13.0551 3.02902 22.329C4.49391 31.6028 13.1994 37.9332 22.4732 36.4683C31.7471 35.0034 38.0775 26.298 36.6126 17.0241Z" fill="white"/>
  </mask>
  <g mask="url(#mask0_0_186)">
    <path d="M36.6127 17.0241C35.1478 7.75023 26.4424 1.41981 17.1685 2.88471C7.89465 4.34961 1.56424 13.0551 3.02914 22.3289C4.49403 31.6028 13.1995 37.9332 22.4734 36.4683C31.7472 35.0034 38.0776 26.2979 36.6127 17.0241Z" fill="#8F5AFF"/>
    <path d="M23.9394 13.4884C24.5295 16.6672 23.2868 20.3919 20.7083 20.7992C18.9869 21.0711 17.0477 19.1177 15.6137 17.2707C14.4255 16.4005 14.0726 15.7464 13.9356 14.8788C13.5228 12.266 15.2797 9.81658 17.8582 9.40928C20.4368 9.00198 23.4337 10.7532 23.9394 13.4884Z" fill="black"/>
    <path d="M30.1083 10.2472C26.1715 9.04156 23.6371 10.5068 22.8631 11.3917L22.992 12.2077C23.3804 12.1077 25.5746 12.204 26.7979 13.1178C28.5276 14.412 28.7326 17.2228 28.6111 18.3455L29.6191 17.3393L29.2759 16.5465L29.9684 16.9924L32.2425 14.7249L32.528 14.4408L31.7759 13.2171L33.0955 13.8732L33.3811 13.5891L34.5167 12.4573C33.9056 12.0372 32.1708 11.0004 30.1083 10.2472Z" fill="black"/>
    <path d="M26.5076 21.8724L14.0061 24.0932C11.561 24.7887 10.7119 27.8678 9.94609 29.4052L5.01005 40.4294L-1.82869 37.2501L-4.14506 42.0092C-1.45743 43.5386 1.57023 45.2182 3.05029 45.8665C5.98482 47.1567 8.42973 45.7477 9.28744 44.8813L14.6659 36.0574L16.0493 44.8148L31.3801 42.7059L29.948 33.64L41.4128 49.5524L46.2194 46.5192C41.8426 38.7022 37.0672 31.5419 32.0198 24.1506C30.3793 21.7529 27.6613 21.6338 26.5076 21.8724Z" fill="#FF85D2"/>
    <path d="M29.8063 33.0333L29.1455 28.85" stroke="white" stroke-width="0.8" stroke-linecap="round"/>
    <path d="M14.5756 35.4391L13.9148 31.2559" stroke="white" stroke-width="0.8" stroke-linecap="round"/>
    <path d="M24.3586 34.3226C24.1755 33.5642 24.0103 32.051 24.8212 32.0671C25.833 32.0864 27.4138 33.84 28.3888 32.9375C28.8646 32.4124 27.9811 30.6682 28.32 30.077" stroke="white" stroke-width="0.8" stroke-linecap="round"/>
    <path d="M27.6222 24.6344C27.4391 23.876 27.2739 22.3628 28.0847 22.3789C28.984 22.3985 30.3391 23.7905 31.3122 23.4541" stroke="white" stroke-width="0.8" stroke-linecap="round"/>
    <path d="M34.4063 33.7864C34.2233 33.028 34.0581 31.5148 34.8689 31.5309C35.6199 31.5456 36.6909 32.5188 37.5891 32.6439" stroke="white" stroke-width="1.94721" stroke-linecap="round"/>
    <path d="M12.7217 31.5814C12.5387 30.823 12.3769 29.3092 13.1843 29.3259C14.196 29.3452 15.7769 31.0988 16.7519 30.1961C17.2278 29.6711 16.3443 27.9269 16.6832 27.3358" stroke="white" stroke-width="0.8" stroke-linecap="round"/>
    <path d="M15.1072 17.0027L14.4499 16.1787C15.0494 15.8801 16.0829 13.2568 16.0331 12.2736C16.5043 13.2324 18.558 15.0202 21.9283 15.6651L21.4567 16.7729C22.2525 15.8705 23.5351 16.181 23.7123 17.1019C23.9081 18.6982 22.604 18.7636 21.9672 18.4705L22.693 23.0653C22.693 23.0653 22.5172 23.954 21.9768 24.3381C20.1746 25.744 18.6248 24.4318 18.0332 23.8014L17.6628 21.456C17.0798 21.5481 15.8671 21.8134 15.1908 20.8694C14.5005 19.903 14.7514 17.9761 15.1072 17.0027Z" fill="#FECB4B"/>
    <path d="M17.8472 22.6465L19.77 20.8913C19.77 20.8913 19.1227 21.1095 18.7045 21.2212C18.2961 21.3279 17.6582 21.4498 17.6582 21.4498L17.8472 22.6465Z" fill="black"/>
    <path d="M16.8026 15.5646C16.7727 16.4655 17.522 16.8708 17.522 16.8708L16.9457 18.4063L17.8886 18.2574" stroke="black" stroke-width="0.5" stroke-linecap="round"/>
    <path d="M18.3705 15.0357C18.7042 14.9232 19.0551 14.8748 19.3054 14.9021" stroke="black" stroke-width="0.5" stroke-linecap="round"/>
    <path d="M15.2558 15.6051C15.5895 15.4927 15.9403 15.4443 16.1906 15.4715" stroke="black" stroke-width="0.5" stroke-linecap="round"/>
    <path d="M18.1647 19.6511C18.4473 19.4378 18.6841 19.179 18.7996 18.9534" stroke="black" stroke-width="0.5" stroke-linecap="round"/>
    <path d="M21.7276 17.7776L22.7189 16.6651" stroke="black" stroke-width="0.5" stroke-linecap="round"/>
    <path d="M22.4353 17.0051L23.089 17.4501" stroke="black" stroke-width="0.5" stroke-linecap="round"/>
    <path d="M22.5588 15.6956L23.6431 14.4841" stroke="black" stroke-width="1.29814" stroke-linecap="round"/>
    <path d="M16.0339 17.1728C16.174 17.1507 16.2696 17.0191 16.2475 16.879C16.2254 16.7388 16.0938 16.6432 15.9537 16.6653C15.8136 16.6874 15.7179 16.819 15.74 16.9591C15.7622 17.0993 15.8937 17.1949 16.0339 17.1728Z" fill="black"/>
    <path d="M18.9824 16.707C19.1226 16.6849 19.2182 16.5533 19.1961 16.4132C19.174 16.2731 19.0424 16.1774 18.9023 16.1995C18.7622 16.2217 18.6665 16.3532 18.6886 16.4934C18.7108 16.6335 18.8423 16.7292 18.9824 16.707Z" fill="black"/>
  </g>
</svg>