<svg xmlns="http://www.w3.org/2000/svg" width="111" height="38" viewBox="0 0 111 38" fill="none">
  <rect x="0.868652" y="17.8062" width="20" height="20" rx="5" transform="rotate(-8.97626 0.868652 17.8062)" fill="#FEE1E1"/>
  <path fill-rule="evenodd" clip-rule="evenodd" d="M10.8389 20.6843C10.974 20.125 11.7151 20.008 12.016 20.4984L13.6009 23.0816C13.7287 23.2901 13.969 23.4011 14.2099 23.3631L17.2294 22.8861C17.7846 22.7984 18.169 23.4279 17.8386 23.8838L15.7835 26.7196C15.6545 26.8975 15.632 27.1317 15.7245 27.3314L17.2302 30.579C17.4844 31.1274 16.9201 31.6956 16.3724 31.4426L13.2531 30.0013C13.0315 29.8989 12.7703 29.9401 12.5911 30.1059L10.072 32.4346C9.62767 32.8454 8.9133 32.4776 8.98637 31.8757L9.41699 28.3277C9.44351 28.1092 9.34985 27.8934 9.17232 27.7639L6.35716 25.7098C5.89721 25.3742 6.07082 24.6487 6.63231 24.56L9.63474 24.0858C9.87566 24.0477 10.07 23.868 10.1274 23.6303L10.8389 20.6843Z" fill="#EA0000"/>
  <rect x="22.5992" y="14.3736" width="20" height="20" rx="5" transform="rotate(-8.97626 22.5992 14.3736)" fill="#F2F2F2"/>
  <path fill-rule="evenodd" clip-rule="evenodd" d="M32.5695 17.2517C32.7046 16.6925 33.4456 16.5754 33.7465 17.0658L35.3315 19.6491C35.4593 19.8576 35.6996 19.9686 35.9405 19.9305L38.96 19.4535C39.5152 19.3658 39.8996 19.9954 39.5692 20.4512L37.5141 23.287C37.3851 23.465 37.3626 23.6991 37.4551 23.8988L38.9608 27.1465C39.215 27.6948 38.6506 28.2631 38.103 28.01L34.9837 26.5687C34.7621 26.4663 34.5009 26.5076 34.3217 26.6734L31.8026 29.002C31.3583 29.4128 30.6439 29.0451 30.717 28.4431L31.1476 24.8951C31.1741 24.6767 31.0804 24.4609 30.9029 24.3313L28.0877 22.2772C27.6278 21.9416 27.8014 21.2162 28.3629 21.1275L31.3653 20.6532C31.6062 20.6151 31.8006 20.4355 31.858 20.1978L32.5695 17.2517Z" fill="#DCDCDC"/>
  <rect x="44.3298" y="10.9411" width="20" height="20" rx="5" transform="rotate(-8.97626 44.3298 10.9411)" fill="#F2F2F2"/>
  <path fill-rule="evenodd" clip-rule="evenodd" d="M54.3001 13.8192C54.4352 13.2599 55.1762 13.1429 55.4771 13.6333L57.0621 16.2165C57.1899 16.425 57.4302 16.536 57.6711 16.498L60.6906 16.021C61.2458 15.9333 61.6302 16.5628 61.2998 17.0187L59.2447 19.8545C59.1157 20.0324 59.0932 20.2666 59.1857 20.4663L60.6914 23.7139C60.9456 24.2623 60.3812 24.8305 59.8336 24.5775L56.7143 23.1362C56.4927 23.0338 56.2315 23.075 56.0522 23.2408L53.5332 25.5695C53.0889 25.9803 52.3745 25.6125 52.4476 25.0106L52.8782 21.4626C52.9047 21.2441 52.811 21.0283 52.6335 20.8988L49.8183 18.8447C49.3584 18.5091 49.532 17.7836 50.0935 17.6949L53.0959 17.2206C53.3368 17.1826 53.5312 17.0029 53.5886 16.7652L54.3001 13.8192Z" fill="#DCDCDC"/>
  <rect x="66.0603" y="7.50851" width="20" height="20" rx="5" transform="rotate(-8.97626 66.0603 7.50851)" fill="#F2F2F2"/>
  <path fill-rule="evenodd" clip-rule="evenodd" d="M76.0305 10.3866C76.1656 9.82738 76.9067 9.71032 77.2076 10.2007L78.7925 12.784C78.9204 12.9924 79.1606 13.1034 79.4015 13.0654L82.421 12.5884C82.9763 12.5007 83.3607 13.1302 83.0303 13.5861L80.9752 16.4219C80.8462 16.5999 80.8237 16.834 80.9162 17.0337L82.4218 20.2814C82.6761 20.8297 82.1117 21.3979 81.5641 21.1449L78.4448 19.7036C78.2231 19.6012 77.962 19.6425 77.7827 19.8082L75.2637 22.1369C74.8193 22.5477 74.105 22.1799 74.178 21.578L74.6086 18.03C74.6352 17.8116 74.5415 17.5958 74.364 17.4662L71.5488 15.4121C71.0889 15.0765 71.2625 14.351 71.824 14.2623L74.8264 13.7881C75.0673 13.75 75.2616 13.5704 75.3191 13.3326L76.0305 10.3866Z" fill="#DCDCDC"/>
  <rect x="87.7909" y="4.07596" width="20" height="20" rx="5" transform="rotate(-8.97626 87.7909 4.07596)" fill="#F2F2F2"/>
  <path fill-rule="evenodd" clip-rule="evenodd" d="M97.7611 6.95408C97.8962 6.39482 98.6373 6.27777 98.9382 6.76815L100.523 9.35142C100.651 9.55989 100.891 9.67089 101.132 9.63284L104.152 9.15588C104.707 9.06818 105.091 9.69769 104.761 10.1536L102.706 12.9894C102.577 13.1673 102.554 13.4015 102.647 13.6011L104.152 16.8488C104.407 17.3972 103.842 17.9654 103.295 17.7124L100.175 16.271C99.9537 16.1687 99.6926 16.2099 99.5133 16.3757L96.9943 18.7044C96.5499 19.1151 95.8355 18.7474 95.9086 18.1455L96.3392 14.5975C96.3658 14.379 96.2721 14.1632 96.0946 14.0337L93.2794 11.9796C92.8194 11.644 92.9931 10.9185 93.5546 10.8298L96.557 10.3555C96.7979 10.3175 96.9922 10.1378 97.0496 9.90009L97.7611 6.95408Z" fill="#DCDCDC"/>
</svg>