<svg xmlns="http://www.w3.org/2000/svg" width="35" height="35" viewBox="0 0 35 35" fill="none">
  <mask id="mask0_0_290" style="mask-type:luminance" maskUnits="userSpaceOnUse" x="0" y="0" width="35" height="35">
    <path d="M0.579102 17.168C0.579102 7.77915 8.19027 0.167969 17.5791 0.167969C26.968 0.167969 34.5791 7.77915 34.5791 17.168C34.5791 26.5569 26.968 34.168 17.5791 34.168C8.19027 34.168 0.579102 26.5569 0.579102 17.168Z" fill="white"/>
  </mask>
  <g mask="url(#mask0_0_290)">
    <path d="M0.579102 17.168C0.579102 7.77916 8.19027 0.167984 17.5791 0.167984C26.968 0.167984 34.5791 7.77916 34.5791 17.168C34.5791 26.5569 26.968 34.168 17.5791 34.168C8.19027 34.168 0.579102 26.5569 0.579102 17.168Z" fill="#75D3FB"/>
    <path d="M12.7348 16.4765C12.4357 20.5206 15.4734 21.6986 17.1765 21.8371C17.6032 23.0806 18.4127 25.7282 18.2485 26.3809C18.0844 27.0337 14.5034 29.0029 12.7348 29.9036C13.0411 30.345 14.7478 31.5264 19.1164 32.7116C27.9998 34.3963 31.1141 27.4822 31.1141 27.1468C22.7996 23.2666 23.7113 19.1313 23.7113 18.8249C23.8682 18.8249 25.7681 17.5923 26.129 16.2431C26.4902 14.8938 26.5631 13.5518 26.5631 13.5518C26.5631 13.5518 26.3296 11.5535 25.8556 10.4011C25.2028 8.80749 21.6182 7.04614 19.6271 7.03154C15.5063 7.00602 12.9755 13.2127 12.7348 16.4765Z" fill="#FF6B6B"/>
    <path d="M24.6485 16.5023C24.1527 16.0136 23.2482 16.3892 22.858 16.6335C24.0796 16.5351 24.4955 16.6846 24.7835 17.2754C24.8455 17.1514 24.9038 16.8232 24.6485 16.5023Z" fill="#E34545"/>
    <path d="M22.9528 19.1533C22.4969 19.2298 22.2381 18.6755 22.1614 18.3875C22.5443 18.8799 22.971 19.0257 23.3759 18.8105C23.3502 18.9016 23.2189 19.0767 22.9528 19.1533Z" fill="#E34545"/>
    <path d="M22.5698 19.7659C20.1958 21.1297 17.9968 21.7241 17.1946 21.848L18.0406 24.7508L22.5698 19.7659Z" fill="#E34545"/>
    <path d="M15.7104 16.276C15.7104 16.276 14.693 15.4336 14.879 14.8975C14.9957 14.5547 16.9138 13.2784 16.9138 13.2784" stroke="black" stroke-width="0.6" stroke-linecap="round"/>
    <path d="M18.8832 14.3292C19.0372 14.0577 19.03 13.7626 18.8671 13.6702C18.7042 13.5777 18.4473 13.7229 18.2933 13.9944C18.1391 14.266 18.1462 14.561 18.3092 14.6535C18.4721 14.7459 18.7292 14.6007 18.8832 14.3292Z" fill="black"/>
    <path d="M15.0988 12.9634C15.1677 12.661 15.0755 12.3821 14.8929 12.3405C14.7103 12.2989 14.5064 12.5103 14.4375 12.8127C14.3686 13.1151 14.4608 13.394 14.6434 13.4356C14.8261 13.4772 15.0299 13.2658 15.0988 12.9634Z" fill="black"/>
    <path d="M17.6066 21.797C18.5912 21.56 20.8412 20.8817 21.9608 20.0539" stroke="black" stroke-width="0.6" stroke-linecap="round"/>
    <path d="M21.1294 15.5029C20.4766 16.9434 19.0616 17.6654 17.9896 17.1804C16.9174 16.6954 16.5309 15.1528 17.1836 13.7124C17.8364 12.2719 19.2512 11.5499 20.3235 12.0349C21.3955 12.5236 21.7857 14.0625 21.1294 15.5029Z" stroke="black" stroke-width="0.6"/>
    <path d="M15.9 13.1364C15.2619 14.5841 13.8543 15.3244 12.7785 14.8503C11.7027 14.3762 11.2979 12.841 11.9361 11.3932C12.5743 9.94549 13.9819 9.20521 15.0577 9.67928C16.1334 10.1497 16.5382 11.685 15.9 13.1364Z" stroke="black" stroke-width="0.6"/>
    <path d="M16.1042 12.7349L17.3112 13.3548" stroke="black" stroke-width="0.6" stroke-linecap="round"/>
    <path d="M15.9585 8.88051C15.8929 8.82581 12.4431 -0.305532 17.2276 1.17503C18.4164 1.54334 19.7255 3.15154 19.7255 3.15154C19.7255 3.15154 20.4294 0.197713 22.3548 2.4149C23.1023 3.27552 22.88 5.29214 22.88 5.29214C22.88 5.29214 25.1737 4.32942 25.7462 5.29214C26.1437 5.96315 25.531 7.28325 25.531 7.28325C26.8841 8.63253 28.0109 10.4559 28.0109 12.6512C28.0109 16.2578 23.9411 18.8542 23.5692 18.9635C23.5655 18.7594 25.1591 18.1759 25.3597 16.8048C25.5565 15.4555 23.766 15.1893 23.2009 15.43C23.1862 15.4409 23.179 15.4482 23.1754 15.4409C23.1826 15.4373 23.1936 15.4336 23.2009 15.43C23.4306 15.2185 24.8821 12.7278 24.8821 12.6475C24.9038 12.6475 23.5692 12.3193 23.5692 12.3193C23.5692 12.3193 23.7296 11.1451 22.88 10.3757C22.0303 9.60619 20.2105 10.3757 20.2105 10.3757C20.2105 10.3757 20.0173 8.97896 19.3865 8.47207C18.3871 7.6698 16.0242 8.9352 15.9585 8.88051Z" fill="black"/>
    <path d="M21.3591 14.7955L23.9591 15.2002" stroke="black" stroke-width="0.6" stroke-linecap="round"/>
    <path d="M34.951 7.14822L41.6499 0.868607C46.5802 7.19563 52.8381 18.008 50.5552 24.1857C49.2972 27.5952 44.7096 31.0559 40.6982 34.0828C37.4381 36.5443 34.5534 38.7213 34.1487 40.3478C33.423 43.2542 37.0078 53.804 38.7545 58.6798H5.0663L5.87223 55.7551L-2.29639 50.6096C-4.88554 48.593 -8.73281 43.2068 -3.40497 37.7988C1.92285 32.3907 13.2714 27.3436 18.2819 25.4947L21.8119 28.5216L27.2966 24.904C29.2694 25.8704 33.9154 26.844 38.7581 24.1819C43.601 21.5199 42.5325 17.7274 41.6537 14.9011C40.7711 12.0858 34.951 7.14822 34.951 7.14822ZM8.17695 47.4551L10.0805 39.7899C8.03837 39.8481 3.70608 40.3076 2.72512 41.6715C1.74416 43.0391 2.809 44.3884 3.66597 44.9353L8.17695 47.4551Z" fill="#00C471"/>
    <path d="M15.4704 32.2448L12.7682 27.7814L11.4262 28.4013C12.4692 29.5391 14.5879 31.8693 14.5879 31.9969C14.5879 32.1245 12.6406 33.4665 11.6669 34.1266L15.7439 44.1806L13.1183 33.7875L15.4704 32.2448Z" fill="#07A358"/>
    <path d="M28.7076 30.3705L31.4098 25.907H32.8575C31.8146 27.0448 29.5902 29.995 29.5902 30.1225C29.5902 30.2502 31.5375 31.5959 32.5111 32.2522L28.7222 42.3718L31.0634 31.913L28.7076 30.3705Z" fill="#07A358"/>
    <path d="M30.8121 58.6871L25.0065 26.4064L21.7974 28.5326L19.489 26.5341L13.8038 58.6871H30.8121Z" fill="white"/>
    <path d="M21.2028 30.2173V29.054C21.2028 29.0138 21.2357 28.981 21.2759 28.981H22.1109C22.1511 28.981 22.1838 29.0138 22.1838 29.054V30.2173C22.1838 30.2573 22.1511 30.2902 22.1109 30.2902H21.2759C21.2357 30.2902 21.2028 30.2573 21.2028 30.2173Z" stroke="black" stroke-width="0.6"/>
    <path d="M26.7312 27.0082L22.1838 29.0831V30.2173L26.5781 31.6286L26.7312 27.0082Z" stroke="black" stroke-width="0.6"/>
    <path d="M16.6556 27.0082L21.203 29.0831V30.2173L16.8088 31.6286L16.6556 27.0082Z" stroke="black" stroke-width="0.6"/>
    <path d="M21.1301 29.4297L18.1142 28.6712" stroke="black" stroke-width="0.6" stroke-linecap="round"/>
    <path d="M21.1556 29.7763L18.8107 30.1665" stroke="black" stroke-width="0.6" stroke-linecap="round"/>
    <path d="M22.2314 29.4295L24.4705 28.6019" stroke="black" stroke-width="0.6" stroke-linecap="round"/>
    <path d="M22.3079 29.9219L25.5025 30.4908" stroke="black" stroke-width="0.6" stroke-linecap="round"/>
    <path d="M31.5742 25.5167L28.8755 30.2976L31.2678 31.7598L28.8755 41.4236" stroke="black" stroke-width="0.6" stroke-linecap="round"/>
    <path d="M12.0422 26.64L15.5102 32.2632L13.118 33.7292L15.5102 43.393" stroke="black" stroke-width="0.6" stroke-linecap="round"/>
    <path d="M17.9576 25.2468L21.8194 28.5581L26.5637 25.4035" stroke="black" stroke-width="0.6" stroke-linecap="round"/>
    <path d="M11.2147 28.4999C11.5356 29.149 11.2621 29.9294 10.613 30.2503C9.96387 30.5712 9.17618 30.3049 8.85162 29.6558C8.85162 29.6558 9.36945 29.3932 10.0186 29.0723C10.6677 28.7479 11.2147 28.4999 11.2147 28.4999Z" fill="#2039D2"/>
  </g>
</svg>