<svg width="108" height="20" viewBox="0 0 108 20" fill="none" xmlns="http://www.w3.org/2000/svg">
<rect width="20" height="20" rx="5" fill="#FFF8BF"/>
<path fill-rule="evenodd" clip-rule="evenodd" d="M9.39912 4.3985C9.61982 3.86717 10.3701 3.86717 10.5908 4.3985L11.7532 7.19742C11.847 7.42328 12.067 7.57041 12.3109 7.57041H15.3678C15.9299 7.57041 16.2114 8.25219 15.8139 8.65092L13.3415 11.1313C13.1864 11.287 13.1276 11.5148 13.1878 11.7264L14.1683 15.1692C14.3339 15.7506 13.6878 16.2238 13.1863 15.8884L10.3301 13.978C10.1271 13.8423 9.86275 13.8423 9.65982 13.9781L6.80832 15.8852C6.30529 16.2216 5.65705 15.7469 5.82314 15.1638L6.80207 11.7264C6.86234 11.5148 6.8035 11.287 6.64836 11.1313L4.18816 8.66318C3.78621 8.25992 4.07089 7.57041 4.63934 7.57041H7.679C7.9229 7.57041 8.14288 7.42328 8.23668 7.19742L9.39912 4.3985Z" fill="#FCD700"/>
<rect x="22" width="20" height="20" rx="5" fill="#FFF8BF"/>
<path fill-rule="evenodd" clip-rule="evenodd" d="M31.3991 4.3985C31.6198 3.86717 32.3701 3.86717 32.5908 4.3985L33.7532 7.19742C33.847 7.42328 34.067 7.57041 34.3109 7.57041H37.3678C37.9299 7.57041 38.2114 8.25219 37.8139 8.65092L35.3415 11.1313C35.1864 11.287 35.1276 11.5148 35.1878 11.7264L36.1683 15.1692C36.3339 15.7506 35.6878 16.2238 35.1863 15.8884L32.3301 13.978C32.1271 13.8423 31.8628 13.8423 31.6598 13.9781L28.8083 15.8852C28.3053 16.2216 27.6571 15.7469 27.8231 15.1638L28.8021 11.7264C28.8623 11.5148 28.8035 11.287 28.6484 11.1313L26.1882 8.66318C25.7862 8.25992 26.0709 7.57041 26.6393 7.57041H29.679C29.9229 7.57041 30.1429 7.42328 30.2367 7.19742L31.3991 4.3985Z" fill="#FCD700"/>
<rect x="44" width="20" height="20" rx="5" fill="#FFF8BF"/>
<path fill-rule="evenodd" clip-rule="evenodd" d="M53.3991 4.3985C53.6198 3.86717 54.3701 3.86717 54.5908 4.3985L55.7532 7.19742C55.847 7.42328 56.067 7.57041 56.3109 7.57041H59.3678C59.9299 7.57041 60.2114 8.25219 59.8139 8.65092L57.3415 11.1313C57.1864 11.287 57.1276 11.5148 57.1878 11.7264L58.1683 15.1692C58.3339 15.7506 57.6878 16.2238 57.1863 15.8884L54.3301 13.978C54.1271 13.8423 53.8628 13.8423 53.6598 13.9781L50.8083 15.8852C50.3053 16.2216 49.6571 15.7469 49.8231 15.1638L50.8021 11.7264C50.8623 11.5148 50.8035 11.287 50.6484 11.1313L48.1882 8.66318C47.7862 8.25992 48.0709 7.57041 48.6393 7.57041H51.679C51.9229 7.57041 52.1429 7.42328 52.2367 7.19742L53.3991 4.3985Z" fill="#FCD700"/>
<rect x="66" width="20" height="20" rx="5" fill="#F2F2F2"/>
<path fill-rule="evenodd" clip-rule="evenodd" d="M75.3991 4.3985C75.6198 3.86717 76.3701 3.86717 76.5908 4.3985L77.7532 7.19742C77.847 7.42328 78.067 7.57041 78.3109 7.57041H81.3678C81.9299 7.57041 82.2114 8.25219 81.8139 8.65092L79.3415 11.1313C79.1864 11.287 79.1276 11.5148 79.1878 11.7264L80.1683 15.1692C80.3339 15.7506 79.6878 16.2238 79.1863 15.8884L76.3301 13.978C76.1271 13.8423 75.8628 13.8423 75.6598 13.9781L72.8083 15.8852C72.3053 16.2216 71.6571 15.7469 71.8231 15.1638L72.8021 11.7264C72.8623 11.5148 72.8035 11.287 72.6484 11.1313L70.1882 8.66318C69.7862 8.25992 70.0709 7.57041 70.6393 7.57041H73.679C73.9229 7.57041 74.1429 7.42328 74.2367 7.19742L75.3991 4.3985Z" fill="#DCDCDC"/>
<rect x="88" width="20" height="20" rx="5" fill="#F2F2F2"/>
<path fill-rule="evenodd" clip-rule="evenodd" d="M97.3991 4.3985C97.6198 3.86717 98.3701 3.86717 98.5908 4.3985L99.7532 7.19742C99.847 7.42328 100.067 7.57041 100.311 7.57041H103.368C103.93 7.57041 104.211 8.25219 103.814 8.65092L101.342 11.1313C101.186 11.287 101.128 11.5148 101.188 11.7264L102.168 15.1692C102.334 15.7506 101.688 16.2238 101.186 15.8884L98.3301 13.978C98.1271 13.8423 97.8628 13.8423 97.6598 13.9781L94.8083 15.8852C94.3053 16.2216 93.6571 15.7469 93.8231 15.1638L94.8021 11.7264C94.8623 11.5148 94.8035 11.287 94.6484 11.1313L92.1882 8.66318C91.7862 8.25992 92.0709 7.57041 92.6393 7.57041H95.679C95.9229 7.57041 96.1429 7.42328 96.2367 7.19742L97.3991 4.3985Z" fill="#DCDCDC"/>
</svg>
