<svg xmlns="http://www.w3.org/2000/svg" width="36" height="37" viewBox="0 0 36 37" fill="none">
  <mask id="mask0_0_343" style="mask-type:luminance" maskUnits="userSpaceOnUse" x="0" y="1" width="35" height="35">
    <path d="M34.7703 19.1154C35.1285 9.73336 27.8133 1.83736 18.4313 1.47915C9.04928 1.12095 1.15328 8.43618 0.795077 17.8182C0.436871 27.2002 7.75211 35.0962 17.1341 35.4544C26.5161 35.8126 34.4121 28.4974 34.7703 19.1154Z" fill="white"/>
  </mask>
  <g mask="url(#mask0_0_343)">
    <path d="M34.7703 19.1154C35.1285 9.73336 27.8133 1.83736 18.4313 1.47915C9.04928 1.12095 1.15328 8.43618 0.795077 17.8182C0.436871 27.2002 7.75211 35.0962 17.1341 35.4544C26.5161 35.8126 34.4121 28.4974 34.7703 19.1154Z" fill="#98C1FF"/>
    <path d="M55.8612 21.4135L54.0259 42.6955C53.6406 46.4304 50.0898 49.0618 46.3138 48.4074L44.923 48.0865L44.03 47.8803L38.8347 46.6829L37.9417 46.4765L34.9304 45.779C34.9304 45.779 36.4796 50.4109 37.7767 53.3879C35.018 53.8375 32.0781 55.5489 28.9252 57.0025C28.8671 57.0291 28.8125 57.0551 28.7543 57.0818C28.6997 57.1076 28.648 57.1293 28.5934 57.1553C28.5317 57.1827 28.4699 57.21 28.4082 57.2374C28.3056 57.2844 28.2058 57.3268 28.103 57.3738C28.0277 57.4077 27.9486 57.4422 27.869 57.4734C27.7591 57.5218 27.6484 57.5666 27.5385 57.6149C24.5978 58.8483 21.4784 59.6846 18.1504 58.9639C10.6556 57.3417 6.41197 59.7552 6.41197 59.7552L4.35536 60.8363C-0.882339 63.59 -7.39316 61.2287 -9.53645 55.8033L-12.9916 48.6505L-13.0805 48.4629L-13.5801 47.4254L-13.622 47.3348L-16.5996 41.1686L-11.3845 37.8346L-10.274 37.1246L-10.145 37.0429L-3.26113 46.2492L-2.61083 39.8338C-2.00216 33.8388 2.57758 28.9547 8.62533 27.8475L26.516 24.5741C30.467 23.8501 34.5311 24.9748 37.5139 27.6129L41.5446 31.1827L42.3229 31.8723L44.5323 33.8271L47.9107 20.5949L50.399 20.8484L51.3206 20.9421L55.8612 21.4135Z" fill="#EDE3EB"/>
    <path d="M3.7611 28.6915L3.12748 31.8525L2.94742 32.7484L1.90418 37.9499L1.72412 38.846L0.680877 44.0475L0.500821 44.9434L-0.542416 50.1449L-0.722473 51.0408L-1.76571 56.2423L-1.94577 57.1383L-2.83791 61.5898C-3.12319 61.5068 -3.40136 61.4071 -3.67847 61.2958L-2.80687 56.9469L-2.62681 56.051L-1.58358 50.8495L-1.40352 49.9536L-0.360282 44.7521L-0.180219 43.856L0.863021 38.6545L1.04308 37.7586L2.08631 32.5571L2.26637 31.6612L2.72258 29.3917C3.05285 29.1407 3.40157 28.9079 3.7611 28.6915Z" fill="#C9CEEF"/>
    <path d="M9.71246 26.9745L10.6497 26.7756L10.5507 27.2726L10.3706 28.1685L9.3275 33.3693L9.14745 34.265L8.10431 39.4659L7.92426 40.3616L6.88111 45.5624L6.70107 46.4583L5.65791 51.6589L5.47787 52.5548L4.43473 57.7555L4.25468 58.6514L3.69217 61.4493C3.37313 61.5885 3.04932 61.7063 2.72075 61.8029L3.39329 58.4601L3.57332 57.5643L4.61649 52.3635L4.79653 51.4676L5.83966 46.267L6.01972 45.3711L7.06286 40.1704L7.24292 39.2746L8.28606 34.0737L8.4661 33.178L9.50924 27.9772L9.68929 27.0815L9.71246 26.9745Z" fill="#C9CEEF"/>
    <path d="M16.5044 25.8424L17.4451 25.6428L16.8126 28.7918L16.6325 29.6876L15.5894 34.8881L15.4093 35.784L14.3662 40.9845L14.1862 41.8804L13.143 47.0809L12.963 47.9767L11.9199 53.1772L11.7398 54.0731L10.7938 58.7846C10.4599 58.841 10.1464 58.9075 9.85497 58.9763L10.8784 53.8818L11.0584 52.9861L12.1015 47.7854L12.2816 46.8897L13.3247 41.6891L13.5047 40.7933L14.5479 35.5927L14.7279 34.697L15.7711 29.4963L15.9511 28.6006L16.5044 25.8424Z" fill="#C9CEEF"/>
    <path d="M24.1675 24.5043L24.0462 25.112L23.0029 30.3133L22.8227 31.2094L21.7796 36.4107L21.5995 37.3066L20.5564 42.5079L20.3763 43.404L19.333 48.6053L19.153 49.5012L18.1097 54.7025L17.9298 55.5986L17.2466 59.008C16.9479 58.9622 16.6542 58.9225 16.3697 58.892L17.0686 55.4073L17.2485 54.5112L18.2918 49.3099L18.4719 48.414L19.5151 43.2127L19.6952 42.3166L20.7385 37.1153L20.9184 36.2194L21.9617 31.0181L22.1417 30.122L23.185 24.9207L23.2271 24.7039L24.1675 24.5043Z" fill="#C9CEEF"/>
    <path d="M29.8008 24.1525C30.0957 24.1805 30.3859 24.2211 30.6752 24.2731L30.3822 25.7332L30.2021 26.6291L29.1588 31.8308L28.9789 32.7267L27.9356 37.9282L27.7554 38.8242L26.7123 44.0258L26.5322 44.9218L25.4889 50.1233L25.3089 51.0192L24.2656 56.2209L24.0855 57.1168L23.6191 59.4376C23.3126 59.5025 23.0002 59.5575 22.6889 59.601L23.2254 56.9291L23.4053 56.033L24.4486 50.8315L24.6286 49.9355L25.6719 44.734L25.852 43.8381L26.8951 38.6364L27.0753 37.7405L28.1186 32.539L28.2985 31.643L29.3418 26.4414L29.5219 25.5454L29.8008 24.1525Z" fill="#C9CEEF"/>
    <path d="M36.5787 27.0594L36.5404 27.2452L36.3604 28.1412L35.3171 33.3431L35.1363 34.2357L34.093 39.4375L33.9128 40.3336L32.8695 45.5354L32.6896 46.4315L31.6463 51.6333L31.4661 52.5294L30.5836 56.9262C30.252 57.1061 29.9162 57.2832 29.5795 57.4567L30.6018 52.3388L30.7818 51.4428L31.8251 46.2409L32.0052 45.3449L33.0485 40.143L33.2287 39.247L34.2718 34.0451L34.4519 33.149L35.4952 27.9472L35.6754 27.0511L35.7919 26.4709C36.0635 26.6549 36.3237 26.8527 36.5787 27.0594Z" fill="#C9CEEF"/>
    <path d="M53.9001 43.5001C53.8226 43.7948 53.7267 44.0751 53.6106 44.3487L52.3239 44.0699L51.428 43.8762L46.227 42.7538L45.3311 42.5601L40.1302 41.4379L39.2343 41.2443L34.0334 40.1219L33.1376 39.9282L27.9365 38.806L27.0408 38.6122L21.8397 37.4899L20.9439 37.2963L15.7429 36.1739L14.8471 35.9802L9.64612 34.858L8.75026 34.6643L3.5493 33.542L2.65344 33.3483L0.502677 32.8836C0.718157 32.6181 0.939646 32.3623 1.1751 32.1181L2.84475 32.4802L3.7406 32.6739L8.94156 33.7963L9.83743 33.99L15.0384 35.1122L15.9342 35.3058L21.1353 36.4282L22.031 36.6219L27.232 37.7441L28.1279 37.9379L33.3288 39.0602L34.2247 39.2538L39.4257 40.3762L40.3214 40.5699L45.5225 41.6921L46.4184 41.8858L51.6193 43.0081L52.5151 43.2018L53.9001 43.5001Z" fill="#C9CEEF"/>
    <path d="M54.6428 37.3482L54.5819 38.2468L53.8362 38.0868L52.9401 37.8928L47.7376 36.7691L46.8414 36.5753L41.639 35.4516L40.7428 35.2576L35.5395 34.1305L34.6433 33.9365L29.4409 32.8128L28.5447 32.619L23.3422 31.4953L22.4461 31.3013L17.2436 30.1777L16.3475 29.9838L11.1449 28.8602L10.2488 28.6662L8.00632 28.1801C8.26823 28.1134 8.53257 28.0574 8.79772 28.0047L10.1946 27.741L10.4388 27.7916L11.3349 27.9854L16.5374 29.1091L17.4336 29.3031L22.6361 30.4267L23.5323 30.6206L28.7347 31.7442L29.6309 31.9382L34.8334 33.0619L35.7294 33.2557L40.932 34.3794L41.828 34.5734L47.0306 35.697L47.9268 35.8909L53.1292 37.0145L54.0254 37.2085L54.6428 37.3482Z" fill="#C9CEEF"/>
    <path d="M39.0246 28.4132L37.0547 27.9864L36.1587 27.7925L30.9565 26.6691L30.0604 26.4752L24.8584 25.3519L23.9623 25.1581L23.4651 25.0514L24.0068 24.9473L24.9869 24.761L25.7116 24.6217L30.2512 25.6039L31.1473 25.7977L36.3493 26.9212L37.2454 27.115L37.6046 27.1925C37.6693 27.2446 37.7303 27.2974 37.7956 27.353L39.0246 28.4132Z" fill="#C9CEEF"/>
    <path d="M16.6342 29.1047C16.6342 29.1047 16.7831 44.83 21.613 59.5827" stroke="#1A1B16" stroke-width="0.7" stroke-miterlimit="10" stroke-linecap="round" stroke-linejoin="round"/>
    <path d="M12.7058 14.583L13.1499 11.5889C13.3648 10.3976 14.332 9.455 15.5043 9.12536L21.765 9.02619C23.0576 9.28088 24.6642 10.4111 24.5462 12.9366L24.2086 17.6752L17.8643 18.2799L12.7058 14.583Z" fill="#FACC73"/>
    <path d="M15.9722 12.7104C16.4832 12.7756 18.8718 12.8684 19.3879 12.8744C19.6406 12.8785 19.8997 12.9104 20.1491 12.8679C20.3988 12.8255 20.6533 12.6911 20.743 12.4612C20.8376 12.2192 20.7153 11.9328 20.5141 11.7613C20.313 11.5899 20.0455 11.5053 19.7844 11.4485C19.218 11.3224 18.637 11.2794 18.0595 11.301C17.5454 11.3201 14.9143 11.1047 14.4541 11.3412C13.3542 11.8998 15.5622 12.6599 15.9722 12.7104Z" fill="#F9BD64"/>
    <path d="M24.5163 13.7646L24.2664 17.3643C24.1018 17.145 23.9373 16.9257 23.7762 16.7055C23.5755 16.4385 23.366 16.1475 23.342 15.8082C23.3216 15.5356 23.4209 15.2456 23.3178 14.9928C23.2171 14.7506 22.9676 14.6229 22.7596 14.4702C22.425 14.2204 21.8823 13.6041 22.2657 13.171C22.6088 12.7852 23.4384 13.2389 23.8262 13.3673C24.0255 13.4321 24.2307 13.5067 24.3945 13.64C24.44 13.6816 24.4812 13.7205 24.5163 13.7646Z" fill="#F9BD64"/>
    <path d="M24.2992 18.4419C24.081 19.0297 23.628 19.4553 23.1182 19.6281L22.4682 28.4086L12.6655 27.9605C12.6655 27.9605 13.3959 24.2258 13.4602 22.9769C11.5768 21.9187 12.1496 16.7814 12.6354 13.8975C12.6884 13.584 12.7394 13.2969 12.7874 13.0478C12.7874 13.0478 16.4039 15.1743 20.8837 12.5189C21.2976 12.6502 21.2593 12.6622 21.5928 12.7995C21.5512 13.0958 21.5006 13.5095 21.4586 13.9812C21.3757 14.9467 21.3365 16.1564 21.5234 17.0976C21.5755 17.3625 21.9407 17.4035 22.0478 17.1529C22.1478 16.9225 22.2579 16.6862 22.422 16.4943C22.8217 16.0279 23.5394 16.0306 23.9604 16.4775C24.4137 16.9548 24.5708 17.7195 24.2992 18.4419Z" fill="#F8934F"/>
    <path d="M14.7417 23.4518L13.3455 23.5314L13.4123 22.9672C13.4123 22.9672 13.4046 22.9651 13.3884 22.9573C13.3911 22.9341 13.3911 22.9154 13.3938 22.8922C11.5442 21.8159 12.1387 16.6272 12.6342 13.7152C12.6883 13.3985 12.7572 13.1201 12.8052 12.865C12.8052 12.865 12.8193 12.8808 13.0712 13.0071L12.6419 17.1887C12.5327 18.018 12.4731 20.2899 12.7667 21.066C13.2458 22.333 14.1193 23.0818 14.7417 23.4518Z" fill="#F9AF79"/>
    <path d="M23.0958 19.749L22.569 26.8542C21.6966 27.3698 20.7892 27.8259 19.8014 28.0043C19.49 28.0601 19.141 28.0789 18.8887 27.8867C18.6545 27.7094 18.567 27.3814 18.6166 27.0871C18.6626 26.7936 18.8273 26.5345 19.0087 26.3014C19.2619 25.9859 19.5638 25.7085 19.9028 25.4827C20.1864 25.295 20.5053 25.1331 20.6897 24.8437C20.9658 24.4076 20.8399 23.8263 21.0199 23.3399C21.2832 22.6305 22.1597 22.2409 22.2885 21.4931C22.424 20.7065 21.7602 19.67 23.0251 19.7306C23.0494 19.7403 23.073 19.7465 23.0958 19.749Z" fill="#F77C2D"/>
    <path d="M22.3017 18.3847C22.3017 18.3847 22.8781 18.7554 23.2556 18.3011C23.6333 17.8467 23.3187 17.3393 23.3187 17.3393C23.1449 17.4229 22.9778 17.5198 22.8236 17.6396C22.5783 17.8316 22.3776 18.0873 22.3017 18.3847Z" fill="#F77C2D"/>
    <path d="M23.3258 17.3451C23.3258 17.3451 23.6411 17.8513 23.2616 18.3036C22.8821 18.7558 22.304 18.3855 22.304 18.3855C22.3804 18.0892 22.5857 17.8339 22.8321 17.6428C23.0785 17.4518 23.365 17.3216 23.6497 17.1991" stroke="#BF3028" stroke-width="0.4" stroke-miterlimit="10" stroke-linecap="round" stroke-linejoin="round"/>
    <path d="M13.3421 22.9574C13.3421 22.9574 14.4929 23.7504 16.4004 23.7135C18.5783 23.6733 19.6814 22.6856 19.6814 22.6856C19.6814 22.6856 18.0808 24.927 13.109 24.6045C13.2568 23.6885 13.3421 22.9574 13.3421 22.9574Z" fill="#BF3028"/>
    <path d="M22.4686 19.7943C22.4686 19.7943 22.8486 19.8843 23.2147 19.7248" stroke="#BF3028" stroke-width="0.4" stroke-miterlimit="10" stroke-linecap="round" stroke-linejoin="round"/>
    <path d="M15.2775 17.4732C15.3678 17.1212 16.6256 17.5127 16.249 18.0115C16.0725 18.2472 15.1535 17.9544 15.2775 17.4732Z" fill="#F77C2D"/>
    <path d="M17.3262 16.6503C17.3262 16.814 17.3792 16.9353 17.5043 16.9354C17.6258 16.9363 17.7277 16.8005 17.7277 16.6368C17.7277 16.4731 17.6307 16.3362 17.5064 16.3397C17.3841 16.3352 17.3254 16.4831 17.3262 16.6503Z" fill="#1A1B16"/>
    <path d="M13.9321 16.1805C13.9314 16.3407 13.9863 16.4541 14.1044 16.4559C14.2217 16.4541 14.3181 16.327 14.3189 16.1669C14.3197 16.0067 14.2251 15.8803 14.107 15.8786C13.9897 15.8804 13.9329 16.0204 13.9321 16.1805Z" fill="#1A1B16"/>
    <path d="M18.9943 15.2074C18.4552 14.9567 17.8589 14.8582 17.2765 14.9267" stroke="#1A1B16" stroke-width="0.6" stroke-miterlimit="10" stroke-linecap="round" stroke-linejoin="round"/>
    <path d="M14.8662 14.6389C14.4242 14.4982 13.9557 14.4519 13.4969 14.511" stroke="#1A1B16" stroke-width="0.6" stroke-miterlimit="10" stroke-linecap="round" stroke-linejoin="round"/>
    <path d="M16.0672 18.0626L15.7067 17.9759C15.4377 17.9125 15.2639 17.634 15.3159 17.3502L15.6478 15.5182" stroke="#BF3028" stroke-width="0.4" stroke-miterlimit="10" stroke-linecap="round" stroke-linejoin="round"/>
    <path d="M15.5145 19.1116C15.9445 19.2177 16.583 19.1373 17.2736 18.5647" stroke="#BF3028" stroke-width="0.4" stroke-miterlimit="10" stroke-linecap="round" stroke-linejoin="round"/>
    <path d="M16.7691 19.948C16.9846 19.8651 17.1259 19.7165 17.0848 19.6163C17.0437 19.5161 16.8356 19.5022 16.6201 19.585C16.4046 19.6681 16.2633 19.8165 16.3044 19.9167C16.3456 20.0169 16.5536 20.0311 16.7691 19.948Z" fill="#F77C2D"/>
    <path d="M23.0982 24.1281L16.7324 27.6477L10.4442 24.263C9.33114 26.9226 9.29837 29.8587 10.3513 32.4998L16.7171 28.9803L23.0053 32.365C24.1218 29.7047 24.1546 26.7685 23.0982 24.1281Z" fill="#0064C8"/>
    <path d="M12.6246 27.2078L15.6751 27.9954" stroke="#173F80" stroke-width="0.7" stroke-miterlimit="10" stroke-linecap="round" stroke-linejoin="round"/>
    <path d="M13.2143 28.5901L14.9834 28.4155" stroke="#173F80" stroke-width="0.7" stroke-miterlimit="10" stroke-linecap="round" stroke-linejoin="round"/>
    <path d="M17.3101 27.8972L20.2283 26.9653" stroke="#173F80" stroke-width="0.7" stroke-miterlimit="10" stroke-linecap="round" stroke-linejoin="round"/>
    <path d="M17.8206 28.45L18.8065 28.6367" stroke="#173F80" stroke-width="0.7" stroke-miterlimit="10" stroke-linecap="round" stroke-linejoin="round"/>
    <path d="M10.4146 25.5306C10.6 26.1285 10.8938 26.7157 10.8427 27.3434C10.7805 28.0718 10.2603 28.7086 10.2775 29.4407C10.2942 30.1542 10.8165 30.7251 11.0747 31.3813C11.1421 31.5504 11.1898 31.7279 11.2172 31.9102L10.3432 32.442C10.1193 31.8645 9.94558 31.2714 9.8195 30.667C9.36474 28.4867 9.54313 26.194 10.3543 24.0608L10.4393 24.1088C10.4246 24.603 10.2353 24.9613 10.4146 25.5306Z" fill="#0F70D1"/>
    <path d="M23.5824 25.9446C24.056 28.1092 23.8907 30.3892 23.0851 32.5142L21.2658 31.5251C21.2948 31.0971 21.2209 30.6601 21.3095 30.2402C21.5107 29.2787 22.4776 28.6826 22.8212 27.762C23.1333 26.928 22.8789 25.9965 22.8568 25.1035C22.849 24.8535 22.8784 24.5419 22.9536 24.242L23.046 24.1861C23.2726 24.7596 23.4518 25.3482 23.5824 25.9446Z" fill="#0F70D1"/>
    <path d="M24.8925 12.8267L24.7729 12.8098L13.2594 11.2073C13.265 11.1694 13.2706 11.1315 13.277 11.0971C13.3726 10.4857 13.5876 9.92053 13.8882 9.41651C14.5528 8.31725 15.6549 7.52903 16.928 7.24048C17.4887 7.11339 18.0882 7.08372 18.6939 7.16987L20.7173 7.45111C22.7409 7.73233 24.3112 9.20046 24.7838 11.0346C24.935 11.6047 24.9758 12.2108 24.8925 12.8267Z" fill="#0055A8"/>
    <path d="M24.8888 12.8954L24.7687 12.8778C22.1299 11.7236 19.2168 11.2929 17.0965 11.139C15.4664 11.0204 14.0821 11.0494 13.2234 11.0914C13.3169 10.4808 13.5304 9.91712 13.8303 9.41515C14.7013 9.39251 15.8478 9.39735 17.1504 9.48889C18.8485 9.61088 20.4648 9.85343 21.9544 10.2155C22.9515 10.4583 23.8945 10.7534 24.7755 11.0988C24.9267 11.674 24.97 12.2802 24.8888 12.8954Z" fill="#173F80"/>
    <path d="M21.3602 10.4814C21.3677 10.5721 21.3731 10.6853 21.3007 10.7504C21.2107 10.8345 21.0621 10.8142 20.9997 10.9361C20.9542 11.0208 21.0034 11.0868 21.0659 11.1459C21.1186 11.1962 21.1853 11.2433 21.2391 11.2971L20.2929 11.1032C20.1496 11.0743 20.0115 11.0219 19.8884 10.9402C19.8398 10.9073 19.8114 10.866 19.8213 10.8009C19.8607 10.5403 20.4371 10.744 20.4515 10.456C20.4591 10.3212 20.3083 10.1869 20.1384 10.0792C20.1167 10.0659 20.1308 10.033 20.1542 10.0386C20.5035 10.126 20.844 10.1933 21.1838 10.2423C21.2334 10.249 21.2776 10.2792 21.3026 10.3214C21.3345 10.3766 21.3552 10.4309 21.3602 10.4814Z" fill="#0064C8"/>
    <path d="M26.8342 14.5122C26.7607 15.2665 24.4571 15.6118 24.443 15.6148L24.4541 14.3853C23.5681 13.6317 21.3733 12.8549 18.7458 12.4395C16.3359 12.0581 14.1896 12.0756 13.0365 12.423L12.7865 13.8179C12.7741 13.8132 12.4747 13.6756 12.3352 13.6101C11.2068 13.0521 10.5591 12.4603 10.635 11.9406C10.7248 11.2967 11.8932 10.8908 13.6674 10.7734C15.1327 10.6748 17.0094 10.7742 19.0346 11.0951C21.1491 11.4298 23.0407 11.9485 24.4355 12.5265C25.9918 13.1687 26.8947 13.8856 26.8342 14.5122Z" fill="#0F70D1"/>
    <path d="M26.7729 14.7344C26.4747 15.2389 24.9568 15.5596 24.4344 15.6552L24.4487 14.4234C23.5626 13.6651 21.3642 12.8786 18.7311 12.4525C16.316 12.0614 14.1642 12.0708 13.0072 12.4145L12.753 13.8111C12.7406 13.8063 12.4409 13.6673 12.3011 13.6012C11.6407 13.2735 11.1454 12.9329 10.8621 12.6028C11.1243 12.0581 12.2368 11.7164 13.8542 11.6175C15.3234 11.5242 17.2047 11.6308 19.2343 11.9599C21.3533 12.3033 23.2483 12.8301 24.6451 13.4143C25.6589 13.8403 26.3991 14.2946 26.7729 14.7344Z" fill="#0055A8"/>
    <path d="M24.4384 14.5844L24.4341 15.45C24.4341 15.45 24.6236 15.4187 24.7399 15.2436C24.9878 14.8822 24.4384 14.5844 24.4384 14.5844Z" fill="#1A1B16"/>
    <path d="M12.9874 12.2319C12.9874 12.2319 12.655 12.3117 12.4728 12.6844C12.288 13.0614 12.816 13.2225 12.816 13.2225C12.8975 12.717 12.9874 12.2319 12.9874 12.2319Z" fill="#1A1B16"/>
  </g>
</svg>