<svg width="109" height="25" viewBox="0 0 109 25" fill="none" xmlns="http://www.w3.org/2000/svg">
<rect x="0.997681" y="0.313217" width="20" height="20" rx="5" transform="rotate(2.18649 0.997681 0.313217)" fill="#FEF4E1"/>
<path fill-rule="evenodd" clip-rule="evenodd" d="M10.2221 5.06712C10.463 4.54459 11.2127 4.57322 11.4129 5.11258L12.4678 7.95381C12.5528 8.18309 12.767 8.3385 13.0108 8.34781L16.0655 8.46444C16.6272 8.48588 16.8824 9.1779 16.47 9.56118L13.9048 11.9455C13.7438 12.0951 13.6764 12.3205 13.7285 12.5343L14.5769 16.012C14.7202 16.5992 14.0565 17.0474 13.5682 16.6931L10.7869 14.6752C10.5893 14.5318 10.3251 14.5218 10.1172 14.6497L7.19499 16.4467C6.6795 16.7636 6.04984 16.2645 6.23806 15.6881L7.34741 12.2906C7.41572 12.0814 7.36561 11.8516 7.21652 11.6901L4.85228 9.12988C4.466 8.71158 4.77678 8.03344 5.34482 8.05512L8.38227 8.17109C8.62599 8.1804 8.85142 8.04177 8.95377 7.81965L10.2221 5.06712Z" fill="#FF7A00"/>
<rect x="22.9817" y="1.15257" width="20" height="20" rx="5" transform="rotate(2.18649 22.9817 1.15257)" fill="#FEF4E1"/>
<path fill-rule="evenodd" clip-rule="evenodd" d="M32.2062 5.90647C32.447 5.38395 33.1967 5.41257 33.3969 5.95194L34.4518 8.79317C34.5369 9.02245 34.7511 9.17786 34.9948 9.18716L38.0495 9.30379C38.6112 9.32524 38.8665 10.0173 38.4541 10.4005L35.8888 12.7848C35.7278 12.9344 35.6604 13.1598 35.7125 13.3736L36.5609 16.8513C36.7042 17.4385 36.0405 17.8867 35.5522 17.5325L32.771 15.5146C32.5733 15.3712 32.3092 15.3611 32.1012 15.489L29.179 17.286C28.6635 17.603 28.0338 17.1039 28.2221 16.5275L29.3314 13.13C29.3997 12.9208 29.3496 12.6909 29.2005 12.5295L26.8363 9.96924C26.45 9.55093 26.7608 8.87279 27.3288 8.89448L30.3663 9.01045C30.61 9.01975 30.8354 8.88112 30.9378 8.659L32.2062 5.90647Z" fill="#FF7A00"/>
<rect x="44.9656" y="1.99191" width="20" height="20" rx="5" transform="rotate(2.18649 44.9656 1.99191)" fill="#F2F2F2"/>
<path fill-rule="evenodd" clip-rule="evenodd" d="M54.1901 6.74581C54.4309 6.22329 55.1806 6.25191 55.3809 6.79128L56.4357 9.63251C56.5208 9.86179 56.735 10.0172 56.9787 10.0265L60.0334 10.1431C60.5951 10.1646 60.8504 10.8566 60.438 11.2399L57.8728 13.6242C57.7118 13.7738 57.6444 13.9992 57.6965 14.213L58.5449 17.6907C58.6881 18.2779 58.0245 18.7261 57.5362 18.3718L54.7549 16.3539C54.5573 16.2105 54.2931 16.2005 54.0851 16.3284L51.1629 18.1253C50.6475 18.4423 50.0178 17.9432 50.206 17.3668L51.3154 13.9693C51.3837 13.7601 51.3336 13.5303 51.1845 13.3688L48.8202 10.8086C48.434 10.3903 48.7447 9.71213 49.3128 9.73382L52.3502 9.84979C52.5939 9.85909 52.8194 9.72047 52.9217 9.49835L54.1901 6.74581Z" fill="#DCDCDC"/>
<rect x="66.9496" y="2.83127" width="20" height="20" rx="5" transform="rotate(2.18649 66.9496 2.83127)" fill="#F2F2F2"/>
<path fill-rule="evenodd" clip-rule="evenodd" d="M76.1741 7.58517C76.4149 7.06265 77.1646 7.09127 77.3649 7.63063L78.4197 10.4719C78.5048 10.7011 78.719 10.8566 78.9627 10.8659L82.0174 10.9825C82.5791 11.0039 82.8344 11.696 82.422 12.0792L79.8568 14.4635C79.6958 14.6131 79.6284 14.8385 79.6805 15.0523L80.5289 18.53C80.6721 19.1172 80.0085 19.5654 79.5202 19.2112L76.7389 17.1932C76.5413 17.0499 76.2771 17.0398 76.0691 17.1677L73.147 18.9647C72.6315 19.2817 72.0018 18.7826 72.19 18.2062L73.2994 14.8087C73.3677 14.5995 73.3176 14.3696 73.1685 14.2082L70.8042 11.6479C70.418 11.2296 70.7287 10.5515 71.2968 10.5732L74.3342 10.6891C74.578 10.6984 74.8034 10.5598 74.9057 10.3377L76.1741 7.58517Z" fill="#DCDCDC"/>
<rect x="88.9336" y="3.67061" width="20" height="20" rx="5" transform="rotate(2.18649 88.9336 3.67061)" fill="#F2F2F2"/>
<path fill-rule="evenodd" clip-rule="evenodd" d="M98.1581 8.42451C98.3989 7.90199 99.1486 7.93061 99.3488 8.46997L100.404 11.3112C100.489 11.5405 100.703 11.6959 100.947 11.7052L104.001 11.8218C104.563 11.8433 104.818 12.5353 104.406 12.9186L101.841 15.3029C101.68 15.4525 101.612 15.6779 101.664 15.8917L102.513 19.3694C102.656 19.9566 101.992 20.4048 101.504 20.0505L98.7229 18.0326C98.5252 17.8892 98.2611 17.8791 98.0531 18.0071L95.1309 19.804C94.6154 20.121 93.9858 19.6219 94.174 19.0455L95.2833 15.648C95.3516 15.4388 95.3015 15.209 95.1524 15.0475L92.7882 12.4873C92.4019 12.069 92.7127 11.3908 93.2807 11.4125L96.3182 11.5285C96.5619 11.5378 96.7873 11.3992 96.8897 11.177L98.1581 8.42451Z" fill="#DCDCDC"/>
</svg>
