<svg xmlns="http://www.w3.org/2000/svg" width="49" height="44" viewBox="0 0 49 44" fill="none">
  <path d="M48.2263 8.08909C47.7662 7.56454 47.1092 7.27665 46.3807 7.27665H28.5564L28.816 2.75612C28.816 1.23632 27.5797 0 26.0599 0H2.75612C1.23632 0 0 1.23632 0 2.77731L0.883088 40.6839C0.883088 42.2037 2.11941 43.44 3.63921 43.44H5.21905C6.62316 43.44 7.68198 41.8522 7.68198 39.746V36.9369C7.68198 35.8746 8.54652 35.01 9.60888 35.01H10.4284C11.4907 35.01 12.3553 35.8746 12.3553 36.9369V39.7452C12.3553 40.7325 12.7385 41.6597 13.4353 42.3573C14.1329 43.055 15.0602 43.44 16.0466 43.44H35.2449C35.2511 43.44 35.2564 43.4382 35.2626 43.4382H41.9661C43.3923 43.4382 44.6516 42.3308 44.8335 40.917L48.7986 10.0248C48.8904 9.30069 48.6873 8.61364 48.2263 8.08909ZM14.6849 41.1095C14.321 40.7457 14.1215 40.2618 14.1215 39.746V36.9369C14.1215 34.9005 12.4648 33.2439 10.4284 33.2439H9.60888C7.57248 33.2439 5.91581 34.9005 5.91581 36.9369V39.746C5.91581 40.9894 5.39213 41.6738 5.21905 41.6738H3.63921C3.09346 41.6738 2.64926 41.2296 2.64838 40.6627L1.76529 2.75612C1.76529 2.21037 2.20949 1.76618 2.75523 1.76618H26.059C26.6048 1.76618 27.049 2.21037 27.0507 2.7049L26.1659 18.091C26.1659 19.6107 27.4022 20.8471 28.922 20.8471H36.1262C36.6711 20.8471 37.1144 21.2904 37.1153 21.7946L36.2313 40.6839C36.2313 41.227 35.7924 41.6668 35.252 41.6721H30.705C30.7023 41.6721 30.6997 41.6738 30.6961 41.6738H16.0457C15.5318 41.6738 15.0478 41.4734 14.6849 41.1095ZM43.0806 40.6918C43.0143 41.2137 42.4924 41.6712 41.9652 41.6712H37.8138C37.9286 41.3745 37.9984 41.0574 37.9984 40.7245L38.8824 21.8352C38.8824 20.3163 37.6469 19.08 36.128 19.08H28.9238C28.378 19.08 27.9338 18.6358 27.9321 18.1413L28.4557 9.04194H46.3815C46.5953 9.04194 46.7798 9.11789 46.9017 9.25565C47.0227 9.39341 47.0739 9.58593 47.0465 9.79875L43.0806 40.6918Z" fill="#FF7F33"/>
  <path d="M43.0806 40.6918C43.0143 41.2137 42.4924 41.6712 41.9652 41.6712H37.8138C37.9286 41.3745 37.9984 41.0574 37.9984 40.7245L38.8824 21.8352C38.8824 20.3163 37.6469 19.08 36.128 19.08H28.9238C28.378 19.08 27.9338 18.6358 27.9321 18.1413L28.4557 9.04194H46.3815C46.5953 9.04194 46.7798 9.11789 46.9017 9.25565C47.0227 9.39341 47.0739 9.58593 47.0465 9.79875L43.0806 40.6918Z" fill="#000066"/>
  <path d="M14.6849 41.1095C14.321 40.7457 14.1215 40.2618 14.1215 39.746V36.9369C14.1215 34.9005 12.4648 33.2439 10.4284 33.2439H9.60888C7.57248 33.2439 5.91581 34.9005 5.91581 36.9369V39.746C5.91581 40.9894 5.39213 41.6738 5.21905 41.6738H3.63921C3.09346 41.6738 2.64926 41.2296 2.64838 40.6627L1.76529 2.75612C1.76529 2.21037 2.20949 1.76618 2.75523 1.76618H26.059C26.6048 1.76618 27.049 2.21037 27.0507 2.7049L26.1659 18.091C26.1659 19.6107 27.4022 20.8471 28.922 20.8471H36.1262C36.6711 20.8471 37.1144 21.2904 37.1153 21.7946L36.2313 40.6839C36.2313 41.227 35.7924 41.6668 35.252 41.6721H30.705C30.7023 41.6721 30.6997 41.6738 30.6961 41.6738H16.0457C15.5318 41.6738 15.0478 41.4734 14.6849 41.1095Z" fill="#000066"/>
  <path d="M12.182 13.9422H7.73391C6.97357 13.9422 6.35541 14.5604 6.35541 15.3207V20.0028C6.35541 20.7623 6.97357 21.3804 7.73391 21.3804H12.182C12.9424 21.3804 13.5605 20.7623 13.5605 20.0028V15.3207C13.5605 14.5604 12.9424 13.9422 12.182 13.9422ZM12.6774 20.0028C12.6774 20.2757 12.4558 20.4974 12.182 20.4974H7.73391C7.46015 20.4974 7.2385 20.2757 7.2385 20.0028V15.3207C7.2385 15.0469 7.46015 14.8253 7.73391 14.8253H12.182C12.4558 14.8253 12.6774 15.0469 12.6774 15.3207V20.0028Z" fill="#FF7F33"/>
  <path d="M12.6774 20.0028C12.6774 20.2757 12.4558 20.4974 12.182 20.4974H7.73391C7.46015 20.4974 7.2385 20.2757 7.2385 20.0028V15.3207C7.2385 15.0469 7.46015 14.8253 7.73391 14.8253H12.182C12.4558 14.8253 12.6774 15.0469 12.6774 15.3207V20.0028Z" fill="#FFECDB"/>
  <path d="M21.8991 13.9422H17.4501C16.6898 13.9422 16.0716 14.5604 16.0716 15.3207V20.0028C16.0716 20.7623 16.6898 21.3804 17.4501 21.3804H21.8991C22.6586 21.3804 23.2767 20.7623 23.2767 20.0028V15.3207C23.2767 14.5604 22.6586 13.9422 21.8991 13.9422ZM22.3937 20.0028C22.3937 20.2757 22.172 20.4974 21.8991 20.4974H17.4501C17.1764 20.4974 16.9547 20.2757 16.9547 20.0028V15.3207C16.9547 15.0469 17.1764 14.8253 17.4501 14.8253H21.8991C22.172 14.8253 22.3937 15.0469 22.3937 15.3207V20.0028Z" fill="#FF7F33"/>
  <path d="M22.3937 20.0028C22.3937 20.2757 22.172 20.4974 21.8991 20.4974H17.4501C17.1764 20.4974 16.9547 20.2757 16.9547 20.0028V15.3207C16.9547 15.0469 17.1764 14.8253 17.4501 14.8253H21.8991C22.172 14.8253 22.3937 15.0469 22.3937 15.3207V20.0028Z" fill="#FFECDB"/>
  <path d="M35.0113 9.85052H30.5623C29.8028 9.85052 29.1838 10.4687 29.1838 11.2281V15.9103C29.1838 16.6706 29.8019 17.2888 30.5623 17.2888H35.0113C35.7707 17.2888 36.3889 16.6706 36.3889 15.9103V11.2281C36.388 10.4687 35.7707 9.85052 35.0113 9.85052ZM35.5049 15.9103C35.5049 16.184 35.2833 16.4057 35.0104 16.4057H30.5614C30.2876 16.4057 30.066 16.184 30.066 15.9103V11.2281C30.066 10.9553 30.2876 10.7336 30.5614 10.7336H35.0104C35.2833 10.7336 35.5049 10.9553 35.5049 11.2281V15.9103Z" fill="#FF7F33"/>
  <path d="M35.5049 15.9103C35.5049 16.184 35.2833 16.4057 35.0104 16.4057H30.5614C30.2876 16.4057 30.066 16.184 30.066 15.9103V11.2281C30.066 10.9553 30.2876 10.7336 30.5614 10.7336H35.0104C35.2833 10.7336 35.5049 10.9553 35.5049 11.2281V15.9103Z" fill="#FFECDB"/>
  <path d="M44.2636 9.85052H39.8137C39.0542 9.85052 38.4352 10.4687 38.4352 11.2281V15.9103C38.4352 16.6706 39.0534 17.2888 39.8137 17.2888H44.2636C45.023 17.2888 45.6412 16.6706 45.6412 15.9103V11.2281C45.6412 10.4687 45.0239 9.85052 44.2636 9.85052ZM44.7581 15.9103C44.7581 16.184 44.5365 16.4057 44.2636 16.4057H39.8137C39.5399 16.4057 39.3183 16.184 39.3183 15.9103V11.2281C39.3183 10.9553 39.5399 10.7336 39.8137 10.7336H44.2636C44.5365 10.7336 44.7581 10.9553 44.7581 11.2281V15.9103Z" fill="#FF7F33"/>
  <path d="M44.7581 15.9103C44.7581 16.184 44.5365 16.4057 44.2636 16.4057H39.8137C39.5399 16.4057 39.3183 16.184 39.3183 15.9103V11.2281C39.3183 10.9553 39.5399 10.7336 39.8137 10.7336H44.2636C44.5365 10.7336 44.7581 10.9553 44.7581 11.2281V15.9103Z" fill="#FFECDB"/>
  <path d="M12.182 23.2671H7.73391C6.97357 23.2671 6.35541 23.8853 6.35541 24.6456V29.3295C6.35541 30.0889 6.97357 30.708 7.73391 30.708H12.182C12.9424 30.708 13.5605 30.0898 13.5605 29.3295V24.6456C13.5605 23.8853 12.9424 23.2671 12.182 23.2671ZM12.6774 29.3286C12.6774 29.6024 12.4558 29.824 12.182 29.824H7.73391C7.46015 29.824 7.2385 29.6024 7.2385 29.3286V24.6447C7.2385 24.3709 7.46015 24.1493 7.73391 24.1493H12.182C12.4558 24.1493 12.6774 24.3709 12.6774 24.6447V29.3286Z" fill="#FF7F33"/>
  <path d="M12.6774 29.3286C12.6774 29.6024 12.4558 29.824 12.182 29.824H7.73391C7.46015 29.824 7.2385 29.6024 7.2385 29.3286V24.6447C7.2385 24.3709 7.46015 24.1493 7.73391 24.1493H12.182C12.4558 24.1493 12.6774 24.3709 12.6774 24.6447V29.3286Z" fill="#FFECDB"/>
  <path d="M21.8991 23.2671H17.4501C16.6898 23.2671 16.0716 23.8853 16.0716 24.6456V29.3295C16.0716 30.0889 16.6898 30.708 17.4501 30.708H21.8991C22.6586 30.708 23.2767 30.0898 23.2767 29.3295V24.6456C23.2767 23.8853 22.6586 23.2671 21.8991 23.2671ZM22.3937 29.3286C22.3937 29.6024 22.172 29.824 21.8991 29.824H17.4501C17.1764 29.824 16.9547 29.6024 16.9547 29.3286V24.6447C16.9547 24.3709 17.1764 24.1493 17.4501 24.1493H21.8991C22.172 24.1493 22.3937 24.3709 22.3937 24.6447V29.3286Z" fill="#FF7F33"/>
  <path d="M22.3937 29.3286C22.3937 29.6024 22.172 29.824 21.8991 29.824H17.4501C17.1764 29.824 16.9547 29.6024 16.9547 29.3286V24.6447C16.9547 24.3709 17.1764 24.1493 17.4501 24.1493H21.8991C22.172 24.1493 22.3937 24.3709 22.3937 24.6447V29.3286Z" fill="#FFECDB"/>
  <path d="M27.4026 30.7069H31.8499C32.6076 30.7069 33.2266 30.0896 33.2293 29.3284V24.6445C33.2293 23.885 32.6111 23.266 31.8499 23.266H27.4026C26.6423 23.266 26.0233 23.8842 26.0233 24.6445V29.3284C26.0233 30.0887 26.6414 30.7069 27.4026 30.7069ZM26.9063 24.6445C26.9063 24.3707 27.1289 24.1491 27.4026 24.1491H31.8499C32.1236 24.1491 32.3462 24.3707 32.3462 24.6445V29.3266C32.3453 29.6013 32.1227 29.8229 31.8499 29.8229H27.4026C27.1289 29.8229 26.9063 29.6013 26.9063 29.3275V24.6445Z" fill="#FF7F33"/>
  <path d="M26.9063 24.6445C26.9063 24.3707 27.1289 24.1491 27.4026 24.1491H31.8499C32.1236 24.1491 32.3462 24.3707 32.3462 24.6445V29.3266C32.3453 29.6013 32.1227 29.8229 31.8499 29.8229H27.4026C27.1289 29.8229 26.9063 29.6013 26.9063 29.3275V24.6445Z" fill="#FFECDB"/>
  <path d="M31.8499 40.2831C32.6076 40.2831 33.2266 39.6649 33.2293 38.9037V34.2207C33.2293 33.4604 32.6111 32.8413 31.8499 32.8413H27.4026C26.6423 32.8413 26.0233 33.4595 26.0233 34.2207V38.9037C26.0233 39.664 26.6414 40.2831 27.4026 40.2831H31.8499ZM26.9063 38.9046V34.2216C26.9063 33.9478 27.1289 33.7253 27.4026 33.7253H31.8499C32.1236 33.7253 32.3462 33.9478 32.3462 34.2216V38.9028C32.3453 39.1775 32.1227 39.4 31.8499 39.4H27.4026C27.1289 39.4 26.9063 39.1783 26.9063 38.9046Z" fill="#FF7F33"/>
  <path d="M26.9063 38.9046V34.2216C26.9063 33.9478 27.1289 33.7253 27.4026 33.7253H31.8499C32.1236 33.7253 32.3462 33.9478 32.3462 34.2216V38.9028C32.3453 39.1775 32.1227 39.4 31.8499 39.4H27.4026C27.1289 39.4 26.9063 39.1783 26.9063 38.9046Z" fill="#FFECDB"/>
  <path d="M21.8275 33H17.3785C16.6182 33 16 33.6182 16 34.3794V39.0624C16 39.8227 16.6182 40.4418 17.3785 40.4418H21.8275C22.587 40.4418 23.2051 39.8236 23.2051 39.0624V34.3794C23.2051 33.6182 22.587 33 21.8275 33ZM22.322 39.0615C22.322 39.3353 22.1004 39.5578 21.8275 39.5578H17.3785C17.1047 39.5578 16.8831 39.3353 16.8831 39.0615V34.3785C16.8831 34.1047 17.1047 33.8822 17.3785 33.8822H21.8275C22.1004 33.8822 22.322 34.1047 22.322 34.3785V39.0615Z" fill="#FF7F33"/>
  <path d="M22.322 39.0615C22.322 39.3353 22.1004 39.5578 21.8275 39.5578H17.3785C17.1047 39.5578 16.8831 39.3353 16.8831 39.0615V34.3785C16.8831 34.1047 17.1047 33.8822 17.3785 33.8822H21.8275C22.1004 33.8822 22.322 34.1047 22.322 34.3785V39.0615Z" fill="#FFECDB"/>
  <path d="M6.51623 9.73278C6.55243 9.6533 6.55773 9.56941 6.53212 9.47845L6.53919 9.497C6.53565 9.46344 6.53212 9.42458 6.53212 9.38131C6.53212 9.33892 6.53035 9.30007 6.52506 9.26563C6.51711 9.16672 6.51093 9.06693 6.50651 8.96538C6.5021 8.8647 6.49945 8.7605 6.49945 8.65276C6.49945 8.62627 6.49856 8.59625 6.49591 8.56181C6.49503 8.52737 6.49327 8.49116 6.49327 8.4523V8.19444C6.67342 8.17766 6.84032 8.16707 6.98956 8.16265C7.1388 8.15823 7.29423 8.15647 7.45318 8.15647C7.52648 8.15647 7.59624 8.15735 7.66512 8.16C7.734 8.16177 7.80465 8.16265 7.87883 8.16265H8.27181V8.18208C8.27181 8.20239 8.27004 8.22623 8.26827 8.25272C8.26562 8.27833 8.26474 8.30218 8.26474 8.32337C8.27357 8.65895 8.28152 8.94065 8.29388 9.16849C8.3036 9.39721 8.32302 9.57912 8.35128 9.71688C8.37954 9.85465 8.41751 9.95355 8.46785 10.0136C8.51554 10.0737 8.58619 10.1037 8.67714 10.1037C8.68156 10.1037 8.69039 10.1046 8.7054 10.1072C8.7213 10.1081 8.73454 10.1099 8.74867 10.1099C8.79459 10.1187 8.8414 10.1205 8.88643 10.1169C8.93147 10.1116 8.96238 10.0931 8.98004 10.0586C9.07806 10.0065 9.14253 9.93942 9.16991 9.85818C9.19905 9.77605 9.21229 9.68598 9.21229 9.58707C9.21229 9.54027 9.20965 9.49611 9.20611 9.45549C9.20081 9.41487 9.19728 9.3769 9.19287 9.34245C9.16637 9.21352 9.1496 9.07223 9.13811 8.91946C9.1284 8.76756 9.12134 8.59978 9.12134 8.41963V8.07787C9.12134 7.58423 9.12752 7.19479 9.14165 6.91043C9.15401 6.62608 9.16726 6.41414 9.18315 6.27196C9.19905 6.13067 9.21141 6.04236 9.22554 6.00792C9.23879 5.97348 9.24497 5.95405 9.24497 5.94963L9.25998 5.90548C9.26881 5.81894 9.24938 5.75094 9.2017 5.69884C9.15401 5.64762 9.09926 5.61318 9.04098 5.59552C8.98799 5.57432 8.92706 5.56461 8.85376 5.56726C8.78046 5.56902 8.71865 5.58139 8.66655 5.60258C8.56764 5.62377 8.49434 5.65645 8.44401 5.69884C8.39456 5.74211 8.36011 5.78979 8.34069 5.84366C8.32214 5.89753 8.31243 5.95581 8.31596 6.01851C8.31596 6.08033 8.32214 6.14215 8.33097 6.2022C8.33892 6.23664 8.3451 6.25783 8.34775 6.26666C8.34952 6.27461 8.34775 6.2905 8.34422 6.3117C8.34422 6.52276 8.33892 6.71615 8.32832 6.89277C8.31596 7.0685 8.30625 7.22481 8.29918 7.36257V7.39525H7.62097C7.41963 7.39525 7.22446 7.3979 7.0346 7.40143C6.84473 7.40584 6.66458 7.41467 6.49327 7.42792C6.49327 7.3926 6.49503 7.36346 6.49591 7.3405C6.49856 7.31665 6.49945 7.29546 6.49945 7.27868C6.49945 7.25749 6.50033 7.23541 6.5021 7.21156C6.50563 7.18772 6.50651 7.15858 6.50651 7.12414C6.51446 6.92633 6.52417 6.73646 6.53477 6.55366C6.54625 6.37087 6.55685 6.21103 6.57098 6.07327C6.57451 6.06002 6.57628 6.03529 6.57451 5.99909C6.57098 5.96288 6.56833 5.92579 6.5648 5.88958C6.5595 5.85338 6.55508 5.81982 6.55155 5.78979C6.54625 5.75977 6.54448 5.74211 6.54448 5.73769C6.53124 5.7165 6.51004 5.69177 6.4809 5.6644C6.44999 5.63525 6.41202 5.61141 6.36698 5.59287C6.32195 5.57344 6.26808 5.56107 6.20626 5.55666C6.14268 5.55136 6.0738 5.56107 5.99609 5.58227C5.85744 5.62112 5.7709 5.6953 5.73204 5.80481C5.6923 5.91431 5.67376 6.03618 5.67376 6.16952C5.67376 6.20396 5.67464 6.23575 5.67729 6.26578C5.67906 6.29669 5.68082 6.32848 5.68082 6.36292C5.68436 6.385 5.68789 6.41944 5.68789 6.46624C5.68789 6.51304 5.68789 6.54837 5.68789 6.56956C5.67376 6.80181 5.66404 7.03142 5.65521 7.26013C5.64638 7.48797 5.64197 7.72464 5.64197 7.96925V8.45937C5.64197 8.59713 5.64285 8.73312 5.64462 8.86559C5.64638 8.99982 5.6508 9.1261 5.65521 9.2462C5.65875 9.3663 5.66493 9.47845 5.67111 9.58177C5.67817 9.68421 5.68789 9.77252 5.70113 9.84581C5.7135 9.92706 5.74882 9.99417 5.80711 10.0454C5.86539 10.0966 5.93692 10.1231 6.02258 10.1231C6.05614 10.1231 6.10736 10.1063 6.17447 10.0745C6.24159 10.0427 6.30605 9.99682 6.36787 9.93942C6.42968 9.88202 6.48002 9.81226 6.51623 9.73278Z" fill="#FF7F33"/>
  <path d="M10.1626 9.51798C10.3331 9.71402 10.5318 9.86768 10.7622 9.97983C10.9927 10.0911 11.2409 10.1467 11.5067 10.1467C11.791 10.1467 12.0542 10.084 12.2979 9.95952C12.5399 9.83501 12.7518 9.66545 12.9355 9.44998C13.1174 9.23539 13.264 8.98106 13.3709 8.68611C13.4786 8.39204 13.536 8.07501 13.5449 7.73502L13.5387 7.76063C13.5431 7.73944 13.5422 7.68645 13.5351 7.60256C13.5298 7.51867 13.5184 7.42329 13.5034 7.31556C13.4883 7.20782 13.4698 7.09567 13.446 6.97998C13.4212 6.8643 13.3956 6.76363 13.3647 6.67709C13.3002 6.50047 13.2111 6.34063 13.0936 6.19669C12.9779 6.05274 12.8455 5.92999 12.6953 5.82932C12.5443 5.72777 12.3792 5.64917 12.2017 5.59354C12.0224 5.5379 11.8343 5.50964 11.6356 5.50964C11.3557 5.50964 11.0952 5.57411 10.8523 5.70039C10.6095 5.82756 10.3958 6.00064 10.2112 6.2223C10.0266 6.44483 9.88093 6.70446 9.77672 7.00294C9.66987 7.30231 9.61777 7.62287 9.61777 7.96728C9.61777 8.27282 9.66634 8.55894 9.76259 8.82475C9.85885 9.09145 9.99308 9.32193 10.1626 9.51798ZM10.4938 7.20959C10.5512 7.01442 10.6307 6.84576 10.734 6.70623C10.8373 6.5667 10.9601 6.4572 11.1005 6.37772C11.2435 6.29824 11.4025 6.2585 11.5791 6.2585C11.814 6.2585 12.0206 6.30707 12.1964 6.40333C12.3739 6.50047 12.5143 6.68415 12.6176 6.95526C12.6468 7.0365 12.6697 7.14071 12.6883 7.26787C12.7042 7.39504 12.7183 7.52662 12.7262 7.66349C12.7351 7.90458 12.713 8.128 12.6627 8.33464C12.6106 8.5404 12.5328 8.72055 12.4295 8.87244C12.3262 9.02522 12.2017 9.14443 12.0551 9.23009C11.9085 9.31663 11.7451 9.35902 11.565 9.35902C11.3892 9.35902 11.2294 9.32017 11.0872 9.24069C10.9459 9.16121 10.8249 9.05347 10.7269 8.91836C10.628 8.78237 10.5503 8.62429 10.4938 8.44061C10.4382 8.25781 10.4108 8.06177 10.4108 7.85071C10.4108 7.61846 10.439 7.40475 10.4938 7.20959Z" fill="#FF7F33"/>
  <path d="M16.123 9.37954V9.38572C16.1044 9.27004 16.0912 9.13934 16.0806 8.99275C16.0709 8.84704 16.0629 8.6978 16.0585 8.54856C16.0541 8.39755 16.0532 8.25184 16.0532 8.10966C16.0532 7.96307 16.0532 7.82972 16.0532 7.70962C16.0532 7.57981 16.0541 7.45088 16.0585 7.3193C16.0629 7.1886 16.0673 7.06055 16.0718 6.93604C16.0762 6.87157 16.0779 6.80711 16.0779 6.74264C16.0779 6.67376 16.0797 6.60753 16.085 6.54218V6.46535C16.0771 6.41413 16.0841 6.38146 16.1053 6.36909H16.304C16.3385 6.36909 16.3747 6.36998 16.4126 6.37174C16.4524 6.37439 16.4912 6.37528 16.5301 6.37528C16.6369 6.37528 16.7456 6.36909 16.8559 6.35585C16.9663 6.34348 17.0626 6.31699 17.1527 6.27902C17.2401 6.24016 17.3134 6.18629 17.3708 6.11741C17.4291 6.04853 17.4591 5.95581 17.4591 5.83924C17.4635 5.72709 17.4211 5.65026 17.3328 5.60964C17.2454 5.56902 17.1412 5.54871 17.0202 5.54871C16.9566 5.54871 16.8966 5.55047 16.8427 5.55489C16.7888 5.5593 16.7385 5.56548 16.6908 5.57432H16.6979C16.6723 5.57873 16.6493 5.58226 16.6308 5.58403C16.6113 5.58668 16.5945 5.58756 16.5822 5.58756C16.4753 5.59198 16.3614 5.59551 16.2431 5.59728C16.1247 5.59904 16.0144 5.60522 15.9102 5.61405C15.7309 5.622 15.5534 5.63083 15.3812 5.63878C15.209 5.64761 15.0332 5.65203 14.8531 5.65203C14.8019 5.65203 14.7427 5.64496 14.6791 5.63172C14.627 5.62377 14.5758 5.61582 14.5246 5.60964C14.4716 5.60346 14.4222 5.60434 14.37 5.61317C14.3268 5.62112 14.2764 5.64408 14.2199 5.68029C14.1643 5.71738 14.1122 5.76065 14.0627 5.80922C14.0124 5.85955 13.9727 5.9143 13.94 5.97435C13.9073 6.0344 13.8949 6.09004 13.9047 6.14214C13.9179 6.21102 13.94 6.26312 13.9753 6.30021C14.0089 6.33642 14.0504 6.3638 14.0989 6.38057C14.1457 6.39824 14.1952 6.40795 14.2464 6.40972C14.2968 6.41237 14.3453 6.41325 14.3886 6.41325C14.5255 6.41325 14.6588 6.41148 14.7904 6.40972C14.9211 6.40795 15.0518 6.40354 15.1807 6.4C15.2072 6.4 15.2222 6.40707 15.2266 6.41943C15.2302 6.43356 15.2302 6.45034 15.2266 6.47153V6.51039C15.2266 6.56602 15.2249 6.61989 15.2231 6.67111C15.2205 6.72233 15.2178 6.7762 15.2125 6.83272C15.201 7.17624 15.194 7.51623 15.194 7.85092V8.18649C15.194 8.24654 15.1922 8.31012 15.1904 8.37635C15.1887 8.44347 15.1869 8.51058 15.1869 8.57946C15.1869 8.79405 15.194 9.00511 15.2072 9.21176C15.2205 9.41752 15.2443 9.60296 15.2779 9.76633C15.2955 9.84405 15.3273 9.91381 15.375 9.97563C15.4218 10.0383 15.4969 10.0692 15.6011 10.0692C15.677 10.0692 15.753 10.0436 15.8271 9.99241C15.8996 9.9403 15.9596 9.89173 16.0073 9.84405C16.0921 9.75839 16.1389 9.68332 16.1451 9.62151C16.1512 9.55969 16.1442 9.47845 16.123 9.37954Z" fill="#FF7F33"/>
  <path d="M20.9485 9.44354L20.9506 9.46416L20.9609 9.48272L20.9485 9.44354Z" fill="#000066"/>
  <path d="M17.9036 6.26029C17.9381 6.30003 17.9707 6.34683 17.9999 6.40247C18.0299 6.4581 18.0431 6.53405 18.0396 6.62766C18.0396 6.70095 18.0343 6.78131 18.0255 6.86697C18.0175 6.95263 18.0087 7.04271 17.9999 7.1372C17.9928 7.24847 17.9831 7.35974 17.9743 7.46924C17.9672 7.57874 17.9619 7.69178 17.9619 7.80746V7.93021C17.9619 7.95229 17.9628 7.97172 17.9654 7.9885C17.9672 8.00528 17.9672 8.0247 17.9672 8.0459V8.2649C17.9672 8.55367 17.9725 8.80006 17.9804 9.00317C17.9884 9.20804 18.0087 9.37936 18.0396 9.51624C18.0688 9.654 18.1138 9.7635 18.1738 9.84475C18.2339 9.92599 18.3151 9.98693 18.4185 10.0284C18.5218 10.0691 18.6507 10.0955 18.8061 10.1088C18.9598 10.122 19.1452 10.1282 19.3598 10.1282C19.6221 10.1282 19.8588 10.1141 20.0698 10.0858C20.28 10.0585 20.4566 10.017 20.5988 9.96043C20.7401 9.9048 20.8425 9.83327 20.9052 9.74761C20.9662 9.66372 20.9776 9.56481 20.9485 9.45354C20.9308 9.38024 20.9008 9.32108 20.8514 9.27781C20.7993 9.23189 20.7251 9.20981 20.6324 9.20981C20.6015 9.20981 20.5688 9.21334 20.5352 9.22217L20.5485 9.21599C20.3286 9.26721 20.1175 9.30342 19.9135 9.32461C19.7087 9.34669 19.5047 9.35993 19.3042 9.36347C19.2009 9.36347 19.1134 9.35905 19.0428 9.34845C18.9722 9.33786 18.9183 9.31931 18.8847 9.2937C18.8662 9.20804 18.8529 9.07734 18.8423 8.90073C18.8317 8.72499 18.8264 8.53954 18.8264 8.34615C18.8264 8.32054 18.8264 8.28875 18.8264 8.24989C18.8264 8.21192 18.8282 8.18101 18.8317 8.15982C18.8936 8.11654 18.9978 8.09093 19.1444 8.0821C19.2945 8.07327 19.4958 8.06268 19.7546 8.04943C19.8279 8.0459 19.8994 8.0406 19.97 8.03442C20.0416 8.02735 20.1096 8.01322 20.1732 7.99203H20.2835C20.3939 7.95317 20.4858 7.89224 20.5564 7.80835C20.6297 7.72357 20.6606 7.63968 20.6509 7.55313C20.6421 7.47101 20.6068 7.40566 20.5449 7.35621C20.4831 7.30764 20.3895 7.28203 20.2641 7.28203C20.1749 7.28203 20.0557 7.28732 19.9073 7.29527C19.759 7.3041 19.6044 7.31647 19.4402 7.33413C19.3325 7.34296 19.2291 7.35179 19.1302 7.35974C19.0313 7.36945 18.9404 7.3774 18.8529 7.38623C18.8406 7.3253 18.8317 7.2626 18.8282 7.19548C18.8229 7.12925 18.8211 7.06214 18.8211 6.99237C18.8211 6.87139 18.8282 6.75394 18.8406 6.64002C18.8538 6.52698 18.8644 6.43956 18.8732 6.37951C18.9148 6.35832 18.9695 6.34154 19.0375 6.33094C19.1037 6.32034 19.1726 6.31151 19.2468 6.30533C19.3192 6.29826 19.3934 6.29385 19.4693 6.29208C19.5444 6.28943 19.6142 6.28855 19.6777 6.28855H19.8711C19.8932 6.28855 19.9179 6.28943 19.9427 6.29208C19.9683 6.29385 19.9921 6.29473 20.0133 6.29473C20.1211 6.30003 20.2261 6.29738 20.3259 6.28855C20.4266 6.27972 20.507 6.25234 20.567 6.20466C20.6368 6.1658 20.6889 6.11105 20.726 6.03952C20.7613 5.96976 20.7745 5.90617 20.7666 5.84701C20.7533 5.7066 20.6747 5.61652 20.5317 5.57855C20.3877 5.53969 20.1811 5.52026 19.91 5.52026H19.7925C19.668 5.52026 19.5435 5.5238 19.4155 5.52998C19.2892 5.53616 19.1656 5.54499 19.0455 5.55559C18.9245 5.56618 18.8088 5.57855 18.7002 5.59444C18.5898 5.60857 18.4953 5.62535 18.4132 5.64213C18.3054 5.65891 18.233 5.67215 18.1933 5.6801C18.1588 5.68893 18.1385 5.69335 18.1297 5.69335C18.0688 5.70218 18.0175 5.71278 17.9743 5.72602C17.931 5.73927 17.8983 5.75693 17.8718 5.78077C17.8471 5.80462 17.8268 5.83729 17.8144 5.88056C17.8012 5.92384 17.7968 5.97947 17.8012 6.04835C17.8091 6.08632 17.8224 6.12341 17.84 6.15785C17.8559 6.19141 17.878 6.22585 17.9036 6.26029Z" fill="#FF7F33"/>
  <path d="M20.7703 5.84283L20.7682 5.85108L20.7703 5.85727V5.84283Z" fill="#000066"/>
  <path d="M24.0287 9.35193C23.9713 9.2963 23.898 9.26804 23.8124 9.26804H23.8062C23.785 9.26009 23.7647 9.25391 23.7479 9.25214C23.7311 9.24949 23.7099 9.25303 23.6843 9.26186H23.6967C23.4998 9.28747 23.3338 9.30336 23.2031 9.30689C23.0724 9.31219 22.9514 9.31661 22.8392 9.32014C22.8048 9.32014 22.7686 9.32191 22.7297 9.32367C22.6909 9.32632 22.6547 9.3272 22.6202 9.3272C22.4401 9.34045 22.2979 9.32014 22.1946 9.26892C22.1857 9.17885 22.1804 9.08524 22.1787 8.9881C22.176 8.89184 22.1751 8.77881 22.1751 8.64987V8.34698C22.1751 8.16594 22.1778 7.97961 22.1822 7.78886C22.1849 7.59723 22.1919 7.40649 22.2007 7.21486C22.2096 7.02411 22.2193 6.83778 22.2299 6.65763C22.2405 6.47748 22.2537 6.30704 22.2714 6.14808C22.2714 6.11806 22.2767 6.08185 22.2838 6.03858C22.2891 6.01739 22.2926 5.99708 22.2944 5.97765C22.297 5.95822 22.2979 5.93791 22.2979 5.91671L22.2908 5.92996C22.2908 5.90082 22.2732 5.86196 22.2387 5.81428C22.2052 5.76659 22.1575 5.72332 22.0983 5.68535C22.0374 5.64649 21.9685 5.61646 21.889 5.59439C21.8087 5.57319 21.7292 5.57319 21.6462 5.59439C21.625 5.60763 21.5985 5.62441 21.5658 5.64296C21.534 5.66327 21.5022 5.68711 21.474 5.71714C21.4431 5.74716 21.4174 5.78337 21.3963 5.82399C21.3742 5.86461 21.3636 5.91142 21.3636 5.96264C21.3636 5.99708 21.3627 6.03063 21.36 6.06331C21.3583 6.0951 21.3565 6.12866 21.3565 6.1631C21.353 6.31764 21.3477 6.48896 21.3406 6.67529C21.3336 6.86162 21.3291 7.05148 21.3238 7.24311C21.3194 7.43386 21.315 7.61754 21.3106 7.79416C21.3071 7.97078 21.3035 8.12355 21.3035 8.25248C21.3035 8.3037 21.3026 8.35227 21.3 8.39996C21.2982 8.44853 21.2982 8.49445 21.2982 8.54214C21.2982 8.61014 21.2965 8.67548 21.2947 8.73553C21.2921 8.79558 21.2903 8.85387 21.2903 8.9095C21.2903 9.08171 21.2973 9.23448 21.3132 9.36783C21.3283 9.50117 21.36 9.61686 21.4095 9.71311C21.4581 9.80937 21.5305 9.88797 21.6223 9.94802C21.7142 10.0081 21.8352 10.0513 21.987 10.0769C22.0471 10.0849 22.1133 10.092 22.1831 10.099C22.2546 10.1061 22.3323 10.1087 22.4189 10.1087C22.4533 10.1087 22.4886 10.1079 22.5257 10.1061C22.5619 10.1034 22.5999 10.1026 22.6379 10.1026C22.8657 10.0946 23.0777 10.0805 23.2737 10.0611C23.4689 10.0416 23.6349 10.0125 23.77 9.97363C23.9051 9.93477 24.0058 9.8809 24.0702 9.81202C24.1312 9.74667 24.1471 9.6619 24.1276 9.55769C24.1188 9.47733 24.0861 9.40757 24.0287 9.35193Z" fill="#FF7F33"/>
  <path d="M24.1302 9.54077C24.1302 9.55521 24.1282 9.56552 24.1302 9.58201V9.54077Z" fill="#000066"/>
</svg>