<svg xmlns="http://www.w3.org/2000/svg" width="49" height="43" viewBox="0 0 49 43" fill="none">
  <path d="M6.11365 28.0938H4.53397C4.11084 28.0938 3.76782 28.4368 3.76782 28.86C3.76782 29.2831 4.11084 29.6261 4.53397 29.6261H6.11365C6.53678 29.6261 6.8798 29.2831 6.8798 28.86C6.8798 28.4368 6.53678 28.0938 6.11365 28.0938Z" fill="#FF7F33" stroke="black" stroke-width="0.000213333"/>
  <path d="M11.4325 31.5493H9.8527C9.42957 31.5493 9.08655 31.8923 9.08655 32.3154C9.08655 32.7385 9.42957 33.0816 9.8527 33.0816H11.4325C11.8556 33.0816 12.1986 32.7385 12.1986 32.3154C12.1986 31.8923 11.8556 31.5493 11.4325 31.5493Z" fill="#FF7F33" stroke="black" stroke-width="0.000213333"/>
  <path d="M12.6671 23.6179H11.0874C10.6642 23.6179 10.3212 23.9609 10.3212 24.384C10.3212 24.8071 10.6642 25.1502 11.0874 25.1502H12.6671C13.0902 25.1502 13.4332 24.8071 13.4332 24.384C13.4332 23.9609 13.0902 23.6179 12.6671 23.6179Z" fill="#FF7F33" stroke="black" stroke-width="0.000213333"/>
  <path d="M44.5869 28.2477H43.0074C42.5842 28.2477 42.2412 28.5907 42.2412 29.0138C42.2412 29.437 42.5842 29.78 43.0074 29.78H44.5869C45.0101 29.78 45.3531 29.437 45.3531 29.0138C45.3531 28.5907 45.0101 28.2477 44.5869 28.2477Z" fill="#FF7F33" stroke="black" stroke-width="0.000213333"/>
  <path d="M46.8231 13.1353H32.0468V11.0074C32.2162 11.0231 32.3874 11.0322 32.5608 11.0322H39.4822C40.4184 11.0322 41.1802 10.2705 41.1802 9.33421C41.1802 8.39795 40.4185 7.63634 39.4822 7.63634H34.1773C34.0608 7.63634 33.9661 7.5416 33.9661 7.42513C33.9661 7.30866 34.0609 7.21401 34.1773 7.21401H39.4822C40.4184 7.21401 41.1802 6.4523 41.1802 5.51604C41.1802 4.57987 40.4185 3.81817 39.4822 3.81817H34.1773C34.0608 3.81817 33.9661 3.72333 33.9661 3.60696C33.9661 3.49058 34.0609 3.39583 34.1773 3.39583H39.4822C40.4184 3.39583 41.1802 2.63413 41.1802 1.69787C41.1802 0.761606 40.4185 0 39.4822 0H32.5607C30.2988 0 28.3515 1.36894 27.5012 3.32128L10.4097 2.44952C9.7288 2.41526 9.08108 2.65442 8.58648 3.12413C8.09199 3.59413 7.81962 4.22845 7.81962 4.91053V6.12156C7.81962 6.80373 8.09199 7.43805 8.58639 7.90785C9.0494 8.3479 9.64649 8.58601 10.28 8.58601C10.323 8.58601 10.3663 8.58486 10.4096 8.58275L13.0509 8.448V13.1354H2.17686C0.976555 13.1354 0 14.1119 0 15.3123V40.3426C0 41.2663 0.751557 42.0178 1.67528 42.0178H47.3247C48.2484 42.0178 49 41.2663 49 40.3426V15.3122C49 14.1118 48.0234 13.1353 46.8231 13.1353ZM32.5607 1.53192H39.4821C39.5734 1.53192 39.6478 1.60628 39.6478 1.69749C39.6478 1.78888 39.5734 1.86315 39.4821 1.86315H34.1772C33.2159 1.86315 32.4337 2.64523 32.4337 3.60657C32.4337 4.56791 33.2159 5.35009 34.1772 5.35009H39.4821C39.5734 5.35009 39.6478 5.42445 39.6478 5.51566C39.6478 5.60706 39.5734 5.68132 39.4821 5.68132H34.1772C33.2159 5.68132 32.4337 6.46341 32.4337 7.42474C32.4337 8.38608 33.2159 9.16826 34.1772 9.16826H39.4821C39.5734 9.16826 39.6478 9.24263 39.6478 9.33383C39.6478 9.42523 39.5734 9.49949 39.4821 9.49949H32.5607C30.3639 9.49949 28.5767 7.71224 28.5767 5.51547C28.5767 3.3187 30.3639 1.53192 32.5607 1.53192ZM27.5012 7.71071C28.0798 9.03916 29.1664 10.0963 30.5145 10.6369V13.1353H14.5834V8.36972L27.5012 7.71071ZM10.3317 7.05227C10.0743 7.065 9.82909 6.97475 9.64209 6.79703C9.45509 6.6194 9.35211 6.37928 9.35211 6.12136V4.91034C9.35211 4.65242 9.45509 4.41249 9.64209 4.23467C9.82909 4.05705 10.0736 3.96651 10.3317 3.97953L27.0882 4.83406C27.0605 5.05762 27.0446 5.28482 27.0446 5.51585C27.0446 5.74688 27.0605 5.97398 27.0882 6.19764L10.3317 7.05227ZM4.47785 40.4854C4.8443 38.2917 6.75482 36.6141 9.05093 36.6141C11.3469 36.6141 13.2577 38.2918 13.624 40.4854H4.47785ZM23.7338 40.4854H18.4473V30.4878H23.7338V40.4854ZM15.443 28.9555C15.3768 28.9555 15.323 28.9016 15.323 28.8354V27.289C15.323 27.2229 15.3769 27.169 15.443 27.169H33.557C33.6232 27.169 33.677 27.2229 33.677 27.289V28.8354C33.677 28.9016 33.6231 28.9555 33.557 28.9555H15.443ZM25.2661 40.4854V30.4878H30.5526V40.4854H25.2661ZM35.3759 40.4854C35.7423 38.2917 37.6529 36.6141 39.949 36.6141C42.245 36.6141 44.1557 38.2918 44.522 40.4854H35.3759ZM47.4677 40.3425C47.4677 40.4213 47.4036 40.4854 47.3247 40.4854H46.0695C45.6908 37.4439 43.0915 35.0818 39.949 35.0818C36.8065 35.0818 34.2072 37.4439 33.8285 40.4854H32.085V30.4878H33.557C34.4681 30.4878 35.2093 29.7465 35.2093 28.8354V27.289C35.2093 26.3779 34.4681 25.6367 33.557 25.6367H15.443C14.5319 25.6367 13.7907 26.3779 13.7907 27.289V28.8354C13.7907 29.7465 14.5319 30.4878 15.443 30.4878H16.915V40.4854H15.1715C14.7928 37.4439 12.1935 35.0818 9.05103 35.0818C5.90852 35.0818 3.30922 37.4439 2.93053 40.4854H1.67528C1.59642 40.4854 1.5323 40.4213 1.5323 40.3425V22.1495H47.4678L47.4677 40.3425ZM47.4677 20.6173H1.5323V18.4086H47.4678L47.4677 20.6173ZM47.4677 16.8763H1.5323V15.312C1.5323 14.9567 1.82142 14.6674 2.17686 14.6674H46.8231C47.1786 14.6674 47.4677 14.9566 47.4677 15.312V16.8763Z" fill="#000066" stroke="black" stroke-width="0.000213333"/>
  <path d="M39.6756 23.1881H38.0959C37.6727 23.1881 37.3297 23.5311 37.3297 23.9543C37.3297 24.3774 37.6727 24.7204 38.0959 24.7204H39.6756C40.0988 24.7204 40.4418 24.3774 40.4418 23.9543C40.4418 23.5311 40.0988 23.1881 39.6756 23.1881Z" fill="#FF7F33" stroke="black" stroke-width="0.000213333"/>
  <path d="M28.2926 23.5297C28.2926 23.1066 27.9496 22.7635 27.5265 22.7635H25.9468C25.5237 22.7635 25.1806 23.1066 25.1806 23.5297C25.1806 23.9528 25.5237 24.2959 25.9468 24.2959H27.5265C27.9496 24.2959 28.2926 23.9528 28.2926 23.5297Z" fill="#FF7F33" stroke="black" stroke-width="0.000213333"/>
  <path d="M37.9035 31.5493H36.3239C35.9007 31.5493 35.5577 31.8923 35.5577 32.3154C35.5577 32.7385 35.9007 33.0816 36.3239 33.0816H37.9035C38.3267 33.0816 38.6697 32.7385 38.6697 32.3154C38.6697 31.8923 38.3267 31.5493 37.9035 31.5493Z" fill="#FF7F33" stroke="black" stroke-width="0.000213333"/>
</svg>