<svg width="40" height="40" viewBox="0 0 40 40" fill="none" xmlns="http://www.w3.org/2000/svg">
<circle cx="20" cy="20" r="19.5" stroke="#000066"/>
<path d="M11 19.5C10.7239 19.5 10.5 19.7239 10.5 20C10.5 20.2761 10.7239 20.5 11 20.5V19.5ZM29.3536 20.3536C29.5488 20.1583 29.5488 19.8417 29.3536 19.6464L26.1716 16.4645C25.9763 16.2692 25.6597 16.2692 25.4645 16.4645C25.2692 16.6597 25.2692 16.9763 25.4645 17.1716L28.2929 20L25.4645 22.8284C25.2692 23.0237 25.2692 23.3403 25.4645 23.5355C25.6597 23.7308 25.9763 23.7308 26.1716 23.5355L29.3536 20.3536ZM11 20.5L29 20.5V19.5L11 19.5V20.5Z" fill="#000066"/>
</svg>
