<svg width="111" height="43" viewBox="0 0 111 43" fill="none" xmlns="http://www.w3.org/2000/svg">
<rect x="91.1073" y="18.9453" width="20" height="20" rx="5" transform="rotate(11.9777 91.1073 18.9453)" fill="#D0F3CB"/>
<path fill-rule="evenodd" clip-rule="evenodd" d="M99.3889 25.1986C99.7151 24.7246 100.449 24.8803 100.555 25.4459L101.111 28.4251C101.156 28.6655 101.34 28.8551 101.579 28.9057L104.569 29.5401C105.119 29.6568 105.253 30.3821 104.782 30.6897L101.848 32.603C101.664 32.7231 101.559 32.9337 101.574 33.1533L101.819 36.7246C101.86 37.3276 101.13 37.6564 100.709 37.2243L98.3116 34.7628C98.1412 34.5879 97.8826 34.533 97.6559 34.6237L94.4707 35.8976C93.9088 36.1223 93.3732 35.5234 93.6567 34.9874L95.3277 31.828C95.4305 31.6335 95.4203 31.3985 95.3008 31.214L93.4064 28.289C93.0969 27.8111 93.5184 27.1957 94.0745 27.3136L97.048 27.9445C97.2866 27.9951 97.5323 27.8968 97.6709 27.6953L99.3889 25.1986Z" fill="#43A047"/>
<rect x="69.5863" y="14.3796" width="20" height="20" rx="5" transform="rotate(11.9777 69.5863 14.3796)" fill="#D0F3CB"/>
<path fill-rule="evenodd" clip-rule="evenodd" d="M77.8679 20.6329C78.1941 20.159 78.928 20.3147 79.0336 20.8802L79.5899 23.8595C79.6348 24.0999 79.8194 24.2894 80.058 24.3401L83.0484 24.9745C83.5983 25.0911 83.7322 25.8165 83.2606 26.124L80.3272 28.0374C80.1432 28.1574 80.0384 28.368 80.0534 28.5876L80.298 32.1589C80.3393 32.7619 79.6091 33.0907 79.1882 32.6586L76.7906 30.1971C76.6202 30.0222 76.3616 29.9674 76.1349 30.0581L72.9497 31.3319C72.3878 31.5566 71.8522 30.9577 72.1357 30.4217L73.8067 27.2623C73.9095 27.0678 73.8993 26.8328 73.7798 26.6483L71.8854 23.7233C71.5759 23.2454 71.9974 22.63 72.5535 22.748L75.527 23.3788C75.7656 23.4294 76.0113 23.3311 76.1499 23.1297L77.8679 20.6329Z" fill="#43A047"/>
<rect x="48.0653" y="9.8139" width="20" height="20" rx="5" transform="rotate(11.9777 48.0653 9.8139)" fill="#D0F3CB"/>
<path fill-rule="evenodd" clip-rule="evenodd" d="M56.3469 16.0672C56.6731 15.5933 57.407 15.749 57.5126 16.3145L58.0689 19.2938C58.1138 19.5342 58.2984 19.7238 58.537 19.7744L61.5274 20.4088C62.0773 20.5254 62.2112 21.2508 61.7396 21.5584L58.8062 23.4717C58.6222 23.5917 58.5174 23.8024 58.5324 24.0219L58.777 27.5932C58.8183 28.1963 58.0881 28.5251 57.6672 28.0929L55.2696 25.6314C55.0992 25.4566 54.8406 25.4017 54.6139 25.4924L51.4287 26.7662C50.8668 26.9909 50.3312 26.392 50.6147 25.856L52.2857 22.6967C52.3886 22.5021 52.3783 22.2671 52.2588 22.0826L50.3644 19.1576C50.0549 18.6797 50.4764 18.0643 51.0325 18.1823L54.006 18.8131C54.2446 18.8637 54.4903 18.7655 54.629 18.564L56.3469 16.0672Z" fill="#43A047"/>
<rect x="26.5442" y="5.24822" width="20" height="20" rx="5" transform="rotate(11.9777 26.5442 5.24822)" fill="#D0F3CB"/>
<path fill-rule="evenodd" clip-rule="evenodd" d="M34.8258 11.5016C35.152 11.0276 35.8859 11.1833 35.9915 11.7489L36.5478 14.7281C36.5927 14.9685 36.7773 15.1581 37.0159 15.2087L40.0063 15.8431C40.5562 15.9598 40.69 16.6851 40.2185 16.9927L37.2851 18.906C37.101 19.0261 36.9963 19.2367 37.0113 19.4562L37.2559 23.0276C37.2972 23.6306 36.567 23.9594 36.1461 23.5273L33.7485 21.0657C33.5781 20.8909 33.3195 20.836 33.0928 20.9267L29.9076 22.2006C29.3457 22.4252 28.8101 21.8263 29.0936 21.2903L30.7645 18.131C30.8674 17.9364 30.8571 17.7014 30.7377 17.517L28.8433 14.592C28.5338 14.1141 28.9553 13.4986 29.5114 13.6166L32.4849 14.2474C32.7235 14.2981 32.9692 14.1998 33.1078 13.9983L34.8258 11.5016Z" fill="#43A047"/>
<rect x="5.02319" y="0.682549" width="20" height="20" rx="5" transform="rotate(11.9777 5.02319 0.682549)" fill="#D0F3CB"/>
<path fill-rule="evenodd" clip-rule="evenodd" d="M13.3048 6.93589C13.631 6.46193 14.3649 6.61763 14.4705 7.18319L15.0268 10.1624C15.0717 10.4028 15.2563 10.5924 15.4949 10.643L18.4853 11.2774C19.0352 11.3941 19.169 12.1194 18.6975 12.427L15.7641 14.3403C15.58 14.4604 15.4753 14.671 15.4903 14.8906L15.7349 18.4619C15.7762 19.0649 15.046 19.3937 14.6251 18.9616L12.2275 16.5001C12.0571 16.3252 11.7985 16.2703 11.5718 16.361L8.38658 17.6349C7.8247 17.8596 7.28909 17.2607 7.57258 16.7247L9.24355 13.5653C9.34644 13.3708 9.33615 13.1357 9.21669 12.9513L7.32227 10.0263C7.01276 9.54839 7.43433 8.93297 7.99041 9.05094L10.9639 9.68176C11.2025 9.73238 11.4482 9.63411 11.5868 9.43263L13.3048 6.93589Z" fill="#43A047"/>
</svg>
