<svg xmlns="http://www.w3.org/2000/svg" width="41" height="41" viewBox="0 0 41 41" fill="none">
  <mask id="mask0_0_125" style="mask-type:luminance" maskUnits="userSpaceOnUse" x="3" y="3" width="35" height="35">
    <path d="M37.2745 24.3519C39.2229 15.1674 33.357 6.14244 24.1726 4.19397C14.9882 2.2455 5.96318 8.1114 4.0147 17.2958C2.06623 26.4803 7.93213 35.5053 17.1166 37.4537C26.301 39.4022 35.326 33.5363 37.2745 24.3519Z" fill="white"/>
  </mask>
  <g mask="url(#mask0_0_125)">
    <path d="M37.2745 24.3519C39.2229 15.1674 33.357 6.14244 24.1726 4.19397C14.9882 2.2455 5.96318 8.1114 4.0147 17.2958C2.06623 26.4803 7.93213 35.5053 17.1166 37.4537C26.301 39.4022 35.326 33.5363 37.2745 24.3519Z" fill="#F86767"/>
    <path d="M33.9513 32.1898C30.5661 38.1606 23.5939 41.5289 16.522 40.0286C9.91507 38.6269 5.11294 33.3774 3.96341 27.1225C3.96341 27.1225 3.96341 27.1225 3.96362 27.1215C4.42298 26.048 5.19106 25.1044 6.20169 24.314C6.1753 23.6289 6.23638 22.917 6.39298 22.1789C7.68176 16.104 14.0123 13.4516 22.2349 15.3005C29.0692 16.8376 33.6741 21.2403 31.8977 27.3481C31.836 27.5621 31.792 27.7781 31.7327 27.9891C32.8942 29.3101 33.6671 30.7414 33.9513 32.1898Z" fill="#D6E8ED" stroke="#871C20" stroke-width="0.957654" stroke-miterlimit="10" stroke-linecap="round" stroke-linejoin="round"/>
    <path d="M21.2514 30.4589C21.2075 30.4498 20.9587 30.407 20.777 30.376C20.5812 30.3423 20.3782 30.3073 20.2638 30.2865C20.0396 30.2456 19.8147 30.2014 19.5959 30.155C19.4519 30.1244 19.3092 30.0927 19.1682 30.0599C19.1018 30.0456 19.035 30.0297 18.9698 30.0139C18.9174 30.0017 18.8638 29.9886 18.8105 29.9752C18.7231 29.9541 18.6332 29.9311 18.5446 29.9074C18.4437 29.8817 18.3376 29.8536 18.2328 29.8249C18.1291 29.796 18.0316 29.769 17.9355 29.7404C17.8635 29.7203 17.7918 29.6987 17.7211 29.6773C17.6464 29.6557 17.5722 29.6322 17.4988 29.6091C17.2766 29.5396 17.0698 29.4716 16.869 29.4017C16.7917 29.3751 16.7131 29.348 16.6359 29.3193C16.5444 29.287 16.4533 29.2529 16.3639 29.2193C16.3513 29.2149 16.3391 29.21 16.3272 29.2054C16.231 29.1694 16.1374 29.1326 16.0439 29.0956C15.9462 29.0568 15.8496 29.0175 15.7532 28.9772C15.6711 28.9439 15.585 28.9065 15.4988 28.8694C15.4388 28.8437 15.3785 28.8167 15.3183 28.7902L15.3044 28.7839C15.2514 28.7609 15.1948 28.7351 15.1382 28.7084C15.0339 28.661 14.9316 28.6124 14.8304 28.5638L14.6754 28.4882C14.6187 28.4606 14.5605 28.4312 14.5025 28.4013C14.4517 28.3759 14.3982 28.349 14.3456 28.3214C14.277 28.2853 14.2083 28.249 14.1397 28.2117C14.0637 28.1718 13.9827 28.1266 13.9025 28.0816L13.8568 28.0558C13.8061 28.0272 13.7558 27.9989 13.7063 27.9697C13.6527 27.9394 13.6008 27.9086 13.5483 27.877C13.5399 27.8721 13.5038 27.8508 13.5038 27.8508C13.4461 27.8168 13.3895 27.7823 13.333 27.7467C13.2051 27.6686 13.0801 27.5891 12.951 27.5038C12.8843 27.4604 12.8138 27.4124 12.7442 27.3646C12.7442 27.3646 12.716 27.3458 12.7053 27.3381C12.6522 27.3022 12.6002 27.2658 12.5483 27.2284C12.3093 27.059 12.0772 26.8835 11.8631 26.7098C11.8326 26.6857 11.7981 26.6568 11.7646 26.6284C11.7371 26.6058 11.7031 26.5775 11.67 26.5495C11.6217 26.5095 11.5708 26.4655 11.5199 26.4206C11.4585 26.3671 11.3943 26.3096 11.3309 26.2523C11.2802 26.2063 11.2287 26.1597 11.1794 26.1127L11.0663 26.0038L11.0314 25.9697C11.0104 25.9493 10.9895 25.9289 10.9691 25.9082C10.8597 25.7992 10.7511 25.6861 10.6493 25.5751C10.6166 25.5402 10.584 25.5046 10.5518 25.4678L10.5232 25.4358C10.5025 25.4125 10.4819 25.3895 10.4618 25.366C10.4309 25.3309 10.3966 25.2911 10.3634 25.2504C10.2488 25.1145 10.1419 24.9802 10.0456 24.8511C10.0159 24.8121 9.98422 24.7685 9.95261 24.725C9.8127 24.5311 9.68427 24.3359 9.56976 24.1436C9.55081 24.112 9.53136 24.0793 9.51214 24.046L9.4942 24.014C9.44816 23.9339 9.4061 23.8568 9.36968 23.7856C9.32963 23.7088 9.28844 23.6256 9.25 23.5427C9.23644 23.5153 9.21845 23.4777 9.20077 23.4351C9.19258 23.4175 9.1641 23.3528 9.1641 23.3528C9.1213 23.2535 9.0848 23.1625 9.05262 23.0743C9.05262 23.0743 9.03529 23.027 9.03102 23.0151L9.021 22.9992L8.99954 22.9252C8.64725 21.8892 8.64951 20.8904 9.00618 20.0355C10.6004 16.2063 14.4578 15.166 21.5132 16.6628C21.6413 16.6899 21.7696 16.7177 21.8997 16.7465C27.8856 18.0706 31.9014 21.6204 31.4479 25.187C31.3357 26.0755 31.0387 26.8875 30.5656 27.6003C29.8579 28.6692 28.7835 29.4791 27.3725 30.0068C27.3725 30.0068 27.2844 30.0395 27.2568 30.0492C27.1861 30.075 27.1072 30.1013 27.0285 30.1276C26.5611 30.2815 26.1518 30.4698 25.8098 30.688C25.7483 30.728 25.6849 30.7704 25.6235 30.8142L25.6003 30.8313C25.5808 30.8456 25.5614 30.8596 25.5425 30.8745C25.498 30.909 25.4541 30.9446 25.407 30.9845L25.3771 31.0105C25.3239 31.0572 25.2773 31.1003 25.2351 31.1426C25.211 31.1662 25.1927 31.1856 25.1741 31.2058C25.1249 31.2583 25.0869 31.3017 25.0548 31.3416C24.7864 31.6723 24.0022 32.354 24.0022 32.354C24.0022 32.354 22.4015 30.7029 21.2514 30.4589Z" stroke="#F3F8FA" stroke-width="0.7" stroke-miterlimit="10" stroke-linecap="round" stroke-linejoin="round"/>
    <path d="M30.0454 27.2565C29.4479 28.159 28.5054 28.9183 27.1526 29.4244C27.118 29.437 27.0825 29.4503 27.0471 29.4629C26.9762 29.4886 26.903 29.5131 26.8298 29.5375C26.2993 29.7122 25.8483 29.9243 25.4731 30.1636C25.3984 30.2123 25.3262 30.2605 25.2567 30.3103C25.2221 30.3357 25.188 30.3603 25.1553 30.3861C25.09 30.4366 25.0271 30.4887 24.9661 30.5412C24.9651 30.5419 24.9659 30.5421 24.9659 30.5421C24.9056 30.5947 24.8481 30.6479 24.794 30.7019C24.7664 30.7287 24.7407 30.756 24.7146 30.7841C24.663 30.8394 24.6141 30.8945 24.5685 30.9511C24.2081 31.3951 24.0241 31.8768 24.0002 32.354L23.9931 32.3534C23.889 31.213 22.835 30.1601 21.378 29.851C21.2849 29.8313 20.6199 29.7201 20.3733 29.6751C20.0068 29.6082 19.6491 29.5343 19.3012 29.4531C19.2368 29.4395 19.172 29.424 19.1089 29.4087C19.0587 29.3971 19.0087 29.3846 18.9585 29.3722C18.8722 29.3513 18.7869 29.3295 18.7025 29.307C18.5991 29.2806 18.4968 29.2534 18.3955 29.2256C18.2977 29.1984 18.2008 29.1716 18.105 29.143C18.0347 29.1236 17.9646 29.1024 17.8956 29.0813C17.8246 29.0608 17.7539 29.0384 17.684 29.0164C17.4753 28.9512 17.2714 28.8843 17.0709 28.8146C16.9947 28.7885 16.9194 28.7624 16.8453 28.7349C16.7549 28.703 16.6647 28.6693 16.5764 28.6361C16.5637 28.6316 16.5521 28.6264 16.5403 28.622C16.4494 28.5881 16.3597 28.5528 16.27 28.5175C16.1761 28.4803 16.0833 28.4424 15.9907 28.4037C15.9071 28.3695 15.8247 28.3338 15.7424 28.2984C15.6791 28.2713 15.6168 28.2436 15.5546 28.2157C15.5013 28.1926 15.4491 28.1688 15.3971 28.1443C15.2952 28.0982 15.1953 28.0506 15.0964 28.0032C15.0469 27.9792 14.9967 27.9549 14.9481 27.9309C14.8922 27.9035 14.8373 27.8756 14.7824 27.8477C14.7323 27.8225 14.6823 27.7972 14.6332 27.7714C14.5662 27.7364 14.4999 27.7015 14.4339 27.6656C14.3563 27.6247 14.2799 27.582 14.2044 27.5398C14.1404 27.5034 14.0769 27.4683 14.0148 27.4313C13.9629 27.4023 13.9129 27.3724 13.8621 27.3417C13.8467 27.333 13.8315 27.3233 13.816 27.3146C13.7627 27.2833 13.7104 27.2514 13.6584 27.2185C13.533 27.1419 13.4113 27.0643 13.2919 26.9852C13.2256 26.9421 13.1597 26.8972 13.0947 26.8526C13.0813 26.8433 13.0685 26.8352 13.0559 26.8262C13.0066 26.793 12.9584 26.7591 12.9103 26.7243C12.6798 26.5609 12.4605 26.3955 12.2528 26.227C12.2232 26.2034 12.194 26.179 12.1655 26.1548C12.1331 26.1279 12.1005 26.1011 12.069 26.0743C12.0219 26.0353 11.9758 25.9956 11.93 25.9549C11.8678 25.9009 11.8068 25.8462 11.7466 25.7914C11.6993 25.7488 11.6521 25.7059 11.6068 25.6627C11.57 25.6267 11.5329 25.5917 11.4966 25.5568C11.4674 25.5278 11.4378 25.4998 11.4095 25.4711C11.303 25.3649 11.2011 25.2588 11.103 25.1517C11.0741 25.1211 11.0453 25.0894 11.0167 25.0571C10.9882 25.0247 10.9594 24.993 10.9318 24.9609C10.9003 24.9252 10.8698 24.8896 10.8401 24.8534C10.7357 24.7295 10.6358 24.6047 10.5425 24.4796C10.5119 24.4395 10.4831 24.3998 10.4543 24.3599C10.3258 24.182 10.2084 24.0035 10.1026 23.8257C10.0845 23.7954 10.067 23.7664 10.0498 23.7363C10.0451 23.7281 10.0406 23.7198 10.0359 23.7117C9.99611 23.6423 9.95743 23.5724 9.92207 23.5031C9.88201 23.4264 9.84453 23.3504 9.80906 23.2737C9.79448 23.2442 9.78067 23.2151 9.76877 23.1852C9.75623 23.159 9.74529 23.133 9.73355 23.1069C9.69828 23.0249 9.66489 22.9424 9.63501 22.8607C9.62062 22.8214 9.60608 22.7828 9.59349 22.7439C9.59217 22.7417 9.59163 22.7398 9.59111 22.7378C9.28517 21.8463 9.27728 20.9969 9.57848 20.2751C11.0714 16.6891 14.762 15.8051 21.7637 17.3541C27.5836 18.6414 31.2228 22.0117 30.8292 25.1087C30.7323 25.8723 30.4793 26.6025 30.0454 27.2565Z" fill="#7575C6" stroke="#871C20" stroke-width="0.7" stroke-miterlimit="10" stroke-linecap="round" stroke-linejoin="round"/>
    <path d="M30.0489 27.256C29.4514 28.1585 28.5089 28.9178 27.1561 29.4239C27.1216 29.4365 27.0862 29.4498 27.0508 29.4625C26.9799 29.4882 26.9067 29.5127 26.8333 29.537C26.3028 29.7118 25.8518 29.9238 25.4768 30.1632C25.4013 30.2109 25.3291 30.2599 25.2602 30.3099C25.2258 30.3353 25.1915 30.3599 25.1588 30.3856C25.0928 30.436 25.03 30.4881 24.9696 30.5407C24.9686 30.5414 24.9695 30.5416 24.9695 30.5416C24.9085 30.5941 24.8517 30.6475 24.7975 30.7014C24.7701 30.7283 24.7442 30.7555 24.7183 30.7836C24.6667 30.8381 24.6177 30.894 24.5721 30.9507C24.2117 31.3947 24.0278 31.8763 24.0037 32.3536L23.9966 32.3529C23.8925 31.2125 22.8386 30.1597 21.3815 29.8506C21.2886 29.8308 20.6236 29.7197 20.3768 29.6747C20.0105 29.6078 19.6526 29.5338 19.3047 29.4527C19.2405 29.439 19.1755 29.4235 19.1125 29.4082C19.0622 29.3967 19.0122 29.3841 18.9622 29.3718C18.8758 29.3508 18.7905 29.329 18.7061 29.3066C18.6027 29.2801 18.5004 29.253 18.3991 29.2252C18.3013 29.198 18.2044 29.1711 18.1086 29.1426C18.0383 29.1231 17.9683 29.1019 17.8992 29.0808C17.8282 29.0603 17.7575 29.038 17.6876 29.016C17.479 28.9507 17.275 28.8838 17.0745 28.8142C16.9983 28.788 16.923 28.7619 16.8489 28.7345C16.7585 28.7025 16.6684 28.6689 16.58 28.6356C16.5673 28.6312 16.5557 28.6259 16.5439 28.6215C16.453 28.5877 16.3633 28.5524 16.2736 28.5171C16.1797 28.4799 16.0869 28.442 15.9943 28.4033C15.9107 28.3691 15.8283 28.3334 15.746 28.2979C15.6827 28.2708 15.6204 28.2431 15.5582 28.2152C15.5049 28.1922 15.4527 28.1683 15.4007 28.1438C15.2988 28.0977 15.1989 28.0501 15.1 28.0027C15.0505 27.9787 15.0003 27.9544 14.9517 27.9305C14.8958 27.903 14.8409 27.8751 14.7859 27.8472C14.7359 27.8221 14.6859 27.7968 14.6368 27.7709C14.5698 27.7359 14.5036 27.7009 14.4375 27.6652C14.36 27.6242 14.2835 27.5816 14.208 27.5393C14.144 27.503 14.0805 27.4678 14.0184 27.4309C13.9665 27.4018 13.9165 27.372 13.8657 27.3413C13.8503 27.3326 13.8351 27.3229 13.8196 27.3142C13.7663 27.2829 13.714 27.251 13.662 27.2181C13.5366 27.1414 13.4149 27.0638 13.2955 26.9848C13.2292 26.9417 13.1633 26.8968 13.0983 26.8522C13.0849 26.8429 13.0721 26.8347 13.0594 26.8257C13.0102 26.7925 12.9619 26.7587 12.9139 26.7238C12.6834 26.5605 12.4641 26.395 12.2564 26.2265C12.2268 26.203 12.1976 26.1785 12.1691 26.1543C12.1367 26.1275 12.1041 26.1006 12.0726 26.0738C12.0255 26.0348 11.9794 25.9951 11.9336 25.9544C11.8714 25.9005 11.8103 25.8457 11.7502 25.791C11.7029 25.7484 11.6557 25.7055 11.6104 25.6623C11.5735 25.6263 11.5365 25.5913 11.5002 25.5563C11.471 25.5274 11.4414 25.4994 11.413 25.4706C11.3066 25.3644 11.2047 25.2583 11.1066 25.1512C11.0777 25.1206 11.0489 25.089 11.0203 25.0567C10.9918 25.0242 10.963 24.9925 10.9354 24.9604C10.9039 24.9247 10.8733 24.8892 10.8437 24.853C10.7393 24.729 10.6394 24.6043 10.5461 24.4791C10.5155 24.4391 10.4867 24.3993 10.458 24.3595C10.3294 24.1816 10.212 24.0031 10.1062 23.8252C10.0881 23.795 10.0706 23.7659 10.0534 23.7358C10.0487 23.7277 10.0442 23.7194 10.0396 23.7112C9.99988 23.641 9.96185 23.5721 9.92568 23.5027C9.88562 23.4259 9.84813 23.3499 9.81267 23.2733C9.79808 23.2438 9.78427 23.2146 9.77238 23.1848C9.75983 23.1585 9.7489 23.1326 9.73716 23.1065C9.70206 23.0236 9.66849 22.942 9.63861 22.8602C9.62421 22.8209 9.60967 22.7823 9.59709 22.7435C9.59579 22.7413 9.59524 22.7394 9.59472 22.7374C12.0074 21.4106 16.0397 21.0314 20.3689 21.9499C24.836 22.8977 28.454 24.9808 30.0489 27.256Z" fill="url(#paint0_linear_0_125)" stroke="#871C20" stroke-width="0.7" stroke-miterlimit="10" stroke-linecap="round" stroke-linejoin="round"/>
    <path d="M6.19467 24.3122C6.16801 23.6273 6.23057 22.9154 6.38713 22.1774C7.67587 16.1028 14.0066 13.4503 22.2288 15.2992C29.0634 16.8362 33.5868 21.0329 31.8923 27.3464C30.5492 32.3501 27.2199 35.5017 20.2837 34.6441C16.8179 34.2157 13.9067 33.0972 11.6196 31.825" stroke="#871C20" stroke-width="0.7" stroke-miterlimit="10" stroke-linecap="round" stroke-linejoin="round"/>
    <path d="M7.68846 23.3497C7.68846 23.3497 5.79846 24.3512 4.88841 25.5915" stroke="#871C20" stroke-width="0.7" stroke-miterlimit="10" stroke-linecap="round" stroke-linejoin="round"/>
    <path d="M21.8339 32.3213C21.7608 32.6657 21.4225 32.8857 21.0781 32.8126C20.7338 32.7396 20.5138 32.4011 20.5868 32.0567C20.6599 31.7123 20.9984 31.4923 21.3427 31.5654C21.687 31.6384 21.907 31.9769 21.8339 32.3213Z" fill="#871C20" stroke="#871C20" stroke-width="0.7" stroke-miterlimit="10" stroke-linecap="round" stroke-linejoin="round"/>
    <path d="M26.5771 32.538C26.9342 32.6137 27.2851 32.3857 27.3608 32.0286C27.4366 31.6715 27.2086 31.3206 26.8514 31.2448C26.4942 31.1691 26.1433 31.3971 26.0675 31.7542C25.9918 32.1113 26.2198 32.4622 26.5771 32.538Z" fill="#871C20" stroke="#871C20" stroke-width="0.7" stroke-miterlimit="10" stroke-linecap="round" stroke-linejoin="round"/>
    <path d="M20.3837 38.1402C20.2689 38.1158 20.1639 38.0463 20.0976 37.9385C19.2926 36.6309 19.1675 35.1653 19.7361 33.7009C20.1571 32.6158 20.8116 31.915 20.8393 31.8859C21.0077 31.7075 21.2888 31.6992 21.4674 31.8676C21.6457 32.0358 21.654 32.3166 21.4861 32.4951C21.3942 32.5936 19.2756 34.9082 20.8542 37.4727C20.9829 37.6818 20.9179 37.9554 20.709 38.0839C20.6078 38.1463 20.4914 38.163 20.3837 38.1402Z" fill="#7575C6" stroke="#871C20" stroke-width="0.7" stroke-miterlimit="10" stroke-linecap="round" stroke-linejoin="round"/>
    <path d="M27.4194 37.2505C27.3854 37.2433 27.3518 37.232 27.3191 37.2161C27.0979 37.1101 27.0045 36.8446 27.1107 36.6234C28.443 33.8467 26.5472 32.3118 26.4658 32.2478C26.2736 32.0967 26.2387 31.8179 26.389 31.625C26.5395 31.4319 26.8165 31.3962 27.0102 31.5454C27.0371 31.5662 27.6737 32.0639 28.0967 32.9882C28.4853 33.8368 28.7685 35.2226 27.9119 37.0079C27.8214 37.1964 27.6153 37.2921 27.4194 37.2505Z" fill="#7575C6" stroke="#871C20" stroke-width="0.7" stroke-miterlimit="10" stroke-linecap="round" stroke-linejoin="round"/>
    <path d="M32.6522 17.7289C32.5274 18.906 31.5346 19.7656 30.435 19.6488C29.3355 19.5321 28.5454 18.4834 28.6702 17.3063C28.7951 16.1293 29.7879 15.2697 30.8874 15.3864C31.987 15.5033 32.7771 16.552 32.6522 17.7289Z" fill="#FCD9C4"/>
    <path d="M29.1085 16.191C29.5252 15.6379 30.1857 15.3122 30.8899 15.387C31.9894 15.5037 32.7795 16.5524 32.6548 17.7294C32.5298 18.9064 31.5371 19.766 30.4376 19.6493C30.0964 19.613 29.7851 19.4872 29.5217 19.2956" stroke="#871C20" stroke-width="0.7" stroke-miterlimit="10" stroke-linecap="round" stroke-linejoin="round"/>
    <path d="M27.4111 25.2949C27.6187 27.3932 25.058 28.6729 21.7272 28.5592C18.1206 28.4358 13.9478 26.0948 13.5898 23.8375C13.1827 21.2705 18.2115 20.3373 21.9334 20.9322C25.4957 21.5017 27.2106 23.2678 27.4111 25.2949Z" fill="#FABAAF" stroke="#871C20" stroke-width="0.7" stroke-miterlimit="10" stroke-linecap="round" stroke-linejoin="round"/>
    <path d="M11.988 17.0143C10.8127 22.0491 14.2951 26.0479 19.5093 27.1541C24.7234 28.2603 29.7975 26.0777 30.8705 21.0202C31.9434 15.9626 28.5494 10.2266 23.3352 9.12042C18.1209 8.01422 12.965 12.8283 11.988 17.0143Z" fill="url(#paint1_linear_0_125)"/>
    <path d="M19.4361 12.1584C18.6478 12.2646 15.9233 13.5243 16.3086 16.9947C16.3406 17.2835 16.0766 17.523 15.7862 17.5334C15.4382 17.546 15.171 17.2324 15.2341 16.8899C15.3661 16.1741 15.4487 15.0312 14.8885 14.209C14.0135 12.925 13.1005 13.3608 13.1005 13.3608L16.0209 11.5526C16.0209 11.5526 20.2064 12.0547 19.4361 12.1584Z" fill="#871C20" stroke="#871C20" stroke-width="0.7" stroke-miterlimit="10" stroke-linecap="round" stroke-linejoin="round"/>
    <path d="M26.3732 20.703C26.1537 21.2961 25.3107 22.0075 24.0077 21.8754C22.6248 21.6967 21.9671 20.7076 21.9624 20.0789C21.9605 19.8559 22.0412 19.6777 22.2007 19.5981C22.7732 19.259 23.702 19.7802 24.3601 19.8553C25.0179 19.9313 25.8043 19.6077 26.2854 20.0677C26.4461 20.2007 26.4707 20.4404 26.3732 20.703Z" fill="white" stroke="#871C20" stroke-width="0.7" stroke-miterlimit="10" stroke-linecap="round" stroke-linejoin="round"/>
    <path d="M25.7325 13.2599C26.0574 13.7598 26.5458 14.0187 26.8237 13.8381C27.1015 13.6576 27.0633 13.106 26.7384 12.6062C26.4136 12.1064 25.9249 11.8474 25.6471 12.0279C25.3693 12.2085 25.4076 12.7601 25.7325 13.2599Z" fill="#871C20" stroke="#871C20" stroke-width="0.7" stroke-miterlimit="10" stroke-linecap="round" stroke-linejoin="round"/>
    <path d="M24.5266 12.1652C24.0484 12.5213 23.8213 13.0253 24.0191 13.291C24.2169 13.5568 24.765 13.4835 25.2431 13.1274C25.7212 12.7714 25.9485 12.2674 25.7507 12.0017C25.5528 11.7359 25.0048 11.8092 24.5266 12.1652Z" fill="#871C20" stroke="#871C20" stroke-width="0.7" stroke-miterlimit="10" stroke-linecap="round" stroke-linejoin="round"/>
    <path d="M11.988 17.0143C10.8127 22.0491 14.2951 26.0479 19.5093 27.1541C24.7234 28.2603 29.7975 26.0777 30.8705 21.0202C31.9434 15.9626 28.5494 10.2266 23.3352 9.12042C18.1209 8.01422 12.965 12.8283 11.988 17.0143Z" stroke="#871C20" stroke-width="0.7" stroke-miterlimit="10" stroke-linecap="round" stroke-linejoin="round"/>
    <path d="M13.8797 10.5757C13.7455 10.8224 13.629 11.0786 13.5289 11.3417C18.6939 12.1499 27.1882 12.1405 29.0623 10.6757C25.7956 5.41867 16.5764 5.35171 13.8797 10.5757Z" fill="#9090DD" stroke="#871C20" stroke-width="0.7" stroke-miterlimit="10" stroke-linecap="round" stroke-linejoin="round"/>
    <path d="M12.0259 13.1155C12.1137 13.861 12.2824 14.9975 13.0392 15.4653C13.3383 14.9162 13.5473 14.6477 13.9022 14.1811C15.6604 11.5444 26.1708 11.311 29.2398 13.7396C29.6247 14.044 29.9779 14.4597 30.2634 15.0847C30.8448 14.67 30.91 13.767 30.9047 12.7753C30.8986 11.6354 30.3049 11.0974 30.1332 10.9595C26.6972 8.2003 16.4803 8.72742 13.1041 10.6528C12.0303 11.2906 11.9389 12.3755 12.0259 13.1155Z" fill="#9090DD" stroke="#871C20" stroke-width="0.7" stroke-miterlimit="10" stroke-linecap="round" stroke-linejoin="round"/>
    <path d="M12.8288 17.6471C14.0827 17.7069 15.1476 16.7389 15.2074 15.485C15.2672 14.2312 14.2992 13.1662 13.0453 13.1064C11.7914 13.0466 10.7265 14.0146 10.6667 15.2685C10.6069 16.5224 11.5749 17.5873 12.8288 17.6471Z" fill="#FBCDBC"/>
    <path d="M15.0675 14.5729C14.803 13.8728 14.1986 13.3178 13.4121 13.151C12.1842 12.8905 10.9774 13.6747 10.7169 14.9027C10.4564 16.1307 11.2406 17.3373 12.4687 17.5979C12.8495 17.6787 13.2284 17.6589 13.5775 17.5567" stroke="#871C20" stroke-width="0.7" stroke-miterlimit="10" stroke-linecap="round" stroke-linejoin="round"/>
    <path d="M12.7289 16.8342C12.9031 16.8711 13.077 16.8731 13.2419 16.8442C13.7784 16.7528 14.2308 16.3452 14.3507 15.7801C14.4116 15.4928 14.3775 15.2067 14.2663 14.9546C14.0978 14.5625 13.7465 14.2556 13.2962 14.1601C13.0003 14.0973 12.7066 14.1352 12.4507 14.2506" stroke="#871C20" stroke-width="0.7" stroke-miterlimit="10" stroke-linecap="round" stroke-linejoin="round"/>
    <path d="M13.1591 16.0156C13.0981 16.3028 13.1319 16.5908 13.2412 16.8424C13.7777 16.751 14.2302 16.3434 14.3501 15.7783C14.411 15.491 14.3768 15.2049 14.2657 14.9528C13.7295 15.0425 13.279 15.4504 13.1591 16.0156Z" fill="#871C20" stroke="#871C20" stroke-width="0.7" stroke-miterlimit="10" stroke-linecap="round" stroke-linejoin="round"/>
    <path d="M26.7322 16.7533C26.9908 17.3223 26.9048 17.9412 26.5011 18.4183" stroke="#871C20" stroke-miterlimit="10" stroke-linecap="round" stroke-linejoin="round"/>
    <path d="M21.9231 16.1175C22.1815 16.6865 22.0957 17.3055 21.6918 17.7826" stroke="#871C20" stroke-miterlimit="10" stroke-linecap="round" stroke-linejoin="round"/>
    <path d="M25.8995 19.8559C25.8995 19.8559 26.4556 19.621 26.6392 19.539C27.2078 19.2852 27.5683 18.8715 27.4526 18.3067C27.337 17.7418 26.7851 17.3776 26.2203 17.4933L24.8481 17.7432" fill="#FBD5BE"/>
    <path d="M25.8995 19.8559C25.8995 19.8559 26.4556 19.621 26.6392 19.539C27.2078 19.2852 27.5683 18.8715 27.4526 18.3067C27.337 17.7418 26.7851 17.3776 26.2203 17.4933L24.8481 17.7432" stroke="#871C20" stroke-width="0.7" stroke-miterlimit="10" stroke-linecap="round" stroke-linejoin="round"/>
    <path d="M19.2307 19.5115C19.6754 19.8501 20.2335 19.8652 20.4773 19.5452C20.7212 19.225 20.5583 18.691 20.1136 18.3524C19.6689 18.0137 19.1108 17.9987 18.867 18.3187C18.6232 18.6388 18.786 19.1728 19.2307 19.5115Z" fill="#FABAAF"/>
    <path d="M28.6165 20.0365C28.2523 20.165 27.8767 20.0413 27.7773 19.7601C27.6781 19.4788 27.8926 19.1465 28.2568 19.018C28.6209 18.8894 28.9965 19.0131 29.0959 19.2944C29.1953 19.5756 28.9804 19.9079 28.6165 20.0365Z" fill="#FABAAF"/>
    <path d="M27.6387 15.8424C27.4447 14.9367 26.2525 14.7177 25.7494 15.4952" stroke="#871C20" stroke-width="0.7" stroke-miterlimit="10" stroke-linecap="round" stroke-linejoin="round"/>
    <path d="M23.2185 15.1592C23.0243 14.2535 21.8323 14.0345 21.3291 14.8121" stroke="#871C20" stroke-width="0.7" stroke-miterlimit="10" stroke-linecap="round" stroke-linejoin="round"/>
    <path d="M25.3065 19.8223C25.369 19.9096 25.6899 20.7391 25.0199 21.8018" stroke="#871C20" stroke-width="0.7" stroke-miterlimit="10" stroke-linecap="round" stroke-linejoin="round"/>
    <path d="M24.414 19.8593C24.414 19.8593 24.7348 20.8024 23.8851 21.8535" stroke="#871C20" stroke-width="0.7" stroke-miterlimit="10" stroke-linecap="round" stroke-linejoin="round"/>
    <path d="M23.3693 19.6037C23.3693 19.6037 23.4742 20.686 22.8748 21.4306" stroke="#871C20" stroke-width="0.7" stroke-miterlimit="10" stroke-linecap="round" stroke-linejoin="round"/>
  </g>
  <defs>
    <linearGradient id="paint0_linear_0_125" x1="9.02413" y1="29.0254" x2="29.4589" y2="24.6402" gradientUnits="userSpaceOnUse">
      <stop offset="0.1031" stop-color="#D6E8ED"/>
      <stop offset="0.1854" stop-color="#DEECF0"/>
      <stop offset="0.4424" stop-color="#F0F7F9"/>
      <stop offset="0.7094" stop-color="#FBFDFD"/>
      <stop offset="1" stop-color="white"/>
    </linearGradient>
    <linearGradient id="paint1_linear_0_125" x1="10.1089" y1="24.4917" x2="36.8475" y2="10.6388" gradientUnits="userSpaceOnUse">
      <stop stop-color="#F79292"/>
      <stop offset="0.0345" stop-color="#F8A09C"/>
      <stop offset="0.1011" stop-color="#F9B6AC"/>
      <stop offset="0.1748" stop-color="#FAC5B7"/>
      <stop offset="0.2603" stop-color="#FBCEBD"/>
      <stop offset="0.385" stop-color="#FBD1BF"/>
      <stop offset="0.4315" stop-color="#FBD2C0"/>
      <stop offset="0.8047" stop-color="#FCDAC5"/>
    </linearGradient>
  </defs>
</svg>