<svg xmlns="http://www.w3.org/2000/svg" width="49" height="42" viewBox="0 0 49 42" fill="none">
  <path d="M46.8953 23.3204L45.9882 23.3138C45.164 23.3081 44.1234 22.6973 43.7164 21.9803L39.3272 14.252C38.7867 13.3002 37.5058 12.5545 36.4113 12.5545H35.158V10.1834H35.5373C36.8332 10.1834 37.8876 9.12919 37.8876 7.83313V2.35025C37.8876 1.05438 36.8332 0 35.5373 0H18.7712C17.4754 0 16.421 1.05418 16.421 2.35025V7.83313C16.421 9.12899 17.4752 10.1834 18.7712 10.1834H19.1508V12.5543H17.0436C15.9567 12.5543 14.6438 13.2695 14.0544 14.1828L8.8998 22.1707C8.43385 22.8927 7.33338 23.6665 6.4963 23.8603L1.97892 24.9075C0.887665 25.1602 0 26.2773 0 27.3974V35.2717C0 36.4338 0.945423 37.3792 2.10754 37.3792H5.47428C6.18826 39.8305 8.45351 41.6271 11.1319 41.6271C13.8102 41.6271 16.0757 39.8305 16.7899 37.3792H29.5156C30.2296 39.8305 32.495 41.6271 35.1734 41.6271C37.8517 41.6271 40.117 39.8305 40.8312 37.3792H46.8925C48.0546 37.3792 49 36.4338 49 35.2717V25.4404C48.9998 24.2795 48.0558 23.3286 46.8953 23.3204ZM31.7849 2.73591C31.7849 2.59479 31.8994 2.4803 32.0405 2.4803H35.6119C35.7528 2.4803 35.8677 2.595 35.8677 2.73591V3.36182C35.8677 3.50294 35.7528 3.61743 35.6119 3.61743H34.5632C34.5163 3.61743 34.4778 3.65573 34.4778 3.70263V7.48535C34.4778 7.62626 34.3631 7.74096 34.2222 7.74096H33.4077C33.2668 7.74096 33.1519 7.62626 33.1519 7.48535V3.70263C33.1519 3.65635 33.113 3.61743 33.0667 3.61743H32.0405C31.8996 3.61743 31.7849 3.50274 31.7849 3.36182V2.73591ZM26.9566 2.73591C26.9566 2.59479 27.0715 2.4803 27.2125 2.4803H28.2154C28.3387 2.4803 28.4831 2.56428 28.544 2.6716L29.4329 4.24068C29.4798 4.32322 29.5535 4.45942 29.5969 4.5436C29.6 4.54913 29.9445 5.18467 30.18 5.72784C30.1546 5.32599 30.1126 4.58354 30.1126 4.05328V2.73571C30.1126 2.59459 30.2275 2.4801 30.3684 2.4801H31.0847C31.2258 2.4801 31.3405 2.59479 31.3405 2.73571V7.48494C31.3405 7.62585 31.2256 7.74055 31.0847 7.74055H30.2177C30.094 7.74055 29.9502 7.65576 29.8902 7.54761L28.9675 5.88268C28.9218 5.79993 28.8485 5.66455 28.8043 5.58119L28.8038 5.58023C28.7872 5.54987 28.4044 4.84765 28.1505 4.28103C28.162 4.66874 28.1839 5.50623 28.1839 6.12231V7.48474C28.1839 7.62565 28.069 7.74035 27.9281 7.74035H27.2125C27.0713 7.74035 26.9566 7.62565 26.9566 7.48474V2.73591ZM22.922 2.73591C22.922 2.59479 23.0369 2.4803 23.1778 2.4803H25.9785C26.1194 2.4803 26.2341 2.595 26.2341 2.73591V3.33929C26.2341 3.48021 26.1194 3.59511 25.9785 3.59511H24.3334C24.2865 3.59511 24.2482 3.63341 24.2482 3.68031V4.39634C24.2482 4.44324 24.2865 4.48175 24.3334 4.48175H25.8648C26.0057 4.48175 26.1206 4.59644 26.1206 4.73736V5.33296C26.1206 5.47407 26.0057 5.58857 25.8648 5.58857H24.3334C24.2865 5.58857 24.2482 5.62707 24.2482 5.67397V6.54095C24.2482 6.58785 24.2865 6.62636 24.3334 6.62636H26.0843C26.2253 6.62636 26.34 6.74126 26.34 6.88217V7.48494C26.34 7.62585 26.2253 7.74055 26.0843 7.74055H23.178C23.0371 7.74055 22.9222 7.62585 22.9222 7.48494L22.922 2.73591ZM18.6969 7.74075C18.556 7.74075 18.4413 7.62606 18.4413 7.48515V2.91717C18.4413 2.74902 18.5162 2.54031 18.8732 2.50181C19.2362 2.4633 19.6462 2.44303 20.0591 2.44303C20.8687 2.44303 21.3931 2.57206 21.7587 2.86146C22.0907 3.12752 22.2586 3.50806 22.2586 3.99347C22.2586 4.62102 21.8529 5.07673 21.4179 5.27971C21.4301 5.29138 21.4443 5.30387 21.4594 5.3176C21.4775 5.33337 21.9029 5.71104 22.0366 6.19871C22.08 6.35621 22.1236 6.52027 22.166 6.68002C22.1672 6.6845 22.1684 6.68898 22.1696 6.69346C22.2287 6.91634 22.2852 7.12934 22.3358 7.3004C22.3614 7.38786 22.4042 7.53389 22.3258 7.63835C22.2742 7.70757 22.1861 7.74096 22.0569 7.74096H21.3623C21.2331 7.74096 21.0973 7.64593 21.0533 7.52447L21.0524 7.52214C21.0393 7.48545 20.8999 7.09648 20.7543 6.49016C20.6191 5.85994 20.4075 5.74607 20.0124 5.73931H19.8369C19.7906 5.73931 19.7515 5.77843 19.7515 5.82472V7.48515C19.7515 7.62606 19.6368 7.74075 19.4961 7.74075H18.6969ZM21.3337 10.1834H32.9751V12.5543H21.3337V10.1834ZM11.1319 38.6612C9.51506 38.6612 8.20466 37.3504 8.20466 35.7338C8.20466 34.1168 9.51506 32.8061 11.1319 32.8061C12.7487 32.8061 14.0593 34.1168 14.0593 35.7338C14.0593 37.3504 12.7487 38.6612 11.1319 38.6612ZM25.33 23.8629H13.0672C12.2971 23.8629 11.9956 23.3253 12.3968 22.668L16.1316 16.5508C16.533 15.8936 17.4914 15.356 18.2613 15.356H25.33V23.8629ZM35.1732 38.6612C33.5564 38.6612 32.2456 37.3504 32.2456 35.7338C32.2456 34.1168 33.5564 32.8061 35.1732 32.8061C36.7898 32.8061 38.1004 34.1168 38.1004 35.7338C38.1004 37.3504 36.7898 38.6612 35.1732 38.6612ZM39.4421 23.8629H28.6986V15.356H34.858C35.6281 15.356 36.5569 15.9106 36.9223 16.5885L40.178 22.6306C40.5434 23.3083 40.2122 23.8629 39.4421 23.8629Z" fill="#000066"/>
  <path d="M18.6969 7.74075C18.556 7.74075 18.4413 7.62606 18.4413 7.48515V2.91717C18.4413 2.74902 18.5162 2.54031 18.8732 2.50181C19.2362 2.4633 19.6462 2.44303 20.0591 2.44303C20.8687 2.44303 21.3931 2.57206 21.7587 2.86146C22.0907 3.12752 22.2586 3.50806 22.2586 3.99347C22.2586 4.62102 21.8529 5.07673 21.4179 5.27971C21.4301 5.29138 21.4443 5.30387 21.4594 5.3176C21.4775 5.33337 21.9029 5.71104 22.0366 6.19871C22.08 6.35621 22.1236 6.52027 22.166 6.68002L22.1696 6.69346C22.2287 6.91634 22.2852 7.12934 22.3358 7.3004C22.3614 7.38786 22.4042 7.53389 22.3258 7.63835C22.2742 7.70757 22.1861 7.74096 22.0569 7.74096H21.3623C21.2331 7.74096 21.0973 7.64593 21.0533 7.52447L21.0524 7.52214C21.0393 7.48545 20.8999 7.09648 20.7543 6.49016C20.6191 5.85994 20.4075 5.74607 20.0124 5.73931H19.8369C19.7906 5.73931 19.7515 5.77843 19.7515 5.82472V7.48515C19.7515 7.62606 19.6368 7.74075 19.4961 7.74075H18.6969Z" fill="#FF7F33"/>
  <path d="M22.922 2.73591C22.922 2.59479 23.0369 2.4803 23.1778 2.4803H25.9785C26.1194 2.4803 26.2341 2.595 26.2341 2.73591V3.33929C26.2341 3.48021 26.1194 3.59511 25.9785 3.59511H24.3334C24.2865 3.59511 24.2482 3.63341 24.2482 3.68031V4.39634C24.2482 4.44324 24.2865 4.48175 24.3334 4.48175H25.8648C26.0057 4.48175 26.1206 4.59644 26.1206 4.73736V5.33296C26.1206 5.47407 26.0057 5.58857 25.8648 5.58857H24.3334C24.2865 5.58857 24.2482 5.62707 24.2482 5.67397V6.54095C24.2482 6.58785 24.2865 6.62636 24.3334 6.62636H26.0843C26.2253 6.62636 26.34 6.74126 26.34 6.88217V7.48494C26.34 7.62585 26.2253 7.74055 26.0843 7.74055H23.178C23.0371 7.74055 22.9222 7.62585 22.9222 7.48494L22.922 2.73591Z" fill="#FF7F33"/>
  <path d="M26.9566 2.73591C26.9566 2.59479 27.0715 2.4803 27.2125 2.4803H28.2154C28.3387 2.4803 28.4831 2.56428 28.544 2.6716L29.4329 4.24068C29.4798 4.32322 29.5535 4.45942 29.5969 4.5436C29.6 4.54913 29.9445 5.18467 30.18 5.72784C30.1546 5.32599 30.1126 4.58354 30.1126 4.05328V2.73571C30.1126 2.59459 30.2275 2.4801 30.3684 2.4801H31.0847C31.2258 2.4801 31.3405 2.59479 31.3405 2.73571V7.48494C31.3405 7.62585 31.2256 7.74055 31.0847 7.74055H30.2177C30.094 7.74055 29.9502 7.65576 29.8902 7.54761L28.9675 5.88268C28.9218 5.79993 28.8485 5.66455 28.8043 5.58119L28.8038 5.58023C28.7872 5.54987 28.4044 4.84765 28.1505 4.28103C28.162 4.66874 28.1839 5.50623 28.1839 6.12231V7.48474C28.1839 7.62565 28.069 7.74035 27.9281 7.74035H27.2125C27.0713 7.74035 26.9566 7.62565 26.9566 7.48474V2.73591Z" fill="#FF7F33"/>
  <path d="M31.7849 2.73591C31.7849 2.59479 31.8994 2.4803 32.0405 2.4803H35.6119C35.7528 2.4803 35.8677 2.595 35.8677 2.73591V3.36182C35.8677 3.50294 35.7528 3.61743 35.6119 3.61743H34.5632C34.5163 3.61743 34.4778 3.65573 34.4778 3.70263V7.48535C34.4778 7.62626 34.3631 7.74096 34.2222 7.74096H33.4077C33.2668 7.74096 33.1519 7.62626 33.1519 7.48535V3.70263C33.1519 3.65635 33.113 3.61743 33.0667 3.61743H32.0405C31.8996 3.61743 31.7849 3.50274 31.7849 3.36182V2.73591Z" fill="#FF7F33"/>
  <path d="M22.166 6.68002C22.1236 6.52027 22.08 6.35621 22.0366 6.19871C21.9029 5.71104 21.4775 5.33337 21.4594 5.3176C21.4443 5.30387 21.4301 5.29138 21.4179 5.27971C21.8529 5.07673 22.2586 4.62102 22.2586 3.99347C22.2586 3.50806 22.0907 3.12752 21.7587 2.86146C21.3931 2.57206 20.8687 2.44303 20.0591 2.44303C19.6462 2.44303 19.2362 2.4633 18.8732 2.50181C18.5162 2.54031 18.4413 2.74902 18.4413 2.91717V7.48515C18.4413 7.62606 18.556 7.74075 18.6969 7.74075H19.4961C19.6368 7.74075 19.7515 7.62606 19.7515 7.48515V5.82472C19.7515 5.77843 19.7906 5.73931 19.8369 5.73931H20.0124C20.4075 5.74607 20.6191 5.85994 20.7543 6.49016C20.8999 7.09648 21.0393 7.48545 21.0524 7.52214M22.166 6.68002L22.1696 6.69346M22.166 6.68002C22.1672 6.6845 22.1684 6.68898 22.1696 6.69346M21.0533 7.52447C21.0973 7.64593 21.2331 7.74096 21.3623 7.74096H22.0569C22.1861 7.74096 22.2742 7.70757 22.3258 7.63835C22.4042 7.53389 22.3614 7.38786 22.3358 7.3004C22.2852 7.12934 22.2287 6.91634 22.1696 6.69346M21.0533 7.52447L21.0524 7.52214M21.0533 7.52447L21.0524 7.52214M46.8953 23.3204L45.9882 23.3138C45.164 23.3081 44.1234 22.6973 43.7164 21.9803L39.3272 14.252C38.7867 13.3002 37.5058 12.5545 36.4113 12.5545H35.158V10.1834H35.5373C36.8332 10.1834 37.8876 9.12919 37.8876 7.83313V2.35025C37.8876 1.05438 36.8332 0 35.5373 0H18.7712C17.4754 0 16.421 1.05418 16.421 2.35025V7.83313C16.421 9.12899 17.4752 10.1834 18.7712 10.1834H19.1508V12.5543H17.0436C15.9567 12.5543 14.6438 13.2695 14.0544 14.1828L8.8998 22.1707C8.43385 22.8927 7.33338 23.6665 6.4963 23.8603L1.97892 24.9075C0.887665 25.1602 0 26.2773 0 27.3974V35.2717C0 36.4338 0.945423 37.3792 2.10754 37.3792H5.47428C6.18826 39.8305 8.45351 41.6271 11.1319 41.6271C13.8102 41.6271 16.0757 39.8305 16.7899 37.3792H29.5156C30.2296 39.8305 32.495 41.6271 35.1734 41.6271C37.8517 41.6271 40.117 39.8305 40.8312 37.3792H46.8925C48.0546 37.3792 49 36.4338 49 35.2717V25.4404C48.9998 24.2795 48.0558 23.3286 46.8953 23.3204ZM31.7849 2.73591C31.7849 2.59479 31.8994 2.4803 32.0405 2.4803H35.6119C35.7528 2.4803 35.8677 2.595 35.8677 2.73591V3.36182C35.8677 3.50294 35.7528 3.61743 35.6119 3.61743H34.5632C34.5163 3.61743 34.4778 3.65573 34.4778 3.70263V7.48535C34.4778 7.62626 34.3631 7.74096 34.2222 7.74096H33.4077C33.2668 7.74096 33.1519 7.62626 33.1519 7.48535V3.70263C33.1519 3.65635 33.113 3.61743 33.0667 3.61743H32.0405C31.8996 3.61743 31.7849 3.50274 31.7849 3.36182V2.73591ZM26.9566 2.73591C26.9566 2.59479 27.0715 2.4803 27.2125 2.4803H28.2154C28.3387 2.4803 28.4831 2.56428 28.544 2.6716L29.4329 4.24068C29.4798 4.32322 29.5535 4.45942 29.5969 4.5436C29.6 4.54913 29.9445 5.18467 30.18 5.72784C30.1546 5.32599 30.1126 4.58354 30.1126 4.05328V2.73571C30.1126 2.59459 30.2275 2.4801 30.3684 2.4801H31.0847C31.2258 2.4801 31.3405 2.59479 31.3405 2.73571V7.48494C31.3405 7.62585 31.2256 7.74055 31.0847 7.74055H30.2177C30.094 7.74055 29.9502 7.65576 29.8902 7.54761L28.9675 5.88268C28.9218 5.79993 28.8485 5.66455 28.8043 5.58119L28.8038 5.58023C28.7872 5.54987 28.4044 4.84765 28.1505 4.28103C28.162 4.66874 28.1839 5.50623 28.1839 6.12231V7.48474C28.1839 7.62565 28.069 7.74035 27.9281 7.74035H27.2125C27.0713 7.74035 26.9566 7.62565 26.9566 7.48474V2.73591ZM22.922 2.73591C22.922 2.59479 23.0369 2.4803 23.1778 2.4803H25.9785C26.1194 2.4803 26.2341 2.595 26.2341 2.73591V3.33929C26.2341 3.48021 26.1194 3.59511 25.9785 3.59511H24.3334C24.2865 3.59511 24.2482 3.63341 24.2482 3.68031V4.39634C24.2482 4.44324 24.2865 4.48175 24.3334 4.48175H25.8648C26.0057 4.48175 26.1206 4.59644 26.1206 4.73736V5.33296C26.1206 5.47407 26.0057 5.58857 25.8648 5.58857H24.3334C24.2865 5.58857 24.2482 5.62707 24.2482 5.67397V6.54095C24.2482 6.58785 24.2865 6.62636 24.3334 6.62636H26.0843C26.2253 6.62636 26.34 6.74126 26.34 6.88217V7.48494C26.34 7.62585 26.2253 7.74055 26.0843 7.74055H23.178C23.0371 7.74055 22.9222 7.62585 22.9222 7.48494L22.922 2.73591ZM21.3337 10.1834H32.9751V12.5543H21.3337V10.1834ZM11.1319 38.6612C9.51506 38.6612 8.20466 37.3504 8.20466 35.7338C8.20466 34.1168 9.51506 32.8061 11.1319 32.8061C12.7487 32.8061 14.0593 34.1168 14.0593 35.7338C14.0593 37.3504 12.7487 38.6612 11.1319 38.6612ZM25.33 23.8629H13.0672C12.2971 23.8629 11.9956 23.3253 12.3968 22.668L16.1316 16.5508C16.533 15.8936 17.4914 15.356 18.2613 15.356H25.33V23.8629ZM35.1732 38.6612C33.5564 38.6612 32.2456 37.3504 32.2456 35.7338C32.2456 34.1168 33.5564 32.8061 35.1732 32.8061C36.7898 32.8061 38.1004 34.1168 38.1004 35.7338C38.1004 37.3504 36.7898 38.6612 35.1732 38.6612ZM39.4421 23.8629H28.6986V15.356H34.858C35.6281 15.356 36.5569 15.9106 36.9223 16.5885L40.178 22.6306C40.5434 23.3083 40.2122 23.8629 39.4421 23.8629Z" stroke="#000066" stroke-width="0.000213333"/>
  <path d="M19.837 4.739H19.9492C20.0342 4.739 20.1751 4.71729 20.2571 4.69169C20.4492 4.63107 20.9481 4.40475 20.9481 4.09097C20.9481 3.58385 20.5342 3.47161 20.1868 3.46649C19.9245 3.46649 19.8505 3.47653 19.8476 3.47714C19.7966 3.48492 19.7516 3.53736 19.7516 3.58938V4.6536C19.7516 4.69988 19.7907 4.739 19.837 4.739Z" fill="#000066" stroke="#000066" stroke-width="0.000213333"/>
</svg>