<svg xmlns="http://www.w3.org/2000/svg" width="35" height="35" viewBox="0 0 35 35" fill="none">
  <mask id="mask0_0_231" style="mask-type:luminance" maskUnits="userSpaceOnUse" x="0" y="0" width="35" height="35">
    <path d="M0.408689 17.769C0.265967 8.38111 7.76056 0.65513 17.1484 0.512409C26.5361 0.369689 34.2622 7.86427 34.4049 17.2521C34.5476 26.6398 27.0529 34.3658 17.6652 34.5085C8.2774 34.6512 0.551409 27.1567 0.408689 17.769Z" fill="white"/>
  </mask>
  <g mask="url(#mask0_0_231)">
    <path d="M0.408567 17.769C0.265845 8.38111 7.76044 0.65513 17.1482 0.512409C26.5359 0.369689 34.2621 7.86427 34.4048 17.2521C34.5475 26.6398 27.0528 34.3658 17.6651 34.5085C8.27728 34.6512 0.551287 27.1567 0.408567 17.769Z" fill="#A495FF"/>
    <path d="M25.0751 13.1342C25.0771 13.1457 25.079 13.1572 25.0811 13.1687L25.5908 16.1433L26.1814 18.1991L25.3701 18.2968L25.2991 20.6408C25.2432 22.4806 23.9928 24.0685 22.2172 24.5544C21.1438 24.848 20.0288 24.8761 18.963 24.6525L19.5731 30.1881L21.8916 30.8031C20.8106 31.9781 19.5054 32.5335 17.9761 32.4693C16.4467 32.4049 14.1541 31.6985 11.0978 30.3494L12.2875 19.6565C11.1894 17.6028 10.6799 15.2842 10.8174 12.957L10.8265 12.803C10.9587 10.5662 12.6089 8.71247 14.8154 8.32205L17.5126 7.845C21.0613 7.21717 24.4472 9.58518 25.0751 13.1342Z" fill="white"/>
    <path d="M25.0751 13.1342C25.0771 13.1457 25.079 13.1572 25.0811 13.1687L25.5908 16.1433L26.1814 18.1991L25.3701 18.2968L25.2991 20.6408C25.2432 22.4806 23.9928 24.0685 22.2172 24.5544C21.1438 24.848 20.0288 24.8761 18.963 24.6525L19.5731 30.1881L21.8916 30.8031C20.8106 31.9781 19.5054 32.5335 17.9761 32.4693C16.4467 32.4049 14.1541 31.6985 11.0978 30.3494L12.2875 19.6565C11.1894 17.6028 10.6799 15.2842 10.8174 12.957L10.8265 12.803C10.9587 10.5662 12.6089 8.71247 14.8154 8.32205L17.5126 7.845C21.0613 7.21717 24.4472 9.58518 25.0751 13.1342Z" fill="#F8B097" stroke="#030507" stroke-width="0.6" stroke-linejoin="round"/>
    <path fill-rule="evenodd" clip-rule="evenodd" d="M24.5832 11.552L20.8192 11.2644L18.2861 14.8301L15.0041 16.7965L12.1837 20.5896L12.2875 19.6565C11.1894 17.6028 10.6799 15.2842 10.8174 12.957L10.8265 12.803C10.9587 10.5662 12.6088 8.71246 14.8154 8.32203L17.5126 7.84499C20.5023 7.3161 23.3764 8.91351 24.5832 11.552Z" fill="black"/>
    <path d="M24.5832 11.552L24.5704 11.7212C24.6304 11.7259 24.6882 11.6984 24.7225 11.6491C24.7568 11.5998 24.7625 11.5361 24.7377 11.4814L24.5832 11.552ZM20.8194 11.2644L20.8322 11.0951C20.773 11.0906 20.7155 11.1175 20.681 11.1661L20.8194 11.2644ZM18.2863 14.8301L18.3736 14.9757C18.3938 14.9637 18.4112 14.9475 18.4247 14.9285L18.2863 14.8301ZM15.0043 16.7965L14.917 16.6509C14.8981 16.6623 14.8813 16.6773 14.8681 16.6952L15.0043 16.7965ZM12.1839 20.5896L12.0152 20.5709C12.0067 20.647 12.0503 20.7195 12.1216 20.7475C12.1929 20.7757 12.2743 20.7524 12.32 20.6909L12.1839 20.5896ZM12.2877 19.6565L12.4564 19.6752C12.4602 19.6411 12.4536 19.6068 12.4373 19.5764L12.2877 19.6565ZM24.5962 11.3828L20.8322 11.0951L20.8066 11.4336L24.5704 11.7212L24.5962 11.3828ZM20.681 11.1661L18.1479 14.7318L18.4247 14.9285L20.9578 11.3626L20.681 11.1661ZM18.199 14.6846L14.917 16.6509L15.0915 16.9421L18.3736 14.9757L18.199 14.6846ZM14.8681 16.6952L12.0476 20.4883L12.32 20.6909L15.1405 16.8977L14.8681 16.6952ZM12.3525 20.6084L12.4564 19.6752L12.119 19.6377L12.0152 20.5709L12.3525 20.6084ZM12.4373 19.5764C11.3538 17.5504 10.8512 15.2629 10.9869 12.967L10.6481 12.9469C10.5087 15.3054 11.025 17.6551 12.138 19.7363L12.4373 19.5764ZM10.9869 12.967L10.9961 12.813L10.6573 12.7929L10.6481 12.9469L10.9869 12.967ZM10.9961 12.813C11.1237 10.6545 12.716 8.86584 14.8451 8.48909L14.786 8.15485C12.502 8.55895 10.794 10.4776 10.6573 12.7929L10.9961 12.813ZM14.8451 8.48909L17.5422 8.01205L17.4832 7.67781L14.786 8.15485L14.8451 8.48909ZM17.5422 8.01205C20.454 7.49698 23.2536 9.05261 24.4291 11.6226L24.7377 11.4814C23.4996 8.77429 20.5509 7.1351 17.4832 7.67781L17.5422 8.01205Z" fill="#030507"/>
    <path fill-rule="evenodd" clip-rule="evenodd" d="M19.9363 24.8718C19.13 24.526 18.5406 24.2298 18.1678 23.983C18.0152 23.8818 17.8092 23.9238 17.708 24.0766C17.6431 24.1748 17.6349 24.2999 17.6866 24.4057L19.587 28.2859L19.9363 24.8718Z" fill="#030507"/>
    <path d="M24.5289 16.4394C24.7903 16.4078 24.9767 16.1705 24.9453 15.9093C24.9138 15.648 24.6763 15.4617 24.4151 15.4933C24.1537 15.5248 23.9673 15.762 23.9987 16.0233C24.0304 16.2845 24.2677 16.4709 24.5289 16.4394Z" fill="#030507"/>
    <path d="M23.8942 19.0556C24.2516 19.7439 24.6866 20.0669 25.1995 20.0244" stroke="#030507" stroke-width="0.6" stroke-linecap="round" stroke-linejoin="round"/>
    <path fill-rule="evenodd" clip-rule="evenodd" d="M18.4705 14.6984C16.8169 13.3912 15.5595 13.3381 14.6982 14.5388C13.4065 16.34 14.8484 18.2202 15.86 18.6466C16.5344 18.9311 17.0727 18.9816 17.4747 18.7978" fill="#F8B097"/>
    <path d="M18.4705 14.6984C16.8169 13.3912 15.5595 13.3381 14.6982 14.5388C13.4065 16.34 14.8484 18.2202 15.86 18.6466C16.5344 18.9311 17.0727 18.9816 17.4747 18.7978" stroke="#030507" stroke-width="0.6" stroke-linecap="round" stroke-linejoin="round"/>
    <path d="M16.521 14.6618C15.5512 14.9615 15.2098 15.7339 15.4971 16.9792" stroke="#030507" stroke-width="1.32442" stroke-linecap="round" stroke-linejoin="round"/>
    <path fill-rule="evenodd" clip-rule="evenodd" d="M11.0745 27.3202C7.64245 39.3495 4.93146 49.5887 2.94148 58.0371C0.951505 66.4859 0.28658 71.5102 0.946843 73.1105L30.6272 71.539C30.491 62.5795 30.4148 57.5662 30.3986 56.4996C30.3742 54.8996 26.3908 29.435 22.4059 28.5354C21.925 28.4266 20.038 27.4976 19.4695 27.4118C18.9992 27.3406 20.2101 28.1306 17.5931 28.8276C15.8486 29.2921 13.6757 28.7898 11.0745 27.3202Z" fill="white" stroke="#030507" stroke-width="1.32442" stroke-linecap="round" stroke-linejoin="round"/>
    <path fill-rule="evenodd" clip-rule="evenodd" d="M11.047 27.2953C11.9764 28.6231 12.648 29.6313 13.0621 30.3199C14.3867 32.5237 14.3082 36.3624 14.3523 39.2629C14.4269 44.1687 15.3088 56.9521 16.9982 77.6129L0.605269 78.665C-1.10066 76.4188 -1.18612 70.7977 0.348901 61.8019C1.21112 56.7498 0.540663 47.7792 -1.66235 34.8901C-2.24353 31.4899 0.041887 28.2624 3.44208 27.6812C3.69862 27.6374 3.95756 27.6096 4.21757 27.5982L11.047 27.2953Z" fill="#AA8981" stroke="black" stroke-width="0.6"/>
    <path fill-rule="evenodd" clip-rule="evenodd" d="M15.4105 29.1511L18.457 28.6755C18.6053 28.6525 18.7441 28.7538 18.7672 28.9019C18.7697 28.9176 18.7706 28.9333 18.7703 28.9489L18.7229 31.5054C18.7206 31.6347 18.6275 31.7444 18.5001 31.7676L16.8677 32.0646C16.7546 32.0851 16.6408 32.0323 16.5837 31.9326L15.217 29.5546C15.1422 29.4246 15.1871 29.2586 15.3171 29.1838C15.3459 29.1673 15.3777 29.1562 15.4105 29.1511Z" fill="black"/>
    <path fill-rule="evenodd" clip-rule="evenodd" d="M11.383 27.0863C10.2914 26.7407 9.43538 27.0028 8.81483 27.8723C8.19443 28.7417 8.21335 29.9862 8.87159 31.6057L16.6399 28.9754C15.3679 28.8431 14.3918 28.6543 13.7116 28.4089C13.0317 28.1635 12.2554 27.7228 11.383 27.0863Z" fill="white" stroke="#030507" stroke-width="0.6" stroke-linecap="round" stroke-linejoin="round"/>
    <path d="M25.8179 29.7186C30.2744 38.2351 33.0611 43.6828 34.1777 46.0616C34.9348 47.6741 42.6712 36.7182 47.0214 35.9813C47.9524 35.8237 51.6681 39.9195 51.6439 40.7998C51.5302 44.9076 39.3453 59.8564 34.3885 59.9317C27.0673 60.043 24.2103 49.9721 25.8179 29.7186Z" fill="white"/>
    <path d="M25.8179 29.7186C30.2744 38.2351 33.0611 43.6828 34.1777 46.0616C34.9348 47.6741 42.6712 36.7182 47.0214 35.9813C47.9524 35.8237 51.6681 39.9195 51.6439 40.7998C51.5302 44.9076 39.3453 59.8564 34.3885 59.9317C27.0673 60.043 24.2103 49.9721 25.8179 29.7186Z" fill="#AA8981" stroke="black" stroke-width="0.7" stroke-linejoin="round"/>
    <path fill-rule="evenodd" clip-rule="evenodd" d="M32.7051 61.0793C32.7652 65.0321 33.7126 71.7535 35.5475 81.2437C34.1621 89.0696 32.4541 87.9243 30.4238 77.8072C28.3932 67.6903 27.1817 52.1085 26.7888 31.0619L36.1606 49.0559C33.797 53.1186 32.645 57.1267 32.7051 61.0793Z" fill="black"/>
    <path fill-rule="evenodd" clip-rule="evenodd" d="M20.0134 27.566C21.3835 31.3475 22.2753 34.9325 22.689 38.3211C23.1027 41.7099 24.3846 54.5682 26.5346 76.8967L29.3896 77.3641C31.2653 75.9219 31.2084 67.3675 29.2183 51.7008C27.9827 41.9715 27.7573 32.2691 25.8174 29.7184C25.0461 28.7044 23.1113 27.9868 20.0134 27.566Z" fill="#AA8981" stroke="black" stroke-width="0.6"/>
    <path fill-rule="evenodd" clip-rule="evenodd" d="M19.3181 27.105C20.4265 27.1915 21.3158 27.4258 21.9863 27.8078C22.6567 28.1899 23.0784 29.134 23.2516 30.6403L16.6401 28.9754C17.5431 28.826 18.2189 28.612 18.6674 28.3336C19.1157 28.0551 19.3327 27.6456 19.3181 27.105Z" fill="white" stroke="#030507" stroke-width="0.6" stroke-linecap="round" stroke-linejoin="round"/>
    <path fill-rule="evenodd" clip-rule="evenodd" d="M17.0228 31.8212L17.2558 47.15C17.2607 47.4683 17.3587 47.7782 17.5376 48.0413L19.7872 51.3501C20.0402 51.7223 20.5469 51.8186 20.919 51.5656C21.0711 51.4623 21.1838 51.3105 21.2386 51.1349L22.2187 47.9951C22.3075 47.7108 22.3166 47.4075 22.2451 47.1185L18.3753 31.4612L17.0228 31.8212Z" fill="black"/>
    <path d="M65.4765 132.864C84.4836 132.575 99.5075 106.993 99.0321 75.7268C98.5568 44.4598 82.7622 19.3471 63.7551 19.6361C44.7475 19.9251 29.7241 45.5063 30.1994 76.7732C30.6748 108.04 46.4688 133.153 65.4765 132.864Z" fill="#77ACB7" stroke="#030507" stroke-width="1.32442" stroke-linecap="round" stroke-linejoin="round"/>
    <path d="M18.4916 14.7566L26.0964 14.7768" stroke="#030507" stroke-width="0.6" stroke-linecap="round" stroke-linejoin="round"/>
    <path fill-rule="evenodd" clip-rule="evenodd" d="M26.1228 17.1437C26.365 17.0102 26.5087 16.7494 26.4924 16.4734L26.3864 14.6933C26.3782 14.5555 26.2597 14.4504 26.1218 14.4586C26.0847 14.4608 26.0486 14.4713 26.016 14.4892C25.8028 14.6068 25.6724 14.8329 25.6776 15.0763L25.7168 16.9097C25.72 17.0609 25.8452 17.1809 25.9965 17.1777C26.0408 17.1768 26.0841 17.1651 26.1228 17.1437Z" fill="black"/>
    <path fill-rule="evenodd" clip-rule="evenodd" d="M-1.70341 32.7171L-4.4952 56.1763C-4.97373 60.1974 -2.102 63.8451 1.91915 64.3236C2.40863 64.3819 2.90279 64.3906 3.39416 64.3496L28.3495 62.2711L27.6742 53.5905L7.97809 53.2109L9.90929 46.2559" fill="#AA8981"/>
    <path d="M-1.70341 32.7171L-4.4952 56.1763C-4.97373 60.1974 -2.102 63.8451 1.91915 64.3236C2.40863 64.3819 2.90279 64.3906 3.39416 64.3496L28.3495 62.2711L27.6742 53.5905L7.97809 53.2109L9.90929 46.2559" stroke="black" stroke-width="1.32442"/>
  </g>
</svg>