<svg xmlns="http://www.w3.org/2000/svg" width="109" height="23" viewBox="0 0 109 23" fill="none">
  <rect x="0.251038" y="2.02517" width="20" height="20" rx="5" transform="rotate(-0.870993 0.251038 2.02517)" fill="#F7CAFF"/>
  <path fill-rule="evenodd" clip-rule="evenodd" d="M9.71596 6.28028C9.92855 5.74565 10.6787 5.73425 10.9075 6.26216L12.1123 9.04309C12.2095 9.2675 12.4317 9.41127 12.6756 9.40756L15.7322 9.36109C16.2942 9.35255 16.586 10.03 16.1947 10.4347L13.7602 12.9524C13.6075 13.1104 13.5522 13.3391 13.6156 13.5498L14.6483 16.9773C14.8227 17.556 14.1839 18.039 13.6774 17.7113L10.7924 15.8446C10.5874 15.7119 10.3231 15.716 10.1222 15.8548L7.30007 17.8051C6.80221 18.1491 6.14683 17.6843 6.30404 17.0987L7.23059 13.6468C7.28765 13.4343 7.22535 13.2074 7.06786 13.0542L4.57043 10.6237C4.16239 10.2266 4.43656 9.53282 5.00495 9.52418L8.04425 9.47797C8.28812 9.47426 8.50584 9.32381 8.5962 9.09654L9.71596 6.28028Z" fill="url(#paint0_linear_0_261)"/>
  <rect x="22.2485" y="1.69074" width="20" height="20" rx="5" transform="rotate(-0.870993 22.2485 1.69074)" fill="#FEF4E1"/>
  <path fill-rule="evenodd" clip-rule="evenodd" d="M31.7134 5.94586C31.926 5.41123 32.6762 5.39983 32.9049 5.92774L34.1098 8.70867C34.207 8.93308 34.4292 9.07685 34.673 9.07314L37.7296 9.02667C38.2917 9.01813 38.5835 9.69555 38.1921 10.1003L35.7577 12.618C35.6049 12.776 35.5496 13.0046 35.613 13.2154L36.6458 16.6429C36.8201 17.2216 36.1813 17.7046 35.6748 17.3769L32.7899 15.5101C32.5849 15.3775 32.3205 15.3815 32.1197 15.5204L29.2975 17.4707C28.7996 17.8147 28.1443 17.3499 28.3015 16.7643L29.228 13.3124C29.2851 13.0999 29.2228 12.873 29.0653 12.7197L26.5679 10.2893C26.1598 9.89215 26.434 9.1984 27.0024 9.18976L30.0417 9.14355C30.2856 9.13984 30.5033 8.98939 30.5936 8.76212L31.7134 5.94586Z" fill="url(#paint1_linear_0_261)"/>
  <rect x="22.2485" y="1.69074" width="20" height="20" rx="5" transform="rotate(-0.870993 22.2485 1.69074)" fill="#F7CAFF"/>
  <path fill-rule="evenodd" clip-rule="evenodd" d="M31.7134 5.94586C31.926 5.41123 32.6762 5.39983 32.9049 5.92774L34.1098 8.70867C34.207 8.93308 34.4292 9.07685 34.673 9.07314L37.7296 9.02667C38.2917 9.01813 38.5835 9.69555 38.1921 10.1003L35.7577 12.618C35.6049 12.776 35.5496 13.0046 35.613 13.2154L36.6458 16.6429C36.8201 17.2216 36.1813 17.7046 35.6748 17.3769L32.7899 15.5101C32.5849 15.3775 32.3205 15.3815 32.1197 15.5204L29.2975 17.4707C28.7996 17.8147 28.1443 17.3499 28.3015 16.7643L29.228 13.3124C29.2851 13.0999 29.2228 12.873 29.0653 12.7197L26.5679 10.2893C26.1598 9.89215 26.434 9.1984 27.0024 9.18976L30.0417 9.14355C30.2856 9.13984 30.5033 8.98939 30.5936 8.76212L31.7134 5.94586Z" fill="url(#paint2_linear_0_261)"/>
  <rect x="44.246" y="1.35632" width="20" height="20" rx="5" transform="rotate(-0.870993 44.246 1.35632)" fill="#F2F2F2"/>
  <path fill-rule="evenodd" clip-rule="evenodd" d="M53.7109 5.61143C53.9235 5.07681 54.6736 5.0654 54.9024 5.59331L56.1073 8.37424C56.2045 8.59865 56.4267 8.74242 56.6705 8.73871L59.7271 8.69224C60.2892 8.6837 60.581 9.36112 60.1896 9.76585L57.7552 12.2836C57.6024 12.4416 57.5471 12.6702 57.6105 12.8809L58.6433 16.3084C58.8176 16.8872 58.1788 17.3701 57.6723 17.0424L54.7874 15.1757C54.5824 15.0431 54.318 15.0471 54.1172 15.186L51.295 17.1362C50.7971 17.4802 50.1418 17.0154 50.299 16.4298L51.2255 12.978C51.2826 12.7654 51.2203 12.5386 51.0628 12.3853L48.5654 9.95483C48.1573 9.55773 48.4315 8.86397 48.9999 8.85533L52.0392 8.80912C52.2831 8.80542 52.5008 8.65496 52.5911 8.4277L53.7109 5.61143Z" fill="#DCDCDC"/>
  <rect x="44.246" y="1.35632" width="20" height="20" rx="5" transform="rotate(-0.870993 44.246 1.35632)" fill="#F7CAFF"/>
  <path fill-rule="evenodd" clip-rule="evenodd" d="M53.7109 5.61143C53.9235 5.07681 54.6736 5.0654 54.9024 5.59331L56.1073 8.37424C56.2045 8.59865 56.4267 8.74242 56.6705 8.73871L59.7271 8.69224C60.2892 8.6837 60.581 9.36112 60.1896 9.76585L57.7552 12.2836C57.6024 12.4416 57.5471 12.6702 57.6105 12.8809L58.6433 16.3084C58.8176 16.8872 58.1788 17.3701 57.6723 17.0424L54.7874 15.1757C54.5824 15.0431 54.318 15.0471 54.1172 15.186L51.295 17.1362C50.7971 17.4802 50.1418 17.0154 50.299 16.4298L51.2255 12.978C51.2826 12.7654 51.2203 12.5386 51.0628 12.3853L48.5654 9.95483C48.1573 9.55773 48.4315 8.86397 48.9999 8.85533L52.0392 8.80912C52.2831 8.80542 52.5008 8.65496 52.5911 8.4277L53.7109 5.61143Z" fill="url(#paint3_linear_0_261)"/>
  <rect x="66.2434" y="1.02189" width="20" height="20" rx="5" transform="rotate(-0.870993 66.2434 1.02189)" fill="#F2F2F2"/>
  <path fill-rule="evenodd" clip-rule="evenodd" d="M75.7083 5.277C75.9209 4.74238 76.6711 4.73098 76.8998 5.25889L78.1047 8.03981C78.2019 8.26423 78.4241 8.40799 78.668 8.40429L81.7245 8.35782C82.2866 8.34927 82.5784 9.02669 82.187 9.43142L79.7526 11.9491C79.5998 12.1071 79.5445 12.3358 79.608 12.5465L80.6407 15.974C80.8151 16.5527 80.1762 17.0357 79.6697 16.708L76.7848 14.8413C76.5798 14.7087 76.3155 14.7127 76.1146 14.8515L73.2924 16.8018C72.7946 17.1458 72.1392 16.681 72.2964 16.0954L73.223 12.6436C73.28 12.431 73.2177 12.2042 73.0602 12.0509L70.5628 9.6204C70.1548 9.2233 70.4289 8.52954 70.9973 8.5209L74.0366 8.4747C74.2805 8.47099 74.4982 8.32053 74.5886 8.09327L75.7083 5.277Z" fill="#DCDCDC"/>
  <rect x="66.2434" y="1.02189" width="20" height="20" rx="5" transform="rotate(-0.870993 66.2434 1.02189)" fill="#F7CAFF"/>
  <path fill-rule="evenodd" clip-rule="evenodd" d="M75.7083 5.277C75.9209 4.74238 76.6711 4.73098 76.8998 5.25889L78.1047 8.03981C78.2019 8.26423 78.4241 8.40799 78.668 8.40429L81.7245 8.35782C82.2866 8.34927 82.5784 9.02669 82.187 9.43142L79.7526 11.9491C79.5998 12.1071 79.5445 12.3358 79.608 12.5465L80.6407 15.974C80.8151 16.5527 80.1762 17.0357 79.6697 16.708L76.7848 14.8413C76.5798 14.7087 76.3155 14.7127 76.1146 14.8515L73.2924 16.8018C72.7946 17.1458 72.1392 16.681 72.2964 16.0954L73.223 12.6436C73.28 12.431 73.2177 12.2042 73.0602 12.0509L70.5628 9.6204C70.1548 9.2233 70.4289 8.52954 70.9973 8.5209L74.0366 8.4747C74.2805 8.47099 74.4982 8.32053 74.5886 8.09327L75.7083 5.277Z" fill="url(#paint4_linear_0_261)"/>
  <rect x="88.2408" y="0.687469" width="20" height="20" rx="5" transform="rotate(-0.870993 88.2408 0.687469)" fill="#F2F2F2"/>
  <path fill-rule="evenodd" clip-rule="evenodd" d="M97.7058 4.94258C97.9184 4.40796 98.6685 4.39656 98.8973 4.92447L100.102 7.7054C100.199 7.92981 100.422 8.07358 100.665 8.06987L103.722 8.0234C104.284 8.01485 104.576 8.69227 104.184 9.097L101.75 11.6147C101.597 11.7727 101.542 12.0014 101.605 12.2121L102.638 15.6396C102.812 16.2183 102.174 16.7013 101.667 16.3736L98.7822 14.5069C98.5773 14.3743 98.3129 14.3783 98.112 14.5171L95.2899 16.4674C94.792 16.8114 94.1366 16.3466 94.2938 15.761L95.2204 12.3092C95.2775 12.0966 95.2152 11.8697 95.0577 11.7165L92.5602 9.28598C92.1522 8.88888 92.4264 8.19512 92.9948 8.18648L96.0341 8.14028C96.2779 8.13657 96.4956 7.98611 96.586 7.75885L97.7058 4.94258Z" fill="#DCDCDC"/>
  <defs>
    <linearGradient id="paint0_linear_0_261" x1="4.3114" y1="5.9639" x2="16.4924" y2="17.7801" gradientUnits="userSpaceOnUse">
      <stop stop-color="#7B1FA2"/>
      <stop offset="0.505208" stop-color="#9C27B0"/>
      <stop offset="1" stop-color="#562A5E"/>
    </linearGradient>
    <linearGradient id="paint1_linear_0_261" x1="26.3088" y1="5.62948" x2="38.4899" y2="17.4457" gradientUnits="userSpaceOnUse">
      <stop stop-color="#FF7A00"/>
      <stop offset="0.505208" stop-color="#FF9900"/>
      <stop offset="1" stop-color="#DB8300"/>
    </linearGradient>
    <linearGradient id="paint2_linear_0_261" x1="26.3088" y1="5.62948" x2="38.4899" y2="17.4457" gradientUnits="userSpaceOnUse">
      <stop stop-color="#7B1FA2"/>
      <stop offset="0.505208" stop-color="#9C27B0"/>
      <stop offset="1" stop-color="#562A5E"/>
    </linearGradient>
    <linearGradient id="paint3_linear_0_261" x1="48.3063" y1="5.29505" x2="60.4874" y2="17.1113" gradientUnits="userSpaceOnUse">
      <stop stop-color="#7B1FA2"/>
      <stop offset="0.505208" stop-color="#9C27B0"/>
      <stop offset="1" stop-color="#562A5E"/>
    </linearGradient>
    <linearGradient id="paint4_linear_0_261" x1="70.3038" y1="4.96062" x2="82.4848" y2="16.7768" gradientUnits="userSpaceOnUse">
      <stop stop-color="#7B1FA2"/>
      <stop offset="0.505208" stop-color="#9C27B0"/>
      <stop offset="1" stop-color="#562A5E"/>
    </linearGradient>
  </defs>
</svg>