<svg width="157" height="21" viewBox="0 0 157 21" fill="none" xmlns="http://www.w3.org/2000/svg">
<path d="M128.933 15V5.54545H132.552C133.235 5.54545 133.803 5.65317 134.255 5.86861C134.711 6.08097 135.051 6.3718 135.276 6.74112C135.503 7.11044 135.617 7.529 135.617 7.9968C135.617 8.38151 135.543 8.71082 135.396 8.98473C135.248 9.25556 135.049 9.47562 134.8 9.64489C134.551 9.81416 134.272 9.93572 133.964 10.0096V10.1019C134.3 10.1204 134.622 10.2235 134.929 10.4112C135.24 10.5959 135.494 10.8575 135.691 11.196C135.888 11.5346 135.987 11.9439 135.987 12.424C135.987 12.9134 135.868 13.3535 135.631 13.7443C135.394 14.1321 135.037 14.4383 134.56 14.663C134.083 14.8877 133.483 15 132.76 15H128.933ZM130.645 13.5689H132.487C133.109 13.5689 133.557 13.4504 133.831 13.2134C134.108 12.9734 134.246 12.6656 134.246 12.2901C134.246 12.0101 134.177 11.7577 134.038 11.533C133.9 11.3053 133.703 11.1268 133.447 10.9975C133.192 10.8652 132.887 10.799 132.533 10.799H130.645V13.5689ZM130.645 9.56641H132.339C132.635 9.56641 132.901 9.51255 133.138 9.40483C133.375 9.29403 133.561 9.13861 133.697 8.93857C133.835 8.73544 133.904 8.49538 133.904 8.21839C133.904 7.85215 133.775 7.55054 133.517 7.31356C133.261 7.07659 132.881 6.9581 132.376 6.9581H130.645V9.56641ZM145.925 10.2727C145.925 11.2914 145.734 12.1639 145.352 12.8903C144.974 13.6135 144.457 14.1675 143.801 14.5522C143.149 14.9369 142.408 15.1293 141.581 15.1293C140.753 15.1293 140.011 14.9369 139.355 14.5522C138.703 14.1644 138.186 13.6089 137.804 12.8857C137.426 12.1593 137.236 11.2884 137.236 10.2727C137.236 9.25402 137.426 8.38305 137.804 7.6598C138.186 6.93348 138.703 6.37796 139.355 5.99325C140.011 5.60855 140.753 5.41619 141.581 5.41619C142.408 5.41619 143.149 5.60855 143.801 5.99325C144.457 6.37796 144.974 6.93348 145.352 7.6598C145.734 8.38305 145.925 9.25402 145.925 10.2727ZM144.203 10.2727C144.203 9.55563 144.09 8.95088 143.866 8.45845C143.644 7.96295 143.336 7.58902 142.942 7.33665C142.548 7.0812 142.094 6.95348 141.581 6.95348C141.067 6.95348 140.613 7.0812 140.219 7.33665C139.825 7.58902 139.515 7.96295 139.291 8.45845C139.069 8.95088 138.958 9.55563 138.958 10.2727C138.958 10.9898 139.069 11.5961 139.291 12.0916C139.515 12.584 139.825 12.958 140.219 13.2134C140.613 13.4658 141.067 13.592 141.581 13.592C142.094 13.592 142.548 13.4658 142.942 13.2134C143.336 12.958 143.644 12.584 143.866 12.0916C144.09 11.5961 144.203 10.9898 144.203 10.2727ZM155.313 5.54545V15H153.79L149.335 8.56001H149.257V15H147.544V5.54545H149.077L153.527 11.9901H153.61V5.54545H155.313Z" fill="#7B1FA2"/>
<path d="M118 13C119.657 13 121 11.6569 121 10C121 8.34315 119.657 7 118 7C116.343 7 115 8.34315 115 10C115 11.6569 116.343 13 118 13Z" fill="#7B1FA2" stroke="#7B1FA2" stroke-width="0.000213333"/>
<rect x="0.396484" y="0.203125" width="20" height="20" rx="5" fill="#F7CAFF"/>
<path fill-rule="evenodd" clip-rule="evenodd" d="M9.79561 4.60162C10.0163 4.07029 10.7666 4.07029 10.9873 4.60162L12.1497 7.40054C12.2435 7.62641 12.4635 7.77353 12.7074 7.77353H15.7643C16.3264 7.77353 16.6079 8.45531 16.2104 8.85405L13.738 11.3345C13.5829 11.4901 13.5241 11.7179 13.5843 11.9296L14.5648 15.3724C14.7303 15.9537 14.0842 16.4269 13.5828 16.0915L10.7266 14.1812C10.5236 14.0455 10.2592 14.0454 10.0563 14.1812L7.2048 16.0884C6.70178 16.4248 6.05354 15.9501 6.21963 15.3669L7.19855 11.9296C7.25883 11.7179 7.19999 11.4901 7.04485 11.3345L4.58465 8.8663C4.18269 8.46304 4.46737 7.77353 5.03583 7.77353H8.07549C8.31939 7.77353 8.53936 7.62641 8.63317 7.40054L9.79561 4.60162Z" fill="url(#paint0_linear_0_608)"/>
<rect x="22.3965" y="0.203125" width="20" height="20" rx="5" fill="#FEF4E1"/>
<path fill-rule="evenodd" clip-rule="evenodd" d="M31.7956 4.60162C32.0163 4.07029 32.7666 4.07029 32.9873 4.60162L34.1497 7.40054C34.2435 7.62641 34.4635 7.77353 34.7074 7.77353H37.7643C38.3264 7.77353 38.6079 8.45531 38.2104 8.85405L35.738 11.3345C35.5829 11.4901 35.5241 11.7179 35.5843 11.9296L36.5648 15.3724C36.7303 15.9537 36.0842 16.4269 35.5828 16.0915L32.7266 14.1812C32.5236 14.0455 32.2592 14.0454 32.0563 14.1812L29.2048 16.0884C28.7018 16.4248 28.0535 15.9501 28.2196 15.3669L29.1986 11.9296C29.2588 11.7179 29.2 11.4901 29.0448 11.3345L26.5846 8.8663C26.1827 8.46304 26.4674 7.77353 27.0358 7.77353H30.0755C30.3194 7.77353 30.5394 7.62641 30.6332 7.40054L31.7956 4.60162Z" fill="url(#paint1_linear_0_608)"/>
<rect x="22.3965" y="0.203125" width="20" height="20" rx="5" fill="#F7CAFF"/>
<path fill-rule="evenodd" clip-rule="evenodd" d="M31.7956 4.60162C32.0163 4.07029 32.7666 4.07029 32.9873 4.60162L34.1497 7.40054C34.2435 7.62641 34.4635 7.77353 34.7074 7.77353H37.7643C38.3264 7.77353 38.6079 8.45531 38.2104 8.85405L35.738 11.3345C35.5829 11.4901 35.5241 11.7179 35.5843 11.9296L36.5648 15.3724C36.7303 15.9537 36.0842 16.4269 35.5828 16.0915L32.7266 14.1812C32.5236 14.0455 32.2592 14.0454 32.0563 14.1812L29.2048 16.0884C28.7018 16.4248 28.0535 15.9501 28.2196 15.3669L29.1986 11.9296C29.2588 11.7179 29.2 11.4901 29.0448 11.3345L26.5846 8.8663C26.1827 8.46304 26.4674 7.77353 27.0358 7.77353H30.0755C30.3194 7.77353 30.5394 7.62641 30.6332 7.40054L31.7956 4.60162Z" fill="url(#paint2_linear_0_608)"/>
<rect x="44.3965" y="0.203125" width="20" height="20" rx="5" fill="#F2F2F2"/>
<path fill-rule="evenodd" clip-rule="evenodd" d="M53.7956 4.60162C54.0163 4.07029 54.7666 4.07029 54.9873 4.60162L56.1497 7.40054C56.2435 7.62641 56.4635 7.77353 56.7074 7.77353H59.7643C60.3264 7.77353 60.6079 8.45531 60.2104 8.85405L57.738 11.3345C57.5829 11.4901 57.5241 11.7179 57.5843 11.9296L58.5648 15.3724C58.7303 15.9537 58.0842 16.4269 57.5828 16.0915L54.7266 14.1812C54.5236 14.0455 54.2592 14.0454 54.0563 14.1812L51.2048 16.0884C50.7018 16.4248 50.0535 15.9501 50.2196 15.3669L51.1986 11.9296C51.2588 11.7179 51.2 11.4901 51.0448 11.3345L48.5846 8.8663C48.1827 8.46304 48.4674 7.77353 49.0358 7.77353H52.0755C52.3194 7.77353 52.5394 7.62641 52.6332 7.40054L53.7956 4.60162Z" fill="#DCDCDC"/>
<rect x="44.3965" y="0.203125" width="20" height="20" rx="5" fill="#F7CAFF"/>
<path fill-rule="evenodd" clip-rule="evenodd" d="M53.7956 4.60162C54.0163 4.07029 54.7666 4.07029 54.9873 4.60162L56.1497 7.40054C56.2435 7.62641 56.4635 7.77353 56.7074 7.77353H59.7643C60.3264 7.77353 60.6079 8.45531 60.2104 8.85405L57.738 11.3345C57.5829 11.4901 57.5241 11.7179 57.5843 11.9296L58.5648 15.3724C58.7303 15.9537 58.0842 16.4269 57.5828 16.0915L54.7266 14.1812C54.5236 14.0455 54.2592 14.0454 54.0563 14.1812L51.2048 16.0884C50.7018 16.4248 50.0535 15.9501 50.2196 15.3669L51.1986 11.9296C51.2588 11.7179 51.2 11.4901 51.0448 11.3345L48.5846 8.8663C48.1827 8.46304 48.4674 7.77353 49.0358 7.77353H52.0755C52.3194 7.77353 52.5394 7.62641 52.6332 7.40054L53.7956 4.60162Z" fill="url(#paint3_linear_0_608)"/>
<rect x="66.3965" y="0.203125" width="20" height="20" rx="5" fill="#F2F2F2"/>
<path fill-rule="evenodd" clip-rule="evenodd" d="M75.7956 4.60162C76.0163 4.07029 76.7666 4.07029 76.9873 4.60162L78.1497 7.40054C78.2435 7.62641 78.4635 7.77353 78.7074 7.77353H81.7643C82.3264 7.77353 82.6079 8.45531 82.2104 8.85405L79.738 11.3345C79.5829 11.4901 79.5241 11.7179 79.5843 11.9296L80.5648 15.3724C80.7303 15.9537 80.0842 16.4269 79.5828 16.0915L76.7266 14.1812C76.5236 14.0455 76.2592 14.0454 76.0563 14.1812L73.2048 16.0884C72.7018 16.4248 72.0535 15.9501 72.2196 15.3669L73.1986 11.9296C73.2588 11.7179 73.2 11.4901 73.0448 11.3345L70.5846 8.8663C70.1827 8.46304 70.4674 7.77353 71.0358 7.77353H74.0755C74.3194 7.77353 74.5394 7.62641 74.6332 7.40054L75.7956 4.60162Z" fill="#DCDCDC"/>
<rect x="66.3965" y="0.203125" width="20" height="20" rx="5" fill="#F7CAFF"/>
<path fill-rule="evenodd" clip-rule="evenodd" d="M75.7956 4.60162C76.0163 4.07029 76.7666 4.07029 76.9873 4.60162L78.1497 7.40054C78.2435 7.62641 78.4635 7.77353 78.7074 7.77353H81.7643C82.3264 7.77353 82.6079 8.45531 82.2104 8.85405L79.738 11.3345C79.5829 11.4901 79.5241 11.7179 79.5843 11.9296L80.5648 15.3724C80.7303 15.9537 80.0842 16.4269 79.5828 16.0915L76.7266 14.1812C76.5236 14.0455 76.2592 14.0454 76.0563 14.1812L73.2048 16.0884C72.7018 16.4248 72.0535 15.9501 72.2196 15.3669L73.1986 11.9296C73.2588 11.7179 73.2 11.4901 73.0448 11.3345L70.5846 8.8663C70.1827 8.46304 70.4674 7.77353 71.0358 7.77353H74.0755C74.3194 7.77353 74.5394 7.62641 74.6332 7.40054L75.7956 4.60162Z" fill="url(#paint4_linear_0_608)"/>
<rect x="88.3965" y="0.203125" width="20" height="20" rx="5" fill="#F2F2F2"/>
<path fill-rule="evenodd" clip-rule="evenodd" d="M97.7956 4.60162C98.0163 4.07029 98.7666 4.07029 98.9873 4.60162L100.15 7.40054C100.243 7.62641 100.463 7.77353 100.707 7.77353H103.764C104.326 7.77353 104.608 8.45531 104.21 8.85405L101.738 11.3345C101.583 11.4901 101.524 11.7179 101.584 11.9296L102.565 15.3724C102.73 15.9537 102.084 16.4269 101.583 16.0915L98.7266 14.1812C98.5236 14.0455 98.2592 14.0454 98.0563 14.1812L95.2048 16.0884C94.7018 16.4248 94.0535 15.9501 94.2196 15.3669L95.1986 11.9296C95.2588 11.7179 95.2 11.4901 95.0448 11.3345L92.5846 8.8663C92.1827 8.46304 92.4674 7.77353 93.0358 7.77353H96.0755C96.3194 7.77353 96.5394 7.62641 96.6332 7.40054L97.7956 4.60162Z" fill="#DCDCDC"/>
<defs>
<linearGradient id="paint0_linear_0_608" x1="4.39648" y1="4.20312" x2="16.3965" y2="16.2031" gradientUnits="userSpaceOnUse">
<stop stop-color="#7B1FA2"/>
<stop offset="0.505208" stop-color="#9C27B0"/>
<stop offset="1" stop-color="#562A5E"/>
</linearGradient>
<linearGradient id="paint1_linear_0_608" x1="26.3965" y1="4.20312" x2="38.3965" y2="16.2031" gradientUnits="userSpaceOnUse">
<stop stop-color="#FF7A00"/>
<stop offset="0.505208" stop-color="#FF9900"/>
<stop offset="1" stop-color="#DB8300"/>
</linearGradient>
<linearGradient id="paint2_linear_0_608" x1="26.3965" y1="4.20312" x2="38.3965" y2="16.2031" gradientUnits="userSpaceOnUse">
<stop stop-color="#7B1FA2"/>
<stop offset="0.505208" stop-color="#9C27B0"/>
<stop offset="1" stop-color="#562A5E"/>
</linearGradient>
<linearGradient id="paint3_linear_0_608" x1="48.3965" y1="4.20312" x2="60.3965" y2="16.2031" gradientUnits="userSpaceOnUse">
<stop stop-color="#7B1FA2"/>
<stop offset="0.505208" stop-color="#9C27B0"/>
<stop offset="1" stop-color="#562A5E"/>
</linearGradient>
<linearGradient id="paint4_linear_0_608" x1="70.3965" y1="4.20312" x2="82.3965" y2="16.2031" gradientUnits="userSpaceOnUse">
<stop stop-color="#7B1FA2"/>
<stop offset="0.505208" stop-color="#9C27B0"/>
<stop offset="1" stop-color="#562A5E"/>
</linearGradient>
</defs>
</svg>
